<svg xmlns="http://www.w3.org/2000/svg" width="55" height="45" viewBox="0 0 55 45">
  <metadata><?xpacket begin="﻿" id="W5M0MpCehiHzreSzNTczkc9d"?>
<x:xmpmeta xmlns:x="adobe:ns:meta/" x:xmptk="Adobe XMP Core 5.6-c140 79.160451, 2017/05/06-01:08:21        ">
   <rdf:RDF xmlns:rdf="http://www.w3.org/1999/02/22-rdf-syntax-ns#">
      <rdf:Description rdf:about=""/>
   </rdf:RDF>
</x:xmpmeta>
                                                                                                    
                                                                                                    
                                                                                                    
                                                                                                    
                                                                                                    
                                                                                                    
                                                                                                    
                                                                                                    
                                                                                                    
                                                                                                    
                                                                                                    
                                                                                                    
                                                                                                    
                                                                                                    
                                                                                                    
                                                                                                    
                                                                                                    
                                                                                                    
                                                                                                    
                                                                                                    
                           
<?xpacket end="w"?></metadata>
<defs>
    <style>
      .cls-1 {
        fill: #989898;
        fill-rule: evenodd;
      }
    </style>
  </defs>
  <path id="login" class="cls-1" d="M2505.72,439.7a14.056,14.056,0,0,0-1.51,3.8h-21.04v-0.938c-0.01-2.5.1-3.931,3.03-4.6,3.21-.729,6.39-1.379,4.86-4.142-4.52-8.184-1.29-12.823,3.56-12.823,4.76,0,8.07,4.466,3.57,12.823-1.48,2.745,1.58,3.4,4.86,4.142C2504.59,438.314,2505.34,438.881,2505.72,439.7Zm-1.87,8.3h-25.27V416.5h45.84v16.875a14.991,14.991,0,0,1,4.58,2.961V412h-55v40.5h30.94A14.124,14.124,0,0,1,2503.85,448Zm15.98-20.25h-9.16v4.5h9.16v-4.5Zm-9.16-2.25h9.16V421h-9.16v4.5Zm8.02,11.25A10.127,10.127,0,1,0,2529,446.875,10.216,10.216,0,0,0,2518.69,436.75Zm-1.08,14.589-3.87-3.683,1.6-1.569,2.27,2.116,4.85-4.881,1.59,1.566Z" transform="translate(-2474 -412)"/>
</svg>
