<svg xmlns="http://www.w3.org/2000/svg" viewBox="0 0 238.55 41.24"><defs><style>.cls-1,.cls-3{fill:#1c75bc;}.cls-2,.cls-4{fill:#fff;}.cls-3,.cls-4{stroke:#1c75bc;stroke-miterlimit:10;stroke-width:1.26px;}</style></defs><title>steemax-logo</title><g id="Layer_2" data-name="Layer 2"><g id="Layer_1-2" data-name="Layer 1"><path class="cls-1" d="M3.53,30.86A20.11,20.11,0,0,0,12.25,33c3.61,0,5.51-1.49,5.51-3.76s-1.64-3.41-5.82-4.9c-5.78-2-9.54-5.21-9.54-10.26C2.4,8.17,7.35,3.63,15.55,3.63a21.26,21.26,0,0,1,8.87,1.75l-1.76,6.34a16.49,16.49,0,0,0-7.27-1.65c-3.4,0-5.05,1.55-5.05,3.36,0,2.21,2,3.19,6.45,4.9,6.13,2.27,9,5.46,9,10.36,0,5.83-4.49,10.78-14,10.78a22.8,22.8,0,0,1-9.85-2.11Z"/><path class="cls-1" d="M11.78,41.14A24.06,24.06,0,0,1,1.12,38.82L0,38.2l2.41-9.8,1.89,1a18.6,18.6,0,0,0,8,2c1.43,0,3.84-.27,3.84-2.09,0-.86-.36-1.76-4.72-3.33C4.31,23.48.72,19.49.72,14.1.72,7,6.82,2,15.55,2a23.21,23.21,0,0,1,9.56,1.9l1.3.59L23.74,14.1l-1.8-.87a15.06,15.06,0,0,0-6.55-1.48c-2,0-3.38.67-3.38,1.68s1.16,1.73,5.37,3.33c6.89,2.55,10.1,6.34,10.1,11.93C27.48,34.44,23.37,41.14,11.78,41.14ZM3.89,36.41a23.2,23.2,0,0,0,7.89,1.39c7.62,0,12.36-3.49,12.36-9.11,0-4.11-2.37-6.74-7.94-8.79-4-1.54-7.54-2.86-7.54-6.47,0-2.51,2.09-5,6.73-5a18.35,18.35,0,0,1,6.17,1l.84-3.07A20.64,20.64,0,0,0,15.55,5.3C8.68,5.3,4.07,8.83,4.07,14.1c0,3.87,2.75,6.71,8.42,8.68,3.52,1.26,7,2.8,7,6.48,0,2.63-1.89,5.44-7.19,5.44a21,21,0,0,1-7.57-1.5Z"/><path class="cls-1" d="M39.37,6.52v7.21H45v5.78H39.37v9.13c0,3,.73,4.44,3.1,4.44a13.05,13.05,0,0,0,2.32-.21l.05,5.93a15.44,15.44,0,0,1-5.1.67,8.14,8.14,0,0,1-5.88-2.17c-1.45-1.49-2.17-3.92-2.17-7.47V19.51H28.34V13.73h3.35V8.27Z"/><path class="cls-1" d="M39.74,41.14a9.75,9.75,0,0,1-7.09-2.68C30.88,36.63,30,33.8,30,29.83V21.19H26.66V12.06H30V6.93l11-2.52v7.65h5.62v9.13H41.05v7.45c0,2.76.53,2.76,1.42,2.76a11.16,11.16,0,0,0,2-.18l2-.36.07,9.07-1.06.42A16.58,16.58,0,0,1,39.74,41.14ZM30,17.84h3.35v12c0,3,.57,5.15,1.7,6.31a6.55,6.55,0,0,0,4.68,1.66,19.17,19.17,0,0,0,3.41-.27l0-2.79h-.66c-4.77,0-4.77-4.44-4.77-6.11V17.84h5.62V15.41H37.7V8.61l-4.34,1v5.81H30Z"/><path class="cls-1" d="M56.55,28.85c.26,3.25,3.45,4.79,7.12,4.79a22.24,22.24,0,0,0,7-1l1,5.31a25,25,0,0,1-9.13,1.55c-8.56,0-13.46-4.95-13.46-12.84,0-6.4,4-13.46,12.74-13.46,8.15,0,11.24,6.34,11.24,12.58a18,18,0,0,1-.26,3.1Zm9.23-5.37c0-1.91-.83-5.1-4.44-5.1-3.3,0-4.64,3-4.84,5.1Z"/><path class="cls-1" d="M62.53,41.14c-9.34,0-15.13-5.56-15.13-14.51,0-7.52,5-15.14,14.41-15.14s12.92,7.68,12.92,14.26a20.18,20.18,0,0,1-.29,3.4l-.25,1.37H71.93L73.57,39l-1.29.52A26.68,26.68,0,0,1,62.53,41.14Zm-.72-26.3c-7.6,0-11.07,6.11-11.07,11.79,0,7.1,4.3,11.17,11.79,11.17a24.9,24.9,0,0,0,7.21-1l-.41-2.12a24.55,24.55,0,0,1-5.66.62c-5,0-8.48-2.49-8.79-6.34l-.15-1.81H71.32c0-.44.06-.92.06-1.42C71.38,23.19,70.69,14.84,61.81,14.84ZM59,30.52C60.4,31.88,63,32,63.67,32a20.46,20.46,0,0,0,6.45-1l1.56-.49Zm8.41-5.36H54.65l.18-1.84c.31-3.19,2.48-6.62,6.51-6.62,4.22,0,6.11,3.41,6.11,6.78Zm-8.76-3.35h5.17a2.45,2.45,0,0,0-2.52-1.76A2.85,2.85,0,0,0,58.69,21.81Z"/><path class="cls-1" d="M85,28.85c.25,3.25,3.45,4.79,7.11,4.79a22.31,22.31,0,0,0,7-1l1,5.31A25,25,0,0,1,91,39.47c-8.56,0-13.46-4.95-13.46-12.84,0-6.4,4-13.46,12.74-13.46,8.14,0,11.24,6.34,11.24,12.58a18,18,0,0,1-.26,3.1Zm9.23-5.37c0-1.91-.83-5.1-4.44-5.1-3.3,0-4.64,3-4.85,5.1Z"/><path class="cls-1" d="M91,41.14c-9.34,0-15.14-5.56-15.14-14.51,0-7.52,5-15.14,14.42-15.14s12.91,7.68,12.91,14.26a20.35,20.35,0,0,1-.28,3.4l-.25,1.37H100.4L102,39l-1.28.52A26.68,26.68,0,0,1,91,41.14Zm-.72-26.3c-7.61,0-11.07,6.11-11.07,11.79,0,7.1,4.3,11.17,11.79,11.17a24.9,24.9,0,0,0,7.21-1L97.8,34.7a24.58,24.58,0,0,1-5.67.62c-5,0-8.48-2.49-8.78-6.34l-.15-1.81H99.79c0-.44.06-.92.06-1.42C99.85,23.19,99.16,14.84,90.28,14.84ZM87.51,30.52c1.36,1.36,4,1.45,4.62,1.45A20.77,20.77,0,0,0,98.59,31l1.56-.5Zm8.41-5.36H83.12l.18-1.84c.31-3.19,2.48-6.62,6.51-6.62,4.22,0,6.11,3.41,6.11,6.78Zm-8.77-3.35h5.17a2.44,2.44,0,0,0-2.51-1.76A2.86,2.86,0,0,0,87.15,21.81Z"/><path class="cls-1" d="M106.21,21.78c0-3.15-.1-5.83-.2-8h6.6l.36,3.41h.15a8.76,8.76,0,0,1,7.64-4,7.16,7.16,0,0,1,6.91,4.28h.1a11.21,11.21,0,0,1,3.25-3,9.05,9.05,0,0,1,4.8-1.24c4.84,0,8.5,3.4,8.5,10.93V39h-7.63V25.24c0-3.67-1.18-5.78-3.71-5.78a3.83,3.83,0,0,0-3.61,2.73,6.49,6.49,0,0,0-.31,2V39h-7.63V24.82c0-3.19-1.14-5.36-3.61-5.36a4,4,0,0,0-3.67,2.84,5.36,5.36,0,0,0-.31,2V39h-7.63Z"/><path class="cls-1" d="M146,40.63H135V25.24c0-4.11-1.54-4.11-2-4.11a2.22,2.22,0,0,0-2,1.61,4.87,4.87,0,0,0-.22,1.46V40.63h-11V24.82c0-2.45-.65-3.69-1.93-3.69a2.4,2.4,0,0,0-2.09,1.73l0,.08a3.94,3.94,0,0,0-.18,1.32V40.63h-11V21.78c0-3.12-.11-5.78-.21-8l-.08-1.75h9.86l.16,1.47a10.64,10.64,0,0,1,6.49-2,9.19,9.19,0,0,1,7.19,3.2,11.94,11.94,0,0,1,2.2-1.71,10.79,10.79,0,0,1,5.67-1.49C143.32,11.49,146,18,146,24.1Zm-7.63-3.35h4.28V24.1c0-6-2.43-9.26-6.83-9.26a7.4,7.4,0,0,0-3.95,1,9.56,9.56,0,0,0-2.74,2.58l-.5.69h-2.09l-.42-1a5.49,5.49,0,0,0-5.36-3.25,7.13,7.13,0,0,0-6.25,3.24l-.5.73h-2.55l-.36-3.4h-3.35c.08,1.85.14,4,.14,6.37v15.5h4.28v-13a6.85,6.85,0,0,1,.42-2.57,5.62,5.62,0,0,1,5.23-3.9c3.3,0,5.28,2.63,5.28,7V37.28h4.28V24.2a8.32,8.32,0,0,1,.41-2.58A5.51,5.51,0,0,1,133,17.79c1.62,0,5.39.72,5.39,7.45Z"/><path class="cls-2" d="M3.53,30.86A20.11,20.11,0,0,0,12.25,33c3.61,0,5.51-1.49,5.51-3.76s-1.64-3.41-5.82-4.9c-5.78-2-9.54-5.21-9.54-10.26C2.4,8.17,7.35,3.63,15.55,3.63a21.26,21.26,0,0,1,8.87,1.75l-1.76,6.34a16.49,16.49,0,0,0-7.27-1.65c-3.4,0-5.05,1.55-5.05,3.36,0,2.21,2,3.19,6.45,4.9,6.13,2.27,9,5.46,9,10.36,0,5.83-4.49,10.78-14,10.78a22.8,22.8,0,0,1-9.85-2.11Z"/><path class="cls-2" d="M39.37,6.52v7.21H45v5.78H39.37v9.13c0,3,.73,4.44,3.1,4.44a13.05,13.05,0,0,0,2.32-.21l.05,5.93a15.44,15.44,0,0,1-5.1.67,8.14,8.14,0,0,1-5.88-2.17c-1.45-1.49-2.17-3.92-2.17-7.47V19.51H28.34V13.73h3.35V8.27Z"/><path class="cls-2" d="M56.55,28.85c.26,3.25,3.45,4.79,7.12,4.79a22.24,22.24,0,0,0,7-1l1,5.31a25,25,0,0,1-9.13,1.55c-8.56,0-13.46-4.95-13.46-12.84,0-6.4,4-13.46,12.74-13.46,8.15,0,11.24,6.34,11.24,12.58a18,18,0,0,1-.26,3.1Zm9.23-5.37c0-1.91-.83-5.1-4.44-5.1-3.3,0-4.64,3-4.84,5.1Z"/><path class="cls-2" d="M85,28.85c.25,3.25,3.45,4.79,7.11,4.79a22.31,22.31,0,0,0,7-1l1,5.31A25,25,0,0,1,91,39.47c-8.56,0-13.46-4.95-13.46-12.84,0-6.4,4-13.46,12.74-13.46,8.14,0,11.24,6.34,11.24,12.58a18,18,0,0,1-.26,3.1Zm9.23-5.37c0-1.91-.83-5.1-4.44-5.1-3.3,0-4.64,3-4.85,5.1Z"/><path class="cls-2" d="M106.21,21.78c0-3.15-.1-5.83-.2-8h6.6l.36,3.41h.15a8.76,8.76,0,0,1,7.64-4,7.16,7.16,0,0,1,6.91,4.28h.1a11.21,11.21,0,0,1,3.25-3,9.05,9.05,0,0,1,4.8-1.24c4.84,0,8.5,3.4,8.5,10.93V39h-7.63V25.24c0-3.67-1.18-5.78-3.71-5.78a3.83,3.83,0,0,0-3.61,2.73,6.49,6.49,0,0,0-.31,2V39h-7.63V24.82c0-3.19-1.14-5.36-3.61-5.36a4,4,0,0,0-3.67,2.84,5.36,5.36,0,0,0-.31,2V39h-7.63Z"/><path class="cls-1" d="M193.65,11.15c-5.7-1.28-11.22-2.29-16.37-3l.46,1.5c3.62.62,7.43,1.38,11.35,2.28q3,.67,5.76,1.4Z"/><path class="cls-1" d="M195.48,13.79l-.71-.19c-1.87-.48-3.81-1-5.75-1.4-3.84-.88-7.66-1.65-11.33-2.28l-.19,0-.65-2.15.48.07c5.28.76,10.79,1.78,16.39,3l.14,0ZM178,9.35c3.63.62,7.39,1.38,11.18,2.24,1.7.4,3.41.81,5.07,1.23l-.78-1.39c-5.37-1.21-10.66-2.2-15.73-2.94Z"/><path class="cls-1" d="M195.26,13.62l-.46-.12c-1.9-.49-3.84-1-5.76-1.4-3.83-.88-7.64-1.65-11.34-2.28l-.12,0L177,7.87l.31,0c5.28.76,10.79,1.78,16.39,3l.09,0ZM177.9,9.44c3.66.63,7.44,1.39,11.23,2.26,1.77.4,3.56.84,5.31,1.29l-.92-1.66c-5.45-1.22-10.81-2.22-16-3Z"/><path class="cls-1" d="M195.89,14.1l-1.17-.3c-1.86-.48-3.8-1-5.75-1.4-3.85-.89-7.66-1.65-11.32-2.27l-.31-.06-.78-2.58.8.12c5.3.76,10.82,1.78,16.4,3l.23,0ZM178.14,9.17c3.64.63,7.36,1.38,11.06,2.23,1.51.34,3.06.72,4.62,1.11l-.5-.91c-5.23-1.17-10.38-2.13-15.31-2.86Z"/><path class="cls-1" d="M196.57,14.63l-1.93-.5c-1.9-.49-3.83-1-5.74-1.41-3.82-.87-7.62-1.63-11.31-2.26l-.52-.09-1-3.29,1.32.19c5.29.76,10.81,1.79,16.43,3.05l.37.09Zm-6.67-3.42c1.08.25,2.17.51,3.25.78l-.06-.09C192,11.66,191,11.43,189.9,11.21Z"/><path class="cls-1" d="M197.19,15.11l-2.63-.68c-1.92-.5-3.85-1-5.73-1.4-3.8-.87-7.59-1.64-11.29-2.27l-.71-.12-1.18-3.93,1.8.26c5.28.76,10.82,1.78,16.46,3.05l.5.12Zm-19.87-5,.33.06c3.7.64,7.51,1.4,11.32,2.27,1.89.44,3.82.91,5.75,1.41l1.22.32L194,10.68l-.24,0c-5.62-1.27-11.14-2.29-16.41-3.05l-.84-.12Zm16.44,2.37-.69-.17q-1.62-.4-3.24-.78l.13-.6c1.07.22,2.13.45,3.2.69l.14,0Z"/><path class="cls-1" d="M197,14.94l-2.38-.61c-1.89-.49-3.82-1-5.74-1.41-3.81-.87-7.61-1.63-11.29-2.26l-.64-.11L175.8,6.84l1.63.23c5.3.76,10.83,1.79,16.45,3.06l.46.1Zm-19.74-4.75.4.07c3.69.63,7.49,1.39,11.31,2.27,1.92.44,3.86.91,5.75,1.4l1.46.38-2.07-3.72-.29-.07c-5.6-1.26-11.13-2.28-16.41-3l-1-.15Zm16.32,2.11-.45-.11c-1.08-.27-2.17-.53-3.24-.78l.08-.4,3.2.69.09,0Z"/><path class="cls-1" d="M197.6,15.43l-3.09-.8c-1.87-.49-3.79-1-5.73-1.4-3.81-.88-7.61-1.64-11.27-2.27l-.84-.14-1.31-4.36,2.12.31c5.3.76,10.84,1.79,16.47,3.05l.6.14ZM177.48,9.92l.2,0c3.66.63,7.47,1.39,11.33,2.28,1.88.42,3.82.9,5.76,1.4l.76.2-1.66-3-.15,0c-5.58-1.25-11.1-2.28-16.39-3l-.52-.07Zm16.69,2.86L193,12.49l-3.23-.78-.3-.07.22-1,.3.06,3.2.69.22,0Z"/><path class="cls-3" d="M164,29.83l-2.7,9.72h-8.87L164,1.69h11.24L187,39.55h-9.21l-2.92-9.72-5.6-20.22Z"/><path class="cls-3" d="M188.18,40.4h-11l-3.1-10.32L169.32,12.9l-4.45,17.15L162,40.4H151.32L163.41.83h12.5Zm-9.74-1.7h7.43L174.65,2.54h-10l-11,36.16h7.08l2.52-9.09,6-23.28,6.45,23.28Z"/><path class="cls-3" d="M188.45,40.61H177l-3.14-10.47-4.56-16.45L165.06,30.1l-2.91,10.51H151l12.22-40h12.8l0,.14Zm-11.12-.41H187.9L175.76,1H163.57l-12,39.16h10.25L164.67,30l4.64-17.88,5,17.91Zm8.81-1.29h-7.85l-2.78-9.25L169.27,7.12l-5.85,22.54-2.57,9.25h-7.51L164.52,2.33H174.8l0,.15Zm-7.55-.41h7L174.5,2.74h-9.68L153.89,38.5h6.65L163,29.55l6.23-24,6.64,24Z"/><path class="cls-3" d="M210.67,39.55l-3.42-6.85c-1.41-2.64-2.31-4.61-3.37-6.8h-.12c-.78,2.19-1.74,4.16-2.92,6.8l-3.14,6.85h-9.78l11-19.16L188.31,1.69h9.84l3.31,6.91c1.13,2.3,2,4.15,2.87,6.29h.11c.9-2.42,1.63-4.1,2.59-6.29l3.2-6.91H220L209.33,20.17l11.23,19.38Z"/><path class="cls-3" d="M220.92,39.76H210.55l-3.48-7c-1.06-2-1.84-3.61-2.6-5.19l-.63-1.31c-.58,1.57-1.25,3.05-2,4.76-.25.55-.51,1.12-.78,1.73l-3.2,7H187.57l.17-.31,10.9-19.06L188,1.48h10.31l3.38,7c1,2.15,1.87,4,2.72,6,.87-2.31,1.62-4,2.47-6l3.25-7h10.27l-10.8,18.69Zm-10.12-.41h9.41L209.09,20.17l.06-.1,10.5-18.18h-9.29l-3.15,6.79c-.89,2-1.66,3.8-2.58,6.28l0,.13h-.39l-.05-.12c-.9-2.14-1.76-4-2.86-6.28L198,1.89h-9.36L199.11,20.4l-.06.1L188.27,39.35h9.3l3.09-6.74c.27-.61.53-1.18.78-1.73.82-1.81,1.53-3.37,2.13-5.05l.05-.13H204l.06.11c.27.55.52,1.08.78,1.62.76,1.57,1.54,3.2,2.59,5.17Z"/><path class="cls-3" d="M222,40.4H210.15l-3.66-7.32c-1.05-2-1.83-3.6-2.59-5.17-.45,1.1-1,2.2-1.5,3.4l-.78,1.74-3.38,7.35H186.45l11.45-20L186.86.83h11.82l3.55,7.4c.79,1.63,1.46,3.06,2.11,4.54.64-1.62,1.24-3,1.9-4.51L209.68.83h11.8L210.31,20.17ZM211.2,38.7h7.89L208.34,20.17,218.53,2.54h-7.76L207.8,9c-.88,2-1.65,3.78-2.56,6.24l-.21.55h-1.27l-.22-.52c-.89-2.13-1.74-4-2.84-6.25l-3.09-6.43h-7.84L199.86,20.4,189.39,38.7h7.76l2.92-6.36.78-1.73c.82-1.79,1.52-3.35,2.11-5l.21-.56h1.24l.23.48c.27.55.53,1.08.78,1.62.76,1.56,1.53,3.18,2.58,5.15Z"/><path class="cls-3" d="M222.39,40.61H210l-3.72-7.44c-1-1.8-1.69-3.31-2.39-4.76-.41,1-.85,1.95-1.32,3l0,.05-.75,1.68-3.44,7.48H186.1l.18-.31,11.38-19.91L186.51.63h12.3l3.6,7.51c.72,1.48,1.34,2.8,1.92,4.1.58-1.44,1.14-2.72,1.73-4.07L209.55.63h12.28L210.54,20.17Zm-12.11-.41h11.41l-11.62-20,.06-.1,11-19H209.81l-3.38,7.3c-.65,1.48-1.26,2.88-1.9,4.5l-.18.46-.2-.45c-.64-1.45-1.3-2.89-2.1-4.53L198.55,1H187.21l10.92,19.35,0,.1L186.81,40.2h11.3L201.44,33c.26-.59.51-1.14.75-1.67l0-.06c.53-1.18,1-2.3,1.49-3.4l.18-.42.2.41c.75,1.57,1.53,3.2,2.58,5.16Zm9.16-1.29h-8.36l-3.26-6.52c-1.06-2-1.83-3.59-2.58-5.15l0-.09-.74-1.53-.18-.37h-1l-.15.43c-.6,1.66-1.31,3.22-2.12,5-.25.55-.51,1.12-.78,1.73l-3,6.48H189l.17-.31,10.41-18.2L189.42,2.33h8.32l3.14,6.55c1.1,2.26,2,4.13,2.85,6.26l.17.4h1l.15-.43c.92-2.46,1.68-4.21,2.57-6.24l3-6.54h8.24l-10.3,17.84Zm-8.11-.41h7.4L208.11,20.17l.06-.1,10-17.33H210.9L208,9c-.88,2-1.64,3.76-2.55,6.22l-.26.68h-1.54l-.27-.64c-.9-2.12-1.75-4-2.85-6.24l-3-6.32h-7.36l10,17.66-.06.1-10.29,18H197l2.86-6.24c.28-.6.53-1.18.79-1.73.81-1.79,1.51-3.34,2.1-5l.25-.7h1.52l.29.59c.25.52.49,1,.74,1.54l0,.08c.74,1.56,1.52,3.17,2.57,5.14Z"/><path class="cls-4" d="M164,29.83l-2.7,9.72h-8.87L164,1.69h11.24L187,39.55h-9.21l-2.92-9.72-5.6-20.22Z"/><path class="cls-4" d="M210.67,39.55l-3.42-6.85c-1.41-2.64-2.31-4.61-3.37-6.8h-.12c-.78,2.19-1.74,4.16-2.92,6.8l-3.14,6.85h-9.78l11-19.16L188.31,1.69h9.84l3.31,6.91c1.13,2.3,2,4.15,2.87,6.29h.11c.9-2.42,1.63-4.1,2.59-6.29l3.2-6.91H220L209.33,20.17l11.23,19.38Z"/><polygon class="cls-3" points="171.84 27.41 158.88 19.27 170.94 20.45 171.84 27.41"/><path class="cls-3" d="M172.1,27.81,158,19l13.09,1.28Zm-12.38-8.26L171.58,27l-.83-6.37Z"/><path class="cls-3" d="M172.91,29.09l-17.54-11,16.32,1.6Zm-10.53-8.63,8.38,5.27-.58-4.5Z"/><path class="cls-3" d="M174.06,30,154.53,17.78l17.34,1.7ZM156.21,18.35l16.45,10.34-1.15-8.83ZM171,26.13l-9.48-5.95,8.82.86Zm-7.8-5.38,7.29,4.58L170,21.42Z"/><path class="cls-3" d="M232.92,25.41l1.72,4.05-10-2.93a1.42,1.42,0,0,1-.05.82c-1.4,3.73-19.55,2.84-40.55-2-5.77-1.32-11.16-2.81-15.9-4.34l.37,3.41c5.7,1.92,12.18,3.75,19.15,5.35,25.19,5.78,47.17,6.34,49.09,1.25C237.32,29.46,235.91,27.51,232.92,25.41Z"/><path class="cls-3" d="M223.07,34.72h0c-9.43,0-22.36-1.72-35.48-4.73-6.82-1.56-13.26-3.37-19.16-5.36l-.13,0-.42-3.85.3.1c4.91,1.58,10.25,3,15.88,4.33,11.86,2.72,23.18,4.28,31.05,4.28,5.46,0,8.75-.77,9.27-2.17a1.18,1.18,0,0,0,0-.7l-.08-.34,9.94,2.91-1.83-4.31.59.41c3.19,2.24,4.5,4.22,3.88,5.86C235.8,34.1,228.77,34.72,223.07,34.72ZM168.68,24.29c5.85,2,12.25,3.75,19,5.3,13.09,3,26,4.72,35.39,4.72h0c7.87,0,12.66-1.18,13.47-3.34.5-1.33-.59-3-3.15-5L235,29.78l-10.14-3a1.43,1.43,0,0,1-.1.61c-.75,2-5.66,2.43-9.65,2.43-7.9,0-19.25-1.56-31.14-4.29-5.52-1.27-10.78-2.7-15.62-4.25Z"/><path class="cls-3" d="M223.07,35.37h0c-9.48,0-22.46-1.73-35.62-4.75-6.84-1.57-13.31-3.37-19.23-5.37l-.52-.17-.57-5.26,1.25.4c4.89,1.58,10.22,3,15.83,4.32,11.81,2.71,23.07,4.26,30.9,4.26h0c5.91,0,8.36-.94,8.67-1.75a.54.54,0,0,0,0-.33l-.33-1.41,9.69,2.84L231,23l2.44,1.71c3.47,2.44,4.85,4.66,4.12,6.62C236.52,34,231.65,35.37,223.07,35.37ZM169.28,23.81c5.73,1.91,12,3.64,18.55,5.15,13,3,25.88,4.71,35.24,4.71,10.91,0,12.61-2.24,12.86-2.93h0l-10.57-3.09h0c-.72,1.92-4.08,2.85-10.26,2.86h0c-8,0-19.35-1.57-31.28-4.31-5.19-1.19-10.13-2.52-14.73-4Zm65.87,4.68.85,2A2.82,2.82,0,0,0,235.15,28.49Z"/><path class="cls-3" d="M223.07,35.57h0c-9.49,0-22.49-1.73-35.67-4.75-6.84-1.57-13.32-3.38-19.24-5.38l-.64-.21-.63-5.7,1.55.5c4.89,1.58,10.21,3,15.81,4.31,11.8,2.71,23.05,4.26,30.86,4.26,6.23,0,8.27-1.06,8.48-1.62a.32.32,0,0,0,0-.21l-.4-1.75,9.61,2.81-2.29-5.4,3,2.12c3.55,2.5,5,4.81,4.19,6.86C236.68,34.17,231.75,35.57,223.07,35.57ZM167.89,24.92l.39.14c5.92,2,12.38,3.79,19.21,5.36,13.15,3,26.12,4.75,35.58,4.75v0c8.49,0,13.29-1.32,14.26-3.9.7-1.86-.66-4-4-6.38l-1.85-1.3,2.07,4.87-9.77-2.86.25,1.08a.85.85,0,0,1,0,.45c-.34.9-2.85,1.88-8.86,1.88-7.84,0-19.12-1.56-31-4.27-5.61-1.29-10.94-2.74-15.85-4.32l-.95-.31Zm55.18,8.95c-9.37,0-22.23-1.72-35.29-4.71C181.19,27.65,175,25.91,169.21,24l-.12,0-.22-2,.3.1c4.58,1.43,9.52,2.76,14.7,3.95,11.92,2.73,23.3,4.3,31.24,4.3,6.09,0,9.38-.89,10.07-2.72l.07-.18.18.05,10.34,3-1.36-3.19.9,1.08a3,3,0,0,1,.89,2.16v.07h0l0,0-.08.61L236,31C235.41,32.06,233,33.87,223.07,33.87Zm-53.6-10.21c5.68,1.89,11.88,3.6,18.4,5.1,13,3,25.86,4.7,35.2,4.7,10,0,12.12-1.89,12.58-2.6l-10.16-3c-.89,1.9-4.29,2.82-10.38,2.82-8,0-19.38-1.57-31.33-4.31-5.07-1.17-9.93-2.47-14.44-3.87Z"/><path class="cls-3" d="M148.53,9.91c.72-1.92,5.92-2.61,13.66-2.17l.33-1c-9.56-.37-16,.75-17,3.41-1.14,3,5,7.34,15.5,11.57l-5.08-3.34,5.92.49C153,15.47,147.7,12.13,148.53,9.91Z"/><path class="cls-3" d="M203.82,13.69l1.09,2.52c7,2.26,12.63,4.62,16.05,6.74l5.85-1A140.06,140.06,0,0,0,203.82,13.69Z"/><path class="cls-3" d="M167.76,20.18,162.12,18c-10.1-3.84-13.18-6.78-12.79-7.82.3-.8,2.75-1.75,8.66-1.75,1,0,2,0,3.07.08l.81-2.72c-.94,0-1.86,0-2.73,0-8.59,0-13.45,1.36-14.46,4-.89,2.36.95,6.33,14.34,12l7.17,2.85L161.45,21l-2.29-1.51Zm-14.23-2.9c-4.67-2.51-7.92-5.11-7.26-6.87.12-.31.52-.92,1.89-1.51a2.5,2.5,0,0,0-.43.71c-.85,2.26,2.07,4.91,8.7,7.92Z"/><path class="cls-3" d="M167.49,25.38l-1.37-.55-2.35-.93L158.94,22c-7.5-3.17-16.1-7.86-14.45-12.24,1-2.76,6-4.16,14.65-4.16.86,0,1.78,0,2.74,0h.27l-.93,3.12h-.16c-1.08-.05-2.12-.07-3.07-.07-6.22,0-8.26,1.06-8.47,1.61-.3.79,2.42,3.66,12.67,7.56l7,2.67-9.25-.78,1.62,1.07ZM159.14,6c-8.49,0-13.3,1.31-14.27,3.89-.84,2.25.94,6.11,14.23,11.72l4.82,1.92c.36.14.7.27,1,.4l-3.6-2.79-2.94-1.94,8,.67-4.29-1.64c-9.64-3.66-13.43-6.7-12.91-8.08.34-.91,2.84-1.88,8.85-1.88.91,0,1.9,0,2.92.07L161.6,6Zm-1.55,11.84-4.16-.37c-3.8-2.05-8.16-5-7.35-7.12.13-.35.56-1,2-1.63l.81-.34-.58.66a2.05,2.05,0,0,0-.38.65c-.81,2.14,2.08,4.71,8.58,7.66Zm-4-.75,1.71.15c-6.07-2.89-8.61-5.41-7.76-7.69l.06-.14a2.38,2.38,0,0,0-1.14,1.08C145.92,11.94,148.51,14.34,153.59,17.08Z"/><path class="cls-3" d="M227.18,21.17A139.7,139.7,0,0,0,204,12.87l-.64-.18,1.83,4.52c6.61,2.16,12,4.44,15.29,6.46l.27.17,8.77-1.52Zm-6.05.89a79.09,79.09,0,0,0-15.59-6.54l-.23-.53A145.35,145.35,0,0,1,224,21.56Z"/><path class="cls-3" d="M220.75,24.06l-.34-.21c-5.16-3.19-10.59-4.94-15-6.39l-.2,0-1.93-5,.83.26A141.33,141.33,0,0,1,227.27,21l2.95,1.43Zm-15.37-7c6.58,2.16,12,4.45,15.24,6.46l.21.13,8.07-1.4-1.8-.88A140.07,140.07,0,0,0,204,13.07l-.25-.07Zm15.71,5.23-.06,0a80.48,80.48,0,0,0-15.55-6.52l-.09,0-.44-1,.42.12a145.83,145.83,0,0,1,18.7,6.57l.61.28Zm-15.4-6.92a80.5,80.5,0,0,1,15.48,6.49l2.12-.37a147.57,147.57,0,0,0-17.62-6.16Z"/><polygon class="cls-3" points="213.97 22.3 232.5 27.77 228.86 19.73 213.97 22.3"/><path class="cls-1" d="M229.36,18.78,222.45,20l1.78.74-5.61,1-1.51-.85-6.41,1.24,23.34,7Zm-1,1.9L231,26.42l-13.25-3.9Z"/><path class="cls-1" d="M234.41,29.43l-23.86-7.29,6.6-1.46,1.51.86,4.85-.9-1.79-.75,7.76-1.34Zm-22.86-7.25,22.12,6.6L229.24,19l-6.07,1.05,1.77.74L218.58,22l-1.51-.85Zm19.78,4.57-14.52-4.28,11.66-2Zm-12.72-4.18,12,3.53-2.36-5.19Z"/><path class="cls-1" d="M235,29.92l-24-7.34-.67-.49.34-.28,6.59-1.45,1.52.85,3.72-.69-1.81-.75,9-1.57Zm-22.13-7.67,20.26,6-4.05-8.94-4.78.83,1.16.48,3.22-.56,3.23,7.13-16.44-4.84,2.49-.43-.92-.52Zm7.12.4,10.06,3-2-4.36Z"/><polygon class="cls-4" points="173 28.13 158.88 19.27 170.94 20.45 173 28.13"/><path class="cls-2" d="M232.92,25.41l1.72,4.05-10-2.78a1.18,1.18,0,0,1-.08.68c-1.4,3.73-19.55,2.83-40.55-2-5.77-1.32-11.16-2.81-15.9-4.34l.37,3.41c5.7,1.92,12.18,3.75,19.15,5.35,25.19,5.78,47.17,6.34,49.09,1.25C237.32,29.46,235.91,27.51,232.92,25.41Z"/><path class="cls-2" d="M148.53,9.91c.68-1.8,5.29-2.52,12.25-2.23l.3-1c-8.76-.21-14.65.93-15.6,3.45-1.14,3,5,7.34,15.5,11.57l-5.08-3.34,5.92.49C153,15.47,147.7,12.13,148.53,9.91Z"/><path class="cls-2" d="M191.88,10.83c-4.55-1-9-1.82-13.2-2.46l.49,1.56c3.1.56,6.32,1.21,9.62,2,1.46.33,2.89.68,4.29,1Z"/><path class="cls-2" d="M205,14l1,2.53c6.61,2.18,11.71,4.36,15,6.4l5.85-1A134.94,134.94,0,0,0,205,14Z"/><polygon class="cls-2" points="213.97 22.3 232.5 27.77 228.86 19.73 213.97 22.3"/></g></g></svg>