<svg xmlns="http://www.w3.org/2000/svg" width="55.18" height="55.188" viewBox="0 0 55.18 55.188">
  <metadata><?xpacket begin="﻿" id="W5M0MpCehiHzreSzNTczkc9d"?>
<x:xmpmeta xmlns:x="adobe:ns:meta/" x:xmptk="Adobe XMP Core 5.6-c140 79.160451, 2017/05/06-01:08:21        ">
   <rdf:RDF xmlns:rdf="http://www.w3.org/1999/02/22-rdf-syntax-ns#">
      <rdf:Description rdf:about=""/>
   </rdf:RDF>
</x:xmpmeta>
                                                                                                    
                                                                                                    
                                                                                                    
                                                                                                    
                                                                                                    
                                                                                                    
                                                                                                    
                                                                                                    
                                                                                                    
                                                                                                    
                                                                                                    
                                                                                                    
                                                                                                    
                                                                                                    
                                                                                                    
                                                                                                    
                                                                                                    
                                                                                                    
                                                                                                    
                                                                                                    
                           
<?xpacket end="w"?></metadata>
<defs>
    <style>
      .cls-1 {
        fill: #989898;
        fill-rule: evenodd;
      }
    </style>
  </defs>
  <path id="time-6" class="cls-1" d="M2528.08,428.573h-4.78a23.583,23.583,0,0,1,.67,4.708l4.63,0.371A28.3,28.3,0,0,0,2528.08,428.573ZM2473.4,434a27.528,27.528,0,0,0,34.79,26.625l-1.53-4.355a23,23,0,1,1,8.05-40.7l-4.71,4.712,16.13,3.116-3.11-16.129-5.03,5.021A27.557,27.557,0,0,0,2473.4,434Zm47.22,11.959a23.025,23.025,0,0,1-2.64,3.515l3.23,3.3a27.718,27.718,0,0,0,3.54-4.732Zm-2.82,9.911-3.25-3.32a22.992,22.992,0,0,1-3.57,2.147l1.54,4.368A27.756,27.756,0,0,0,2517.8,455.87Zm5.86-18,4.6,0.366a27.411,27.411,0,0,1-1.5,5.659l-4.14-2.083A22.58,22.58,0,0,0,2523.66,437.871ZM2498.7,420.2v18.4h16.1V434h-11.5V420.2h-4.6Z" transform="translate(-2473.41 -406.406)"/>
</svg>
