<svg xmlns="http://www.w3.org/2000/svg" viewBox="0 0 94.9 41.24"><defs><style>.cls-1,.cls-2{fill:#1c75bc;}.cls-2,.cls-3{stroke:#1c75bc;stroke-miterlimit:10;stroke-width:1.26px;}.cls-3,.cls-4{fill:#fff;}</style></defs><title>ax-small-logo</title><g id="Layer_2" data-name="Layer 2"><g id="Layer_1-2" data-name="Layer 1"><path class="cls-1" d="M50,11.15c-5.7-1.28-11.22-2.29-16.37-3l.45,1.5c3.63.62,7.44,1.38,11.35,2.28,2,.45,3.9.92,5.77,1.4Z"/><path class="cls-1" d="M51.82,13.79l-.7-.19c-1.88-.48-3.81-1-5.76-1.4-3.84-.88-7.65-1.65-11.33-2.28l-.19,0-.65-2.15.49.07c5.27.76,10.79,1.78,16.39,3l.13,0ZM34.33,9.35C38,10,41.72,10.73,45.5,11.59c1.71.4,3.41.81,5.08,1.23l-.78-1.39c-5.37-1.21-10.66-2.2-15.73-2.94Z"/><path class="cls-1" d="M51.61,13.62l-.46-.12c-1.9-.49-3.84-1-5.76-1.4-3.83-.88-7.65-1.65-11.34-2.28l-.13,0-.58-1.93.32,0c5.27.76,10.79,1.78,16.38,3l.09,0ZM34.24,9.44c3.67.63,7.45,1.39,11.24,2.26,1.77.4,3.55.84,5.31,1.29l-.93-1.66c-5.44-1.22-10.8-2.22-15.94-3Z"/><path class="cls-1" d="M52.23,14.1l-1.16-.3c-1.87-.48-3.8-1-5.75-1.4-3.85-.89-7.66-1.65-11.32-2.27l-.32-.06-.77-2.58.79.12c5.3.76,10.82,1.78,16.41,3l.22,0ZM34.48,9.17c3.64.63,7.36,1.38,11.07,2.23,1.5.34,3.05.72,4.62,1.11l-.51-.91c-5.22-1.17-10.37-2.13-15.3-2.86Z"/><path class="cls-1" d="M52.91,14.63,51,14.13c-1.9-.49-3.84-1-5.75-1.41-3.81-.87-7.61-1.63-11.3-2.26l-.52-.09-1-3.29,1.32.19C39,8,44.57,9.06,50.19,10.32l.37.09Zm-6.66-3.42,3.24.78-.05-.09Z"/><path class="cls-1" d="M53.53,15.11l-2.62-.68c-1.92-.5-3.85-1-5.74-1.4-3.79-.87-7.59-1.64-11.28-2.27l-.71-.12L32,6.71,33.8,7c5.28.76,10.81,1.78,16.45,3.05l.51.12Zm-19.87-5,.33.06c3.71.64,7.52,1.4,11.32,2.27,1.89.44,3.83.91,5.75,1.41l1.23.32-1.94-3.47-.23,0C44.49,9.36,39,8.34,33.71,7.58l-.84-.12Zm16.45,2.37-.69-.17-3.24-.78.13-.6,3.2.69.13,0Z"/><path class="cls-1" d="M53.32,14.94l-2.39-.61c-1.89-.49-3.82-1-5.73-1.41-3.82-.87-7.62-1.63-11.29-2.26l-.65-.11L32.14,6.84l1.64.23c5.3.76,10.83,1.79,16.45,3.06l.46.1ZM33.58,10.19l.4.07c3.68.63,7.49,1.39,11.31,2.27,1.92.44,3.85.91,5.75,1.4l1.46.38-2.08-3.72-.28-.07C44.53,9.26,39,8.24,33.72,7.48l-1-.15ZM49.9,12.3l-.46-.11-3.24-.78.09-.4c1.06.22,2.13.45,3.19.69l.1,0Z"/><path class="cls-1" d="M53.94,15.43l-3.08-.8c-1.87-.49-3.8-1-5.73-1.4-3.82-.88-7.61-1.64-11.28-2.27L33,10.82,31.71,6.46l2.11.31c5.31.76,10.85,1.79,16.48,3.05l.59.14ZM33.82,9.92,34,10c3.66.63,7.47,1.39,11.33,2.28,1.88.42,3.81.9,5.75,1.4l.77.2-1.66-3-.15,0c-5.58-1.25-11.1-2.28-16.39-3l-.52-.07Zm16.69,2.86-1.14-.29-3.24-.78-.3-.07.22-1,.3.06c1.07.22,2.13.45,3.2.69l.23,0Z"/><path class="cls-2" d="M20.39,29.83l-2.7,9.72H8.82L20.39,1.69H31.63L43.37,39.55H34.15l-2.92-9.72L25.63,9.61Z"/><path class="cls-2" d="M44.52,40.4h-11l-3.1-10.32L25.66,12.9,21.21,30.05,18.34,40.4H7.67L19.76.83H32.25Zm-9.73-1.7h7.42L31,2.54H21L10,38.7h7.09l2.52-9.09,6-23.28,6.44,23.28Z"/><path class="cls-2" d="M44.8,40.61H33.37L30.22,30.14,25.67,13.69,21.41,30.1,18.49,40.61H7.39L19.61.63H32.4l.05.14ZM33.67,40.2H44.25L32.1,1H19.91L7.94,40.2H18.18L21,30l4.64-17.88L30.61,30Zm8.82-1.29H34.64l-2.78-9.25L25.62,7.12,19.77,29.66,17.2,38.91H9.69L20.87,2.33H31.15l0,.15Zm-7.55-.41h7L30.85,2.74H21.17L10.24,38.5h6.65l2.48-8.95,6.23-24,6.65,24Z"/><path class="cls-2" d="M67,39.55,63.6,32.7c-1.41-2.64-2.31-4.61-3.38-6.8h-.11c-.78,2.19-1.74,4.16-2.92,6.8L54,39.55H44.27L55.22,20.39,44.66,1.69h9.83L57.81,8.6c1.12,2.3,2,4.15,2.86,6.29h.12c.89-2.42,1.62-4.1,2.58-6.29l3.2-6.91h9.78L65.67,20.17,76.91,39.55Z"/><path class="cls-2" d="M77.27,39.76H66.9l-3.49-7c-1-2-1.83-3.61-2.59-5.19l-.63-1.31c-.58,1.57-1.26,3.05-2,4.76-.25.55-.51,1.12-.78,1.73l-3.21,7H43.92l.17-.31L55,20.39,44.31,1.48H54.62l3.37,7c1,2.15,1.88,4,2.73,6,.87-2.31,1.61-4,2.46-6l3.26-7H76.7L65.91,20.17Zm-10.12-.41h9.41L65.44,20.17l.06-.1L76,1.89H66.7L63.56,8.68c-.89,2-1.66,3.8-2.58,6.28l0,.13h-.39l0-.12c-.91-2.14-1.76-4-2.86-6.28l-3.26-6.8H45L55.46,20.4l-.06.1L44.62,39.35h9.29L57,32.61l.79-1.73c.82-1.81,1.53-3.37,2.13-5.05l0-.13h.38l.06.11.78,1.62c.75,1.57,1.53,3.2,2.58,5.17Z"/><path class="cls-2" d="M78.39,40.4H66.5l-3.67-7.32c-1-2-1.83-3.6-2.58-5.17-.45,1.1-1,2.2-1.5,3.4L58,33.05,54.59,40.4H42.8l11.44-20L43.2.83H55l3.55,7.4c.79,1.63,1.46,3.06,2.11,4.54.64-1.62,1.24-3,1.9-4.51L66,.83H77.82L66.66,20.17ZM67.55,38.7h7.88L64.69,20.17,74.87,2.54H67.12L64.14,9c-.88,2-1.64,3.78-2.56,6.24l-.2.55H60.11l-.22-.52C59,13.09,58.14,11.22,57,9L54,2.54H46.12L56.2,20.4,45.73,38.7H53.5l2.92-6.36.78-1.73c.81-1.79,1.52-3.35,2.11-5l.2-.56h1.25l.23.48c.27.55.52,1.08.78,1.62.75,1.56,1.53,3.18,2.58,5.15Z"/><path class="cls-2" d="M78.74,40.61H66.37l-3.72-7.44c-1-1.8-1.69-3.31-2.39-4.76-.41,1-.86,1.95-1.33,3l0,.05-.76,1.68-3.43,7.48H42.45l.18-.31L54,20.39,42.85.63H55.16l3.6,7.51c.72,1.48,1.34,2.8,1.92,4.1.58-1.44,1.14-2.72,1.72-4.07L65.9.63H78.18L66.89,20.17ZM66.62,40.2H78l-11.61-20,.06-.1,11-19H66.16l-3.39,7.3c-.64,1.48-1.25,2.88-1.89,4.5l-.18.46-.2-.45c-.64-1.45-1.31-2.89-2.11-4.53L54.9,1H43.55L54.48,20.39l-.06.1L43.15,40.2H54.46L57.78,33c.26-.59.52-1.14.76-1.67l0-.06c.54-1.18,1-2.3,1.5-3.4l.17-.42.2.41C61.19,29.39,62,31,63,33Zm9.17-1.29H67.42l-3.26-6.52c-1-2-1.83-3.59-2.57-5.15l0-.09c-.25-.5-.49-1-.75-1.53l-.17-.37h-1l-.16.43c-.59,1.66-1.3,3.22-2.11,5-.26.55-.52,1.12-.79,1.73l-3,6.48H45.38l.18-.31L56,20.4,45.77,2.33h8.31l3.15,6.55c1.1,2.26,2,4.13,2.85,6.26l.16.4h1l.16-.43c.92-2.46,1.68-4.21,2.57-6.24l3-6.54h8.24L64.93,20.17Zm-8.12-.41h7.41L64.45,20.17l.06-.1,10-17.33H67.25L64.33,9c-.88,2-1.64,3.76-2.56,6.22l-.25.68H60l-.27-.64c-.89-2.12-1.74-4-2.84-6.24l-3-6.32H46.47l10,17.66-.06.1-10.29,18h7.28l2.86-6.24L57,30.53c.82-1.79,1.52-3.34,2.11-5l.25-.7h1.51l.29.59c.26.52.5,1,.74,1.54l0,.08c.75,1.56,1.53,3.17,2.58,5.14Z"/><path class="cls-3" d="M20.39,29.83l-2.7,9.72H8.82L20.39,1.69H31.63L43.37,39.55H34.15l-2.92-9.72L25.63,9.61Z"/><path class="cls-3" d="M67,39.55,63.6,32.7c-1.41-2.64-2.31-4.61-3.38-6.8h-.11c-.78,2.19-1.74,4.16-2.92,6.8L54,39.55H44.27L55.22,20.39,44.66,1.69h9.83L57.81,8.6c1.12,2.3,2,4.15,2.86,6.29h.12c.89-2.42,1.62-4.1,2.58-6.29l3.2-6.91h9.78L65.67,20.17,76.91,39.55Z"/><polygon class="cls-2" points="28.19 27.41 15.22 19.27 27.28 20.45 28.19 27.41"/><path class="cls-2" d="M28.44,27.81,14.38,19l13.08,1.28ZM16.06,19.55,27.93,27l-.83-6.37Z"/><path class="cls-2" d="M29.26,29.09l-17.55-11L28,19.67ZM18.73,20.46l8.38,5.27-.58-4.5Z"/><path class="cls-2" d="M30.41,30,10.87,17.78l17.35,1.7ZM12.55,18.35,29,28.69l-1.14-8.83Zm14.82,7.78-9.48-5.95,8.82.86Zm-7.8-5.38,7.28,4.58-.5-3.91Z"/><path class="cls-2" d="M89.26,25.41,91,29.46,81,26.53a1.34,1.34,0,0,1,0,.82c-1.4,3.73-19.56,2.84-40.56-2-5.77-1.32-11.15-2.81-15.9-4.34l.38,3.41C30.53,26.36,37,28.19,44,29.79c25.2,5.78,47.18,6.34,49.1,1.25C93.67,29.46,92.25,27.51,89.26,25.41Z"/><path class="cls-2" d="M79.42,34.72h0C70,34.72,57.06,33,43.94,30c-6.82-1.56-13.27-3.37-19.17-5.36l-.12,0-.42-3.85.29.1c4.92,1.58,10.26,3,15.89,4.33,11.85,2.72,23.17,4.28,31.05,4.28,5.45,0,8.75-.77,9.27-2.17a1.18,1.18,0,0,0,0-.7l-.07-.34,9.94,2.91L88.8,24.84l.58.41c3.2,2.24,4.5,4.22,3.89,5.86C92.14,34.1,85.12,34.72,79.42,34.72ZM25,24.29c5.85,2,12.24,3.75,19,5.3,13.09,3,26,4.72,35.38,4.72h0c7.87,0,12.65-1.18,13.46-3.34.5-1.33-.58-3-3.14-5l1.6,3.77-10.13-3a1.6,1.6,0,0,1-.1.61c-.75,2-5.67,2.43-9.65,2.43-7.91,0-19.26-1.56-31.14-4.29-5.53-1.27-10.78-2.7-15.62-4.25Z"/><path class="cls-2" d="M79.42,35.37h0c-9.47,0-22.45-1.73-35.62-4.75-6.83-1.57-13.3-3.37-19.22-5.37l-.52-.17-.58-5.26,1.25.4c4.9,1.58,10.22,3,15.84,4.32,11.81,2.71,23.07,4.26,30.9,4.26h0c5.91,0,8.36-.94,8.66-1.75a.47.47,0,0,0,0-.33l-.32-1.41,9.69,2.84L87.32,23l2.43,1.71c3.47,2.44,4.86,4.66,4.12,6.62C92.87,34,88,35.37,79.42,35.37ZM25.62,23.81c5.73,1.91,12,3.64,18.55,5.15,13,3,25.89,4.71,35.24,4.71,10.92,0,12.61-2.24,12.87-2.93h0L81.72,27.64h0c-.72,1.92-4.08,2.85-10.26,2.86h0c-8,0-19.35-1.57-31.28-4.31C35,25,30,23.68,25.45,22.24ZM91.5,28.49l.84,2A2.76,2.76,0,0,0,91.5,28.49Z"/><path class="cls-2" d="M79.42,35.57h0c-9.49,0-22.49-1.73-35.66-4.75-6.84-1.57-13.32-3.38-19.25-5.38l-.64-.21-.62-5.7,1.55.5c4.88,1.58,10.21,3,15.81,4.31,11.8,2.71,23,4.26,30.86,4.26,6.22,0,8.26-1.06,8.47-1.62a.29.29,0,0,0,0-.21L79.53,25l9.61,2.81-2.29-5.4,3,2.12c3.56,2.5,5,4.81,4.19,6.86C93,34.17,88.1,35.57,79.42,35.57ZM24.24,24.92l.39.14c5.92,2,12.38,3.79,19.21,5.36C57,33.44,70,35.17,79.41,35.17v0c8.49,0,13.29-1.32,14.26-3.9.7-1.86-.66-4-4-6.38l-1.85-1.3,2.07,4.87L80.09,25.6l.24,1.08a.76.76,0,0,1,0,.45C80,28,77.47,29,71.46,29c-7.85,0-19.12-1.56-30.95-4.27C34.89,23.45,29.56,22,24.66,20.42l-.95-.31Zm55.17,8.95c-9.36,0-22.23-1.72-35.28-4.71C37.54,27.65,31.29,25.91,25.56,24l-.12,0-.23-2,.3.1C30.09,23.48,35,24.81,40.22,26c11.92,2.73,23.3,4.3,31.24,4.3,6.08,0,9.38-.89,10.07-2.72l.06-.18.19.05,10.33,3-1.35-3.19.89,1.08a3,3,0,0,1,.9,2.16v.07h0v0l-.09.61L92.36,31C91.75,32.06,89.3,33.87,79.41,33.87ZM25.81,23.66c5.69,1.89,11.88,3.6,18.41,5.1,13,3,25.86,4.7,35.19,4.7,10,0,12.12-1.89,12.58-2.6l-10.15-3c-.9,1.9-4.3,2.82-10.38,2.82-8,0-19.39-1.57-31.33-4.31-5.08-1.17-9.93-2.47-14.44-3.87Z"/><path class="cls-2" d="M4.88,9.91C5.6,8,10.79,7.3,18.54,7.74l.32-1c-9.55-.37-16,.75-17,3.41-1.13,3,5,7.34,15.51,11.57l-5.08-3.34,5.91.49C9.33,15.47,4,12.13,4.88,9.91Z"/><path class="cls-2" d="M60.16,13.69l1.1,2.52c7,2.26,12.62,4.62,16.05,6.74l5.85-1A140.22,140.22,0,0,0,60.16,13.69Z"/><path class="cls-2" d="M24.11,20.18,18.46,18C8.37,14.19,5.28,11.25,5.67,10.21c.31-.8,2.76-1.75,8.67-1.75,1,0,2,0,3.07.08l.81-2.72c-.94,0-1.86,0-2.73,0C6.9,5.78,2,7.14,1,9.81c-.89,2.36,1,6.33,14.34,12l7.17,2.85L17.8,21l-2.29-1.51ZM9.87,17.28C5.21,14.77,2,12.17,2.62,10.41c.12-.31.51-.92,1.89-1.51a2.5,2.5,0,0,0-.43.71c-.85,2.26,2.07,4.91,8.69,7.92Z"/><path class="cls-2" d="M23.83,25.38l-1.37-.55-2.35-.93L15.29,22C7.79,18.81-.81,14.12.84,9.74c1-2.76,6-4.16,14.65-4.16.85,0,1.78,0,2.74,0h.26l-.93,3.12H17.4c-1.08-.05-2.11-.07-3.06-.07-6.22,0-8.27,1.06-8.48,1.61-.29.79,2.42,3.66,12.68,7.56l7,2.67-9.24-.78,1.62,1.07ZM15.49,6C7,6,2.19,7.3,1.22,9.88.37,12.13,2.15,16,15.45,21.6l4.81,1.92,1,.4-3.6-2.79-2.94-1.94,8,.67-4.29-1.64C8.75,14.56,5,11.52,5.48,10.14c.34-.91,2.85-1.88,8.86-1.88.91,0,1.89,0,2.92.07L18,6ZM13.93,17.83l-4.15-.37c-3.81-2.05-8.17-5-7.35-7.12.13-.35.56-1,2-1.63l.8-.34L4.66,9a2.29,2.29,0,0,0-.39.65c-.8,2.14,2.09,4.71,8.59,7.66Zm-4-.75,1.71.15C5.57,14.34,3,11.82,3.89,9.54L4,9.4a2.32,2.32,0,0,0-1.14,1.08C2.26,11.94,4.86,14.34,9.93,17.08Z"/><path class="cls-2" d="M83.53,21.17a140.37,140.37,0,0,0-23.14-8.3l-.65-.18,1.83,4.52c6.61,2.16,12,4.44,15.29,6.46l.28.17,8.77-1.52Zm-6,.89a79.36,79.36,0,0,0-15.59-6.54L61.66,15a145.17,145.17,0,0,1,18.67,6.57Z"/><path class="cls-2" d="M77.1,24.06l-.34-.21c-5.16-3.19-10.6-4.94-15-6.39l-.2,0-1.93-5,.83.26A141.67,141.67,0,0,1,83.62,21l2.95,1.43ZM61.73,17c6.58,2.16,12,4.45,15.24,6.46l.21.13,8.07-1.4-1.81-.88a139.58,139.58,0,0,0-23.1-8.28L60.09,13Zm15.71,5.23-.06,0a80.62,80.62,0,0,0-15.56-6.52l-.08,0-.44-1,.41.12a146,146,0,0,1,18.71,6.57l.61.28ZM62,15.35a81.06,81.06,0,0,1,15.48,6.49l2.11-.37A147.37,147.37,0,0,0,62,15.31Z"/><polygon class="cls-2" points="70.32 22.3 88.85 27.77 85.2 19.73 70.32 22.3"/><path class="cls-1" d="M85.71,18.78,78.79,20l1.78.74-5.6,1-1.51-.85-6.41,1.24,23.34,7Zm-1,1.9,2.6,5.74-13.24-3.9Z"/><path class="cls-1" d="M90.76,29.43,66.89,22.14l6.6-1.46,1.51.86,4.86-.9-1.79-.75,7.76-1.34ZM67.9,22.18,90,28.78,85.59,19l-6.07,1.05,1.77.74L74.93,22l-1.51-.85Zm19.77,4.57L73.16,22.47l11.66-2ZM75,22.57l12,3.53-2.35-5.19Z"/><path class="cls-1" d="M91.32,29.92l-24-7.34-.67-.49.35-.28,6.59-1.45,1.52.85,3.72-.69L77,19.77,86,18.2ZM69.2,22.25l20.25,6-4-8.94-4.78.83,1.17.48L85,20.1l3.23,7.13L71.8,22.39,74.29,22l-.92-.52Zm7.12.4,10.05,3-2-4.36Z"/><polygon class="cls-3" points="29.34 28.13 15.22 19.27 27.28 20.45 29.34 28.13"/><path class="cls-4" d="M89.26,25.41,91,29.46,81,26.68a1.17,1.17,0,0,1-.07.68c-1.4,3.73-19.56,2.83-40.56-2-5.77-1.32-11.15-2.81-15.9-4.34l.38,3.41C30.53,26.36,37,28.19,44,29.79c25.2,5.78,47.18,6.34,49.1,1.25C93.67,29.46,92.25,27.51,89.26,25.41Z"/><path class="cls-4" d="M4.88,9.91c.68-1.8,5.29-2.52,12.25-2.23l.3-1c-8.77-.21-14.66.93-15.61,3.45-1.13,3,5,7.34,15.51,11.57l-5.08-3.34,5.91.49C9.33,15.47,4,12.13,4.88,9.91Z"/><path class="cls-4" d="M48.23,10.83c-4.56-1-9-1.82-13.2-2.46l.49,1.56c3.1.56,6.32,1.21,9.61,2,1.46.33,2.89.68,4.3,1Z"/><path class="cls-4" d="M61.32,14l1,2.53c6.61,2.18,11.71,4.36,15,6.4l5.85-1A134.94,134.94,0,0,0,61.32,14Z"/><polygon class="cls-4" points="70.32 22.3 88.85 27.77 85.2 19.73 70.32 22.3"/></g></g></svg>