<?xml version="1.0" encoding="utf-8"?>
<!-- Generator: Adobe Illustrator 16.0.0, SVG Export Plug-In . SVG Version: 6.00 Build 0)  -->
<!DOCTYPE svg PUBLIC "-//W3C//DTD SVG 1.1//EN" "http://www.w3.org/Graphics/SVG/1.1/DTD/svg11.dtd">
<svg version="1.1" id="Layer_1" xmlns="http://www.w3.org/2000/svg" xmlns:xlink="http://www.w3.org/1999/xlink" x="0px" y="0px"
	 width="500px" height="500px" viewBox="0 0 500 500" enable-background="new 0 0 500 500" xml:space="preserve">
<g>
	<g>
		<g>
			<path fill="#BCBEC0" d="M127.803,282.681l-12.198,43.975h-40.17l52.368-171.343h50.846l53.133,171.343h-41.7l-13.211-43.975
				l-25.331-91.486L127.803,282.681z"/>
		</g>
	</g>
</g>
<g>
	<g>
		<g>
			<path fill="#BCBEC0" d="M338.807,326.655l-15.506-31.012c-6.354-11.95-10.426-20.847-15.257-30.758h-0.504
				c-3.562,9.911-7.877,18.808-13.231,30.758l-14.225,31.012h-44.236l49.571-86.688l-47.793-84.655h44.485l15.002,31.267
				c5.086,10.426,8.897,18.813,12.963,28.476h0.517c4.066-10.93,7.36-18.559,11.695-28.476l14.486-31.267h44.236l-48.31,83.642
				l50.846,87.701H338.807z"/>
		</g>
	</g>
</g>
<g>
	<g>
		<g>
			<polygon fill="#6D6E71" points="353.711,248.615 437.549,273.326 421.069,236.946 			"/>
		</g>
	</g>
	<g>
		<g>
			<polygon fill="#6D6E71" points="163.083,271.711 104.426,234.855 158.998,240.216 			"/>
		</g>
	</g>
	<g>
		<g>
			<path fill="#6D6E71" d="M439.458,262.689l7.772,18.316L401.89,267.75c0.294,1.3,0.242,2.543-0.196,3.714
				c-6.334,16.831-88.493,12.812-183.503-8.983c-26.115-5.988-50.472-12.7-71.953-19.625l1.693,15.435
				c25.776,8.682,55.108,16.957,86.643,24.194c114.006,26.148,213.454,28.678,222.123,5.654
				C459.383,280.974,452.983,272.182,439.458,262.689z"/>
		</g>
	</g>
	<g>
		<g>
			<path fill="#6D6E71" d="M57.621,192.541c3.269-8.694,26.763-11.826,61.821-9.819l1.444-4.727
				c-43.236-1.648-72.554,3.406-77.085,15.434c-5.131,13.663,22.795,33.229,70.149,52.355l-22.984-15.141l26.77,2.243
				C77.755,217.688,53.855,202.556,57.621,192.541z"/>
		</g>
	</g>
	<g>
		<g>
			<g>
				<path fill="#6D6E71" d="M261.78,198.156c-25.783-5.798-50.767-10.4-74.065-13.747l2.052,6.798
					c16.396,2.805,33.653,6.25,51.349,10.302c8.923,2.053,17.63,4.184,26.096,6.38L261.78,198.156z"/>
			</g>
		</g>
		<g>
			<g>
				<path fill="#6D6E71" d="M307.782,209.635l4.955,11.4c31.686,10.21,57.114,20.899,72.621,30.482l26.469-4.588
					C385.619,234.222,349.586,221.153,307.782,209.635z"/>
			</g>
		</g>
	</g>
</g>
</svg>
