<?xml version="1.0" encoding="utf-8"?>
<!-- Generator: Adobe Illustrator 16.0.0, SVG Export Plug-In . SVG Version: 6.00 Build 0)  -->
<!DOCTYPE svg PUBLIC "-//W3C//DTD SVG 1.1//EN" "http://www.w3.org/Graphics/SVG/1.1/DTD/svg11.dtd">
<svg version="1.1" id="Layer_1" xmlns="http://www.w3.org/2000/svg" xmlns:xlink="http://www.w3.org/1999/xlink" x="0px" y="0px"
	 width="500px" height="500px" viewBox="0 0 500 500" enable-background="new 0 0 500 500" xml:space="preserve">
<g>
	<g>
		<path fill="#1C75BC" d="M259.652,206.406c-25.707-5.785-50.625-10.366-73.845-13.705l2.045,6.777
			c16.347,2.802,33.546,6.232,51.199,10.283c8.89,2.038,17.577,4.158,26.013,6.351L259.652,206.406z"/>
		<path fill="#1C75BC" d="M267.874,218.284l-3.16-0.824c-8.468-2.196-17.207-4.333-25.973-6.339
			c-17.326-3.971-34.529-7.425-51.123-10.267l-0.855-0.143l-2.929-9.702l2.168,0.311c23.817,3.422,48.696,8.039,73.953,13.72
			l0.617,0.139L267.874,218.284z M188.939,198.249c16.387,2.822,33.343,6.236,50.426,10.151c7.705,1.767,15.389,3.625,22.889,5.543
			l-3.517-6.311c-24.215-5.432-48.071-9.88-70.96-13.231L188.939,198.249z"/>
	</g>
	<g>
		<path fill="#1C75BC" d="M266.915,217.545l-2.078-0.542c-8.583-2.228-17.33-4.357-25.993-6.347
			c-17.271-3.959-34.485-7.421-51.155-10.267l-0.557-0.099l-2.619-8.704l1.424,0.204c23.785,3.418,48.66,8.031,73.917,13.721
			l0.394,0.087L266.915,217.545z M188.561,198.667c16.53,2.841,33.586,6.264,50.698,10.191c7.982,1.834,16.032,3.792,23.959,5.826
			l-4.167-7.47c-24.569-5.523-48.759-10.027-71.95-13.394L188.561,198.667z"/>
		<path fill="#1C75BC" d="M269.728,219.718l-5.245-1.361c-8.429-2.19-17.163-4.323-25.954-6.339
			c-17.37-3.984-34.557-7.43-51.075-10.252l-1.412-0.242l-3.499-11.628l3.594,0.51c23.9,3.438,48.807,8.062,74.023,13.74
			l1.003,0.226L269.728,219.718z M189.651,197.433c16.419,2.846,33.211,6.232,49.917,10.068c6.801,1.553,13.796,3.243,20.844,5.026
			l-2.276-4.083c-23.582-5.288-46.793-9.63-69.062-12.92L189.651,197.433z"/>
	</g>
</g>
<g>
	<g>
		<path fill="#939598" d="M272.796,222.077l-8.691-2.256c-8.568-2.212-17.287-4.345-25.913-6.323
			c-17.211-3.951-34.366-7.389-50.992-10.239l-2.34-0.398l-4.465-14.812l5.957,0.855c23.868,3.426,48.814,8.062,74.139,13.756
			l1.676,0.382L272.796,222.077z M242.732,206.673c4.875,1.126,9.769,2.308,14.632,3.518l-0.227-0.418
			C252.314,208.707,247.511,207.659,242.732,206.673z"/>
		<path fill="#939598" d="M275.609,224.245l-11.854-3.072c-8.659-2.236-17.362-4.361-25.874-6.315
			c-17.119-3.927-34.246-7.365-50.916-10.223l-3.199-0.545l-5.34-17.736l8.125,1.17c23.816,3.414,48.799,8.054,74.25,13.772
			l2.281,0.521L275.609,224.245z M185.946,201.627l1.488,0.255c16.722,2.864,33.904,6.311,51.075,10.254
			c8.532,1.961,17.263,4.086,25.942,6.335l5.531,1.432l-8.735-15.643l-1.063-0.238c-25.376-5.707-50.283-10.327-74.032-13.737
			l-3.789-0.541L185.946,201.627z M260.142,212.323l-3.116-0.776c-4.854-1.208-9.741-2.391-14.608-3.513l0.592-2.729
			c4.795,0.986,9.603,2.038,14.426,3.104l0.612,0.135L260.142,212.323z"/>
	</g>
	<g>
		<path fill="#939598" d="M274.643,223.514l-10.772-2.794c-8.528-2.212-17.235-4.337-25.882-6.327
			c-17.203-3.939-34.346-7.381-50.948-10.219l-2.896-0.501l-5.05-16.738l7.386,1.06c23.892,3.43,48.858,8.066,74.219,13.775
			l2.069,0.462L274.643,223.514z M185.576,202.053l1.783,0.307c16.633,2.836,33.808,6.296,51.04,10.243
			c8.662,1.982,17.39,4.119,25.929,6.332l6.613,1.715l-9.371-16.797l-1.285-0.29c-25.301-5.699-50.224-10.319-74.063-13.746
			l-4.529-0.652L185.576,202.053z M259.199,211.6l-2.054-0.51c-4.867-1.216-9.757-2.395-14.624-3.525l0.398-1.798
			c4.784,1.002,9.594,2.034,14.413,3.116l0.406,0.083L259.199,211.6z"/>
		<path fill="#939598" d="M277.452,225.687l-13.928-3.614c-8.428-2.188-17.127-4.313-25.846-6.319
			c-17.223-3.947-34.338-7.377-50.872-10.203l-3.752-0.648l-5.929-19.659l9.555,1.366c23.932,3.438,48.938,8.078,74.326,13.796
			l2.674,0.602L277.452,225.687z M186.667,200.823l0.931,0.164c16.506,2.812,33.705,6.267,51.111,10.255
			c8.476,1.937,17.214,4.07,25.969,6.343l3.45,0.896l-7.477-13.407l-0.672-0.15c-25.202-5.676-50.089-10.291-73.957-13.726
			l-2.36-0.337L186.667,200.823z M261.976,213.733l-5.169-1.286c-4.854-1.218-9.741-2.392-14.6-3.522l-1.346-0.311l0.987-4.5
			l1.356,0.287c4.792,1.002,9.603,2.032,14.429,3.119l1.015,0.202L261.976,213.733z"/>
	</g>
</g>
<g>
	<path fill="#1C75BC" stroke="#1C75BC" stroke-width="2.7936" stroke-miterlimit="10" d="M126.062,290.685l-12.173,43.854H73.844
		l52.217-170.842h50.697l52.981,170.842h-41.576l-13.176-43.854l-25.257-91.218L126.062,290.685z"/>
</g>
<g>
	<g>
		<path fill="#939598" d="M234.944,338.382H185.31l-14.003-46.59l-21.453-77.502l-20.084,77.358l-12.961,46.734H68.655
			l54.564-178.534h56.364L234.944,338.382z M191.012,330.7h33.518l-50.601-163.176h-45.031L79.025,330.7h31.946l11.389-41.042
			l27.251-105.015l29.077,105.015L191.012,330.7z"/>
		<path fill="#939598" d="M236.838,339.778h-52.567l-14.301-47.585l-20.072-72.512l-18.774,72.316l-13.252,47.78H66.769l0.549-1.807
			l54.867-179.521h58.429l0.302,0.983L236.838,339.778z M186.349,336.984h46.701l-54.497-175.74h-54.298l-53.713,175.74h45.205
			l12.679-45.71l21.385-82.377l22.842,82.52L186.349,336.984z M226.424,332.099h-36.451l-12.622-42.038l-27.697-100.025
			l-25.941,99.972l-11.679,42.091H77.139l0.549-1.808l50.175-164.164h47.096l0.303,0.982L226.424,332.099z M192.051,329.305h30.585
			l-49.738-160.384h-42.965L80.912,329.305h28.998l11.106-40.021l28.552-110.033l30.465,110.033L192.051,329.305z"/>
	</g>
	<g>
		<path fill="#939598" d="M236.194,339.297h-51.568l-14.19-47.235l-20.553-74.223l-19.217,74.048l-13.156,47.41H67.406
			l55.13-180.364h57.724l0.207,0.641L236.194,339.297z M185.99,337.458h47.705l-54.788-176.683h-54.999L69.901,337.458h46.2
			l12.786-46.049l20.943-80.682l22.364,80.821L185.99,337.458z M225.776,331.617h-35.44l-12.535-41.688l-28.158-101.736
			l-26.396,101.704l-11.571,41.721H77.784l50.435-165.008h46.387l0.199,0.645L225.776,331.617z M191.701,329.785h31.576
			l-50.024-161.338h-43.673L80.267,329.785h30.008l11.202-40.366l28.11-108.33l29.98,108.33L191.701,329.785z"/>
		<path fill="#939598" d="M238.088,340.693h-54.501l-14.489-48.23l-19.173-69.232l-17.907,69.006l-13.447,48.456H65.52l0.549-1.807
			l55.432-181.351h59.778l0.518,1.608L238.088,340.693z M187.029,336.062H231.8l-53.924-173.89h-52.934l-53.156,173.89h43.251
			l12.503-45.026l22.245-85.699l23.752,85.838L187.029,336.062z M227.67,333.014h-38.373l-12.833-42.684l-26.778-96.746
			l-25.085,96.663l-11.862,42.767H75.897l0.549-1.807l50.737-165.995h48.453l0.501,1.627L227.67,333.014z M192.739,328.39h28.643
			l-49.16-158.546h-41.608L82.153,328.39h27.06l10.92-39.345l29.411-113.347l31.37,113.347L192.739,328.39z"/>
	</g>
</g>
<g>
	<g>
		<g>
			<path fill="#939598" d="M336.454,334.538l-15.46-30.928c-6.335-11.91-10.394-20.78-15.208-30.67h-0.51
				c-3.546,9.89-7.855,18.76-13.176,30.67l-14.198,30.928h-44.111l49.431-86.439l-47.657-84.403h44.366l14.95,31.174
				c5.074,10.391,8.87,18.75,12.929,28.389h0.514c4.047-10.9,7.346-18.5,11.667-28.389l14.433-31.174h44.111l-48.166,83.395
				l50.705,87.447H336.454z"/>
			<path fill="#939598" d="M383.498,335.935H335.59l-15.846-31.7c-4.771-8.969-8.321-16.358-11.751-23.505
				c-0.768-1.601-1.54-3.2-2.32-4.82c-2.539,6.722-5.452,13.144-8.766,20.451c-1.127,2.478-2.304,5.064-3.534,7.818l-14.576,31.756
				h-47.414l50.231-87.84l-48.441-85.796h47.637l15.328,31.967c4.524,9.268,8.146,17.154,11.867,25.87
				c3.757-9.925,7-17.342,10.705-25.826l14.823-32.01h47.422l-48.97,84.792L383.498,335.935z M337.317,333.141h41.333l-49.897-86.05
				l47.362-81.998h-40.8l-14.055,30.362c-4,9.153-7.466,17.084-11.628,28.29l-0.338,0.911h-2.411l-0.362-0.856
				c-4.091-9.717-7.946-18.186-12.893-28.316l-14.577-30.391h-41.094l46.873,83.01l-48.632,85.038h40.809l13.824-30.112
				c1.226-2.745,2.403-5.339,3.53-7.822c3.701-8.149,6.896-15.189,9.602-22.734l0.331-0.928h2.364l0.386,0.784
				c1.186,2.44,2.328,4.814,3.47,7.191c3.418,7.123,6.956,14.484,11.715,23.434L337.317,333.141z"/>
		</g>
		<g>
			<path fill="#939598" d="M382.674,335.461h-46.789l-15.711-31.437c-4.759-8.934-8.285-16.292-11.711-23.399
				c-0.931-1.966-1.878-3.932-2.849-5.93c-2.619,7.096-5.659,13.785-9.148,21.461c-1.126,2.495-2.3,5.074-3.534,7.831
				l-14.445,31.474h-46.281l0.789-1.372l49.177-85.99l-48.182-85.326h46.519l15.209,31.699c4.735,9.718,8.46,17.859,12.312,26.941
				c3.924-10.434,7.267-18.09,11.107-26.913l14.704-31.727h46.292l-48.695,84.318L382.674,335.461z M337.023,333.622h42.451
				l-50.167-86.531l0.267-0.462l47.366-82.026h-41.927l-14.198,30.649c-4.006,9.197-7.477,17.159-11.631,28.333l-0.227,0.596h-1.755
				l-0.23-0.564c-4.071-9.654-7.931-18.123-12.909-28.349l-14.711-30.665h-42.205l47.143,83.511l-0.266,0.441l-48.644,85.066h41.935
				l13.948-30.394c1.226-2.751,2.411-5.349,3.53-7.828c3.705-8.153,6.904-15.205,9.622-22.773l0.223-0.605h1.727l0.247,0.525
				c1.202,2.463,2.36,4.871,3.522,7.273c3.406,7.1,6.932,14.442,11.675,23.36L337.023,333.622z"/>
			<path fill="#939598" d="M385.098,336.857h-50.076l-16.097-32.209c-4.553-8.54-7.971-15.635-11.278-22.495l-0.442-0.923
				c-0.477-1.004-0.955-2.002-1.436-3.009c-2.364,6.041-5.022,11.891-8.03,18.512l-3.534,7.824l-14.823,32.3h-49.587l50.769-88.763
				l-48.966-86.719h49.789l15.587,32.492c4.23,8.674,7.601,15.98,10.979,23.816c3.355-8.703,6.331-15.54,9.722-23.323l0.179-0.418
				l15.094-32.567h49.603l-49.5,85.715L385.098,336.857z M337.886,332.226h39.165l-49.36-85.135L374.52,166h-38.615l-13.825,29.84
				c-3.991,9.165-7.449,17.1-11.587,28.23l-0.573,1.508h-3.657l-0.585-1.433c-4.027-9.55-7.879-18.01-12.873-28.266L278.471,166
				h-38.934l46.368,82.138l-0.685,1.138l-47.434,82.95h38.631l13.574-29.579c0.828-1.858,1.644-3.656,2.432-5.396l1.094-2.424
				c3.685-8.109,6.864-15.109,9.582-22.675l0.562-1.527h3.589l4.139,8.587c3.391,7.064,6.893,14.362,11.652,23.312L337.886,332.226z
				"/>
		</g>
	</g>
	<g>
		<g>
			<path fill="#939598" d="M387.74,338.382h-53.654l-16.522-33.049c-4.727-8.878-8.257-16.229-11.671-23.335
				c-2.042,4.962-4.293,9.929-6.765,15.372c-1.122,2.476-2.296,5.062-3.529,7.808l-15.233,33.204h-53.184l51.628-90.291
				l-49.813-88.243h53.351l16.005,33.359c3.581,7.354,6.598,13.833,9.53,20.493c2.893-7.326,5.583-13.497,8.583-20.366
				l15.512-33.486h53.211l-50.382,87.243L387.74,338.382z M338.829,330.7h35.58l-48.472-83.609l45.949-79.567h-35.006l-13.414,28.95
				c-3.964,9.1-7.422,17.027-11.548,28.125l-0.928,2.499h-5.727l-0.995-2.351c-4.039-9.595-7.871-18.027-12.837-28.198
				l-13.916-29.025h-35.372l45.496,80.59L240.412,330.7h35.026l13.172-28.686c1.217-2.73,2.403-5.329,3.525-7.82
				c3.678-8.098,6.849-15.097,9.531-22.547l0.911-2.539h5.611l1.046,2.148c1.206,2.479,2.364,4.903,3.53,7.308
				c3.39,7.066,6.899,14.38,11.619,23.246L338.829,330.7z"/>
			<path fill="#939598" d="M390.164,339.778h-56.941l-16.909-33.821c-4.106-7.715-7.317-14.286-10.334-20.553
				c-1.743,4.087-3.618,8.218-5.579,12.543l-19.141,41.831h-56.487l52.428-91.691l-50.598-89.636h56.622l16.383,34.151
				c3.061,6.284,5.707,11.926,8.206,17.505c2.5-6.181,4.875-11.619,7.37-17.334l15.901-34.322h56.523l-51.187,88.64L390.164,339.778
				z M334.949,336.984h50.367l-52.125-89.894l49.579-85.846h-49.901l-15.133,32.679c-2.881,6.589-5.611,12.841-8.555,20.291
				l-1.226,3.112l-1.349-3.064c-2.885-6.551-5.905-13.049-9.51-20.442l-15.627-32.575h-50.08l49.029,86.85l-50.829,88.89h49.881
				l18.385-40.19c2.416-5.317,4.695-10.339,6.745-15.33l1.194-2.896l1.357,2.825c3.43,7.136,6.944,14.453,11.647,23.283
				L334.949,336.984z M376.833,332.099h-38.867l-14.831-29.662c-4.727-8.883-8.236-16.196-11.627-23.268l-4.19-8.663h-3.757
				l-0.581,1.615c-2.726,7.572-5.896,14.562-9.57,22.651l-3.521,7.811l-13.554,29.516h-38.33l48.027-83.988l-46.28-81.983h38.643
				l14.298,29.817c4.922,10.087,8.77,18.539,12.865,28.261l0.633,1.497h3.828l0.588-1.588c4.107-11.047,7.525-18.891,11.481-27.975
				l13.9-30.012h38.317l-46.753,80.963L376.833,332.099z M339.693,329.305h32.292l-47.665-82.214l45.146-78.17h-31.696
				l-13.04,28.142c-4.023,9.24-7.425,17.052-11.504,28.022l-1.266,3.41h-7.625l-1.354-3.203c-4.07-9.674-7.903-18.087-12.805-28.13
				l-13.542-28.242h-32.102l44.712,79.197l-46.428,81.187h31.724l16.319-35.683c3.649-8.039,6.8-14.979,9.491-22.448l1.242-3.462
				h7.465l4.962,10.243c3.382,7.052,6.88,14.342,11.596,23.2L339.693,329.305z"/>
		</g>
		<g>
			<path fill="#939598" d="M389.335,339.297h-55.815l-16.781-33.55c-4.321-8.115-7.644-14.959-10.788-21.501
				c-1.85,4.389-3.864,8.835-5.985,13.498l-0.115,0.25c-1.087,2.4-2.225,4.907-3.411,7.562l-15.492,33.741h-55.356l0.792-1.376
				l51.365-89.843l-50.334-89.146h55.504l16.255,33.876c3.251,6.669,6.037,12.615,8.655,18.512c2.627-6.51,5.137-12.272,7.784-18.36
				l15.774-34.028h55.401l-50.919,88.158L389.335,339.297z M334.651,337.458h51.485l-52.397-90.367l0.271-0.466l49.586-85.85
				h-51.035l-15.265,32.949c-2.909,6.666-5.655,12.981-8.56,20.303l-0.812,2.058l-0.892-2.014
				c-2.885-6.553-5.905-13.055-9.514-20.458l-15.755-32.837h-51.194l49.3,87.32l-0.263,0.449l-50.844,88.914h51.012l14.99-32.659
				c1.189-2.649,2.324-5.161,3.406-7.556l0.115-0.251c2.42-5.333,4.708-10.369,6.761-15.34l0.784-1.911l0.896,1.855
				c3.402,7.102,6.932,14.444,11.647,23.303L334.651,337.458z M376.013,331.617h-37.749l-14.7-29.4
				c-4.755-8.906-8.253-16.208-11.631-23.252l-0.183-0.377c-1.102-2.284-2.201-4.576-3.343-6.925l-0.8-1.64h-4.386l-0.692,1.927
				c-2.69,7.498-5.873,14.509-9.551,22.626c-1.134,2.487-2.312,5.086-3.533,7.816l-13.419,29.225H238.82l0.788-1.366l46.973-82.137
				l-46.013-81.505h37.521l14.175,29.542c4.966,10.187,8.814,18.631,12.857,28.238l0.756,1.791h4.469l0.708-1.903
				c4.139-11.118,7.581-19.02,11.568-28.161l13.673-29.507h37.187l-46.479,80.482L376.013,331.617z M339.395,329.785h33.415
				l-47.935-82.694l0.271-0.462l45.146-78.182h-32.822l-13.167,28.429c-3.976,9.088-7.406,16.968-11.52,28.038l-1.15,3.104h-6.976
				l-1.226-2.913c-4.027-9.573-7.871-17.986-12.821-28.153l-13.677-28.504h-33.215l44.983,79.675l-0.255,0.445L242,329.785h32.846
				l12.925-28.157c1.221-2.713,2.392-5.328,3.529-7.804c3.669-8.09,6.837-15.077,9.503-22.483l1.122-3.155h6.833l1.309,2.674
				c1.138,2.349,2.24,4.644,3.351,6.933l0.179,0.374c3.366,7.027,6.861,14.301,11.596,23.219L339.395,329.785z"/>
			<path fill="#939598" d="M391.758,340.693h-59.101l-17.167-34.322c-3.716-6.975-6.649-12.928-9.462-18.75
				c-1.512,3.485-3.116,7.026-4.788,10.7l-0.565,1.237c-0.947,2.098-1.934,4.278-2.96,6.565l-15.87,34.569h-58.667l1.997-3.47
				l50.968-89.149l-51.119-90.539h58.775l16.633,34.668c2.77,5.678,5.138,10.704,7.338,15.566c2.109-5.125,4.167-9.856,6.323-14.814
				l0.239-0.554l16.164-34.867h58.711l-51.723,89.555L391.758,340.693z M335.515,336.062h48.198l-51.588-88.971l0.68-1.166
				l48.373-83.753h-47.724l-14.891,32.142c-2.583,5.921-5.527,12.666-8.527,20.227l-2.034,5.161l-2.245-5.066
				c-2.913-6.622-5.929-13.104-9.495-20.41l-15.376-32.054h-47.923l48.521,85.935l-0.668,1.141l-49.642,86.814h47.708l18.213-39.821
				c2.387-5.261,4.643-10.228,6.665-15.121l1.97-4.804l2.256,4.672c3.184,6.649,6.793,14.183,11.624,23.255L335.515,336.062z
				 M378.436,333.014h-41.035l-15.085-30.172c-4.708-8.814-8.182-16.061-11.544-23.072l-4.035-8.349h-2.531l-0.362,1.003
				c-2.678,7.47-5.83,14.421-9.475,22.472c-1.25,2.744-2.428,5.34-3.649,8.065l-13.797,30.053h-40.521l1.998-3.458l46.574-81.445
				l-46.797-82.898h40.792l14.553,30.335c4.998,10.25,8.854,18.719,12.889,28.3l0.394,0.936h2.571l0.37-0.992
				c4.183-11.237,7.621-19.117,11.596-28.232l14.062-30.347h40.498l-47.283,81.879L378.436,333.014z M340.258,328.39h30.127
				l-47.127-81.303l0.68-1.165l43.932-76.078H338.36l-12.79,27.621c-3.745,8.551-7.29,16.659-11.48,27.935l-1.488,4.016h-8.874
				l-1.588-3.769c-3.932-9.351-7.755-17.748-12.79-28.083l-13.299-27.72h-29.944l44.199,78.282l-45.898,80.264h29.542l13.22-28.835
				c0.982-2.181,1.934-4.293,2.861-6.315c3.649-8.046,6.805-15.001,9.459-22.372l1.448-4.078h8.691l5.229,10.771
				c3.164,6.61,6.753,14.099,11.568,23.169L340.258,328.39z"/>
		</g>
	</g>
</g>
<g>
	<path fill="#FFFFFF" d="M126.062,290.685l-12.173,43.854H73.844l52.217-170.842h50.697l52.981,170.842h-41.576l-13.176-43.854
		l-25.257-91.218L126.062,290.685z"/>
</g>
<g>
	<path fill="#FFFFFF" d="M336.454,334.538l-15.46-30.928c-6.335-11.91-10.394-20.78-15.208-30.67h-0.51
		c-3.546,9.89-7.855,18.76-13.176,30.67l-14.198,30.928h-44.111l49.431-86.439l-47.657-84.403h44.366l14.95,31.174
		c5.074,10.391,8.87,18.75,12.929,28.389h0.514c4.047-10.9,7.346-18.5,11.667-28.389l14.433-31.174h44.111l-48.166,83.395
		l50.705,87.447H336.454z"/>
</g>
<g>
	<g>
		<g>
			<polygon fill="#939598" points="161.235,279.757 102.75,243.005 157.167,248.349 			"/>
			<path fill="#939598" d="M163.001,282.516l-66.01-41.481l61.417,6.033L163.001,282.516z M108.508,244.974L159.468,277
				l-3.541-27.37L108.508,244.974z"/>
		</g>
		<g>
			<path fill="#939598" d="M162.397,281.568l-63.443-39.856l59.025,5.789L162.397,281.568z M106.543,244.31l53.534,33.621
				l-3.732-28.734L106.543,244.31z"/>
			<path fill="#939598" d="M164.164,284.326l-70.968-44.585l66.025,6.479L164.164,284.326z M112.305,246.279l46.005,28.895
				l-3.207-24.696L112.305,246.279z"/>
		</g>
	</g>
	<g>
		<g>
			<path fill="#939598" d="M166.085,287.326L86.92,237.593l73.662,7.234L166.085,287.326z M118.572,248.412l37.812,23.756
				l-2.635-20.297L118.572,248.412z"/>
			<path fill="#939598" d="M167.853,290.084l-86.694-54.462l80.666,7.924L167.853,290.084z M92.682,239.562l71.637,45.008
				l-4.978-38.461L92.682,239.562z M158.151,274.927l-45.341-28.484l42.181,4.147L158.151,274.927z M124.334,250.382l30.282,19.029
				l-2.109-16.259L124.334,250.382z"/>
		</g>
		<g>
			<path fill="#939598" d="M171.259,291.536l-88.135-55.241l78.27,7.681L171.259,291.536z M90.709,238.89l74.223,46.63
				l-5.165-39.849L90.709,238.89z M157.542,273.988l-42.762-26.87l39.786,3.909L157.542,273.988z M122.372,249.717l32.85,20.634
				l-2.288-17.638L122.372,249.717z"/>
			<path fill="#939598" d="M173.292,294.457L77.35,234.325l85.202,8.361L173.292,294.457z M166.523,286.92l2.702,1.695
				l-6.625-31.941L166.523,286.92z M96.467,240.86l66.698,41.901l-4.64-35.81L96.467,240.86z M159.309,276.745l-50.287-31.596
				l46.786,4.597L159.309,276.745z M128.131,251.688l25.324,15.905l-1.763-13.597L128.131,251.688z"/>
		</g>
	</g>
</g>
<g>
	<g>
		<g>
			<path fill="#939598" d="M436.812,270.752l7.756,18.27l-45.217-13.22c0.303,1.294,0.254,2.531-0.191,3.693
				c-6.311,16.8-88.23,12.781-182.974-8.941c-26.041-5.974-50.332-12.666-71.749-19.575l1.695,15.393
				c25.699,8.651,54.943,16.913,86.384,24.115c113.682,26.08,212.852,28.603,221.487,5.643
				C456.693,288.989,450.303,280.219,436.812,270.752z"/>
			<path fill="#939598" d="M392.383,313.224c-0.008,0-0.008,0-0.012,0c-42.587-0.004-100.964-7.795-160.169-21.377
				c-30.676-7.027-59.786-15.153-86.515-24.15l-0.844-0.287l-2.029-18.424l2.053,0.664c22.161,7.147,46.26,13.726,71.628,19.543
				c53.467,12.256,104.486,19.288,139.974,19.288c24.039,0,39.12-3.454,41.381-9.475c0.342-0.893,0.385-1.831,0.139-2.885
				l-0.545-2.333l44.684,13.064l-8.508-20.048l3.996,2.805c14.629,10.265,20.582,19.353,17.691,27.013
				C450.152,310.343,418.246,313.224,392.383,313.224z M147.422,265.332c26.415,8.854,55.142,16.86,85.405,23.792
				c59.01,13.538,117.16,21.303,159.544,21.303c0,0,0.008,0,0.012,0c34.796,0.004,56.777-5.389,60.312-14.791
				c2.088-5.543-2.258-12.659-12.6-20.725l6.912,16.278l-46.072-13.469c-0.037,0.787-0.191,1.547-0.471,2.275
				c-2.809,7.482-17.612,11.278-43.995,11.278c-35.691,0-86.938-7.056-140.595-19.36c-24.667-5.657-48.142-12.03-69.813-18.945
				L147.422,265.332z"/>
		</g>
		<g>
			<path fill="#939598" d="M392.375,312.746c0,0,0,0-0.008,0c-42.543,0-100.877-7.779-160.054-21.356
				c-30.768-7.056-59.857-15.182-86.471-24.159l-0.554-0.18l-1.918-17.382l1.35,0.442c22.157,7.139,46.268,13.705,71.676,19.538
				c53.479,12.272,104.542,19.309,140.082,19.309c24.604,0,39.459-3.47,41.827-9.781c0.357-0.971,0.418-2.038,0.16-3.167
				l-0.352-1.528l44.855,13.107l-8.256-19.439l2.629,1.851c14.426,10.119,20.314,19.029,17.529,26.451
				C449.801,309.922,418.094,312.746,392.375,312.746z M146.984,265.679c26.399,8.882,55.253,16.92,85.736,23.916
				c59.058,13.537,117.243,21.313,159.647,21.313c0.008,0,0.008,0,0.008,0c35.525,0,57.109-5.36,60.765-15.106
				c2.264-6.004-2.635-13.704-14.18-22.364l7.223,17.009l-45.73-13.354c0.039,0.946-0.096,1.865-0.43,2.729
				c-3.41,9.074-25.562,10.979-43.545,10.979c-35.675,0-86.881-7.055-140.491-19.351c-24.943-5.723-48.644-12.161-70.478-19.156
				L146.984,265.679z"/>
			<path fill="#939598" d="M392.375,314.143h-0.008c-42.659,0-101.111-7.795-160.368-21.393
				c-30.82-7.067-59.957-15.209-86.603-24.194L144,268.103l-2.256-20.434l3.41,1.113c22.042,7.104,46.117,13.666,71.557,19.507
				c53.371,12.248,104.314,19.272,139.767,19.272c33.565,0,39.518-6.208,40.518-8.874c0.266-0.717,0.301-1.517,0.107-2.368
				l-0.885-3.848l44.311,12.949l-9.018-21.23l6.635,4.668c15.006,10.528,21.074,19.977,18.033,28.082
				C451.883,308.357,430.418,314.143,392.375,314.143z M148.274,264.641c26.033,8.722,54.545,16.657,84.76,23.593
				c58.99,13.521,117.065,21.278,159.333,21.278c34.406,0,56.078-5.178,59.464-14.199c1.73-4.588-1.521-10.525-9.42-17.322
				l6.211,14.625l-46.9-13.697c-0.088,0.484-0.223,0.956-0.398,1.409c-2.955,7.87-18.049,11.87-44.846,11.87
				c-35.767,0-87.088-7.067-140.802-19.388c-24.234-5.559-47.283-11.791-68.544-18.532L148.274,264.641z"/>
		</g>
	</g>
	<g>
		<g>
			<path fill="#939598" d="M392.375,315.663c0,0,0,0-0.008,0c-42.75,0-101.331-7.814-160.718-21.424
				c-30.832-7.08-60.016-15.229-86.746-24.231l-2.32-0.779l-2.611-23.717l5.643,1.814c22.078,7.123,46.109,13.681,71.43,19.491
				c53.283,12.217,104.096,19.22,139.421,19.22c0,0,0,0,0.012,0c26.658,0,37.729-4.25,39.089-7.896
				c0.107-0.262,0.227-0.716,0.048-1.488l-1.456-6.366l43.712,12.785l-9.84-23.181l10.99,7.718
				c15.65,10.995,21.898,21.038,18.58,29.872C453.061,309.548,431.111,315.663,392.375,315.663z M149.683,263.506
				c25.846,8.619,53.992,16.436,83.69,23.239c58.847,13.499,116.79,21.242,158.995,21.242c49.248,0,56.884-10.107,58.046-13.211
				c0.004-0.017,0.008-0.024,0.016-0.04l-47.652-13.932c-0.008,0.016-0.012,0.027-0.023,0.043
				c-3.252,8.667-18.393,12.861-46.276,12.869h-0.012c-35.878,0-87.312-7.074-141.136-19.428
				c-23.399-5.363-45.715-11.367-66.436-17.867L149.683,263.506z M446.881,284.621l3.82,9.021
				C451.055,291.143,449.723,288.066,446.881,284.621z"/>
			<path fill="#939598" d="M392.375,317.06h-0.008c-42.822,0-101.518-7.822-161.029-21.46
				c-30.899-7.096-60.127-15.257-86.881-24.267l-3.163-1.066l-2.945-26.745l7.692,2.476c22.05,7.11,46.041,13.661,71.314,19.459
				c53.18,12.192,103.881,19.185,139.111,19.185c27.831,0,36.889-4.572,37.791-6.988c0.088-0.215,0.036-0.518-0.004-0.684
				l-1.989-8.692l43.167,12.627l-10.596-24.958l14.99,10.521c16.23,11.404,22.654,22.002,19.084,31.504
				C454.143,310.637,431.76,317.06,392.375,317.06z M143.873,268.189l1.477,0.493c26.665,8.981,55.806,17.12,86.614,24.194
				c59.316,13.594,117.781,21.39,160.404,21.39h0.008c37.56,0,59.667-5.973,63.917-17.278c3.066-8.157-3.018-17.657-18.076-28.238
				l-6.99-4.909l9.084,21.4l-44.258-12.944l0.924,4.046c0.203,0.876,0.166,1.64-0.117,2.329c-2.041,5.472-17.143,8.762-40.381,8.762
				c-35.44,0-86.372-7.02-139.743-19.256c-25.357-5.818-49.428-12.384-71.549-19.522l-3.589-1.154L143.873,268.189z
				 M392.368,309.384c-42.292,0-100.355-7.756-159.306-21.277c-29.742-6.812-57.939-14.644-83.821-23.275l-0.848-0.283
				l-1.122-10.099l2.041,0.641c20.705,6.493,43.021,12.495,66.328,17.839c53.706,12.324,105.032,19.392,140.826,19.392
				c26.876-0.008,42.006-4.031,44.979-11.962l0.711-1.397l1.012,0.503l45.666,13.35l-6.982-16.49l6.107,7.41
				c3.119,3.784,4.514,7.159,4.135,10.031l0.33,0.101l-0.482,0.966l-0.564,3.991l-0.699-1.651
				C447.246,301.839,435.025,309.384,392.368,309.384z M150.972,262.464c25.563,8.492,53.387,16.2,82.71,22.921
				c58.756,13.478,116.595,21.206,158.685,21.206c42.662,0,53.339-7.577,55.982-11.007l-44.779-13.093
				c-4.23,8.571-19.277,12.615-47.092,12.623c-36.005,0-87.562-7.096-141.462-19.463c-22.61-5.187-44.302-10.987-64.497-17.259
				L150.972,262.464z"/>
		</g>
		<g>
			<path fill="#939598" d="M392.375,316.586h-0.008c-42.818-0.008-101.474-7.826-160.913-21.451
				c-30.876-7.092-60.097-15.245-86.842-24.26l-2.88-0.967l-2.826-25.715l6.992,2.262c22.049,7.111,46.065,13.652,71.354,19.455
				c53.224,12.207,103.956,19.204,139.214,19.204c28.094,0,37.294-4.764,38.245-7.286c0.044-0.115,0.144-0.387,0.012-0.959
				l-1.818-7.907l43.355,12.678l-10.33-24.342l13.621,9.559c16.037,11.261,22.4,21.672,18.906,30.943
				C453.773,310.271,431.541,316.586,392.375,316.586z M143.436,268.536l1.763,0.597c26.686,8.992,55.842,17.132,86.658,24.202
				c59.324,13.609,117.825,21.409,160.511,21.417l0.008,0.911v-0.911c38.318,0,59.976-5.925,64.367-17.597
				c3.15-8.388-2.984-18.074-18.25-28.787l-8.354-5.86l9.344,21.986l-44.079-12.891l1.114,4.851
				c0.168,0.752,0.139,1.405-0.084,2.014c-1.543,4.1-12.852,8.488-39.956,8.488c-35.4,0-86.276-7.015-139.64-19.252
				c-25.333-5.811-49.392-12.371-71.501-19.511l-4.294-1.376L143.436,268.536z M392.368,308.91
				c-42.269,0-100.304-7.751-159.198-21.258c-29.726-6.82-57.915-14.652-83.773-23.271l-0.565-0.182l-1.003-9.074l1.35,0.422
				c20.664,6.486,42.989,12.492,66.359,17.844c53.757,12.327,105.123,19.403,140.929,19.403c27.469,0,42.333-4.011,45.432-12.261
				l0.303-0.812l0.838,0.195l46.627,13.625l-6.107-14.365l4.027,4.854c3.051,3.701,4.408,6.973,4.031,9.733l-0.045,0.342
				l0.033,0.017l-0.068,0.207l-0.375,2.733l-0.4-0.927C448.039,300.737,436.955,308.91,392.368,308.91z M150.526,262.821
				c25.659,8.528,53.598,16.276,83.049,23.037c58.783,13.475,116.658,21.21,158.792,21.21c44.974,0,54.689-8.536,56.75-11.768
				l-45.814-13.387c-4.031,8.572-19.368,12.714-46.825,12.714c-35.946,0-87.47-7.078-141.354-19.438
				c-22.905-5.253-44.82-11.127-65.15-17.47L150.526,262.821z"/>
			<path fill="#939598" d="M392.375,317.982h-0.008c-42.921-0.008-101.688-7.839-161.223-21.487
				c-31.004-7.119-60.268-15.293-86.977-24.294l-3.725-1.253l-3.16-28.747l9.045,2.925c21.95,7.078,45.918,13.613,71.234,19.422
				c53.108,12.182,103.738,19.17,138.904,19.17c28.671,0,36.431-5.034,36.939-6.383l-2.395-10.383l42.809,12.52l-11.082-26.121
				l17.615,12.363c16.627,11.677,23.156,22.636,19.408,32.579C454.855,311.357,432.186,317.982,392.375,317.982z M392.368,313.355
				h0.008c30.716,0,50.943-3.948,59.347-11.489l-1.301-3c-5.309,5.619-19.992,11.44-58.054,11.44
				c-42.364,0-100.502-7.76-159.508-21.293c-29.77-6.829-57.995-14.671-83.905-23.308l-1.413-0.457l-1.337-12.093l3.39,1.058
				c20.653,6.482,42.945,12.477,66.252,17.815c53.673,12.309,104.928,19.368,140.619,19.368c26.446,0,41.293-3.82,44.124-11.354
				l0.73-1.962l2.035,0.475l43.871,12.817l-8.691-20.439l10.125,12.205c3.084,3.741,4.561,7.147,4.404,10.151l0.211,0.107
				l-0.342,1.158l-0.992,7.111c1.645-1.524,2.811-3.196,3.492-5.007c2.9-7.715-3.07-16.853-17.744-27.15l-4.355-3.056l8.588,20.207
				l-44.625-13.049l0.582,2.527c0.227,1.026,0.184,1.941-0.131,2.809c-2.256,5.98-17.294,9.404-41.27,9.404
				c-35.488,0-86.495-7.032-139.95-19.288c-25.408-5.826-49.507-12.403-71.62-19.543l-2.241-0.717l2.058,18.691l0.923,0.314
				c26.591,8.961,55.699,17.091,86.523,24.162C291.368,305.556,349.757,313.348,392.368,313.355z M151.819,261.779
				c25.361,8.396,52.965,16.037,82.07,22.717c58.704,13.459,116.468,21.175,158.478,21.175c38.376,0,50.509-6.195,54.279-9.638
				l-42.643-12.46c-4.998,8.488-20.176,12.452-47.526,12.452c-36.077,0-87.709-7.1-141.666-19.475
				c-22.204-5.09-43.462-10.766-63.22-16.865L151.819,261.779z"/>
		</g>
	</g>
</g>
<g>
	<g>
		<path fill="#939598" d="M142.846,247.143l-25.468-9.694c-45.56-17.321-59.476-30.601-57.713-35.289
			c1.369-3.636,12.428-7.886,39.098-7.886c4.329,0,8.977,0.111,13.86,0.325l3.653-12.236c-4.246-0.123-8.389-0.203-12.336-0.203
			c-38.747,0-60.701,6.125-65.237,18.186c-4.011,10.665,4.293,28.571,64.704,54.047c2.383,1.012,29.805,11.827,32.36,12.854
			l-21.409-16.555l-10.326-6.805L142.846,247.143z M78.608,234.063C57.552,222.71,42.9,210.998,45.89,203.047
			c0.525-1.38,2.315-4.149,8.52-6.8c-0.855,0.996-1.496,2.062-1.926,3.208c-3.837,10.183,9.343,22.157,39.212,35.703L78.608,234.063
			z"/>
		<path fill="#939598" d="M144.573,272.293l-9.328-3.749c-0.832-0.339-4.317-1.715-8.715-3.454
			c-9.308-3.681-22.049-8.723-23.669-9.412c-49.519-20.879-71.544-39.666-65.468-55.825c4.768-12.667,27.156-19.089,66.547-19.089
			c3.959,0,8.118,0.079,12.376,0.203l1.818,0.052l-4.485,15.026l-1.086-0.047c-4.903-0.22-9.542-0.327-13.8-0.327
			c-27.812,0-36.881,4.568-37.788,6.983c-1.226,3.248,11.408,16.193,56.901,33.49l34.731,13.221l-43.231-3.626l5.75,3.788
			L144.573,272.293z M103.94,183.557c-37.573,0-59.678,5.977-63.928,17.282c-7.151,19.001,36.992,40.904,63.936,52.269
			c1.568,0.661,14.39,5.734,23.152,9.2l-13.598-10.51l-14.815-9.761l34.398,2.885l-16.204-6.167
			c-43.796-16.654-60.952-30.626-58.524-37.088c2.073-5.503,17.179-8.791,40.407-8.791c3.979,0,8.293,0.097,12.833,0.283l2.821-9.45
			C110.821,183.616,107.311,183.557,103.94,183.557z M99.63,237.223l-21.687-1.931c-17.322-9.34-37.172-22.603-33.363-32.738
			c0.756-1.977,2.972-4.897,9.28-7.593l5.527-2.359l-3.919,4.556c-0.745,0.865-1.31,1.803-1.675,2.786
			c-3.475,9.216,9.833,20.952,38.48,33.94L99.63,237.223z M79.014,232.693l5.07,0.426c-25.432-12.439-36.292-23.43-33.137-33.49
			c-2.642,1.723-3.485,3.22-3.752,3.917C44.859,209.765,56.745,220.652,79.014,232.693z"/>
	</g>
	<g>
		<path fill="#939598" d="M141.597,270.598l-6.184-2.499c-0.944-0.387-5.333-2.117-10.597-4.194
			c-9.025-3.582-20.267-8.019-21.771-8.66c-33.844-14.277-72.632-35.447-65.202-55.225c4.688-12.459,26.924-18.774,66.097-18.774
			c3.868,0,8.034,0.072,12.368,0.207l1.193,0.04l-4.194,14.056l-0.72-0.032c-4.879-0.215-9.531-0.323-13.824-0.323
			c-28.079,0-37.287,4.771-38.23,7.286c-1.333,3.537,10.908,16.514,57.179,34.118l31.561,12.003l-41.724-3.485l7.306,4.811
			L141.597,270.598z M103.94,183.091c-38.329,0-59.989,5.909-64.374,17.581c-3.82,10.155,4.218,27.577,64.194,52.876
			c1.489,0.638,12.71,5.069,21.728,8.636c1.628,0.656,3.167,1.254,4.552,1.811l-16.239-12.575l-13.292-8.75l35.901,3.017
			l-19.359-7.377c-43.494-16.535-60.598-30.236-58.246-36.477c1.541-4.09,12.846-8.484,39.957-8.484
			c4.118,0,8.543,0.097,13.188,0.303l3.104-10.406C111.175,183.139,107.434,183.091,103.94,183.091z M96.924,236.518l-18.754-1.644
			c-17.151-9.251-36.829-22.335-33.145-32.156c0.585-1.537,2.523-4.545,9.018-7.315l3.641-1.559l-2.586,3
			c-0.764,0.907-1.361,1.886-1.751,2.937c-3.621,9.621,9.407,21.237,38.723,34.536L96.924,236.518z M78.882,233.159l7.721,0.645
			c-27.395-13.036-38.843-24.401-34.979-34.668c0.08-0.214,0.16-0.422,0.259-0.628c-3.721,2.093-4.819,4.026-5.133,4.866
			C44.278,209.944,55.989,220.799,78.882,233.159z"/>
		<path fill="#939598" d="M150.467,275.688l-15.58-6.296c-0.899-0.366-4.906-1.946-9.813-3.884l-8.309-3.291
			c-6.852-2.714-13.167-5.217-14.271-5.688c-34.401-14.513-73.777-36.188-65.961-57c4.915-13.061,27.593-19.682,67.406-19.682
			c3.88,0,8.062,0.072,12.412,0.207l3.004,0.1l-5.022,16.836l-1.806-0.079c-4.839-0.215-9.467-0.323-13.765-0.323
			c-28.667,0-36.416,5.034-36.92,6.379c-0.498,1.604,7.318,13.661,56.368,32.324l40.824,15.523l-46.136-3.855l2.725,1.798
			L150.467,275.688z M103.94,184.488c-37.159,0-58.966,5.766-63.064,16.673c-2.953,7.847,1.361,24.918,63.427,51.102
			c1.234,0.526,9.24,3.693,17.083,6.797l-8.44-6.534L95.158,240.82l31.504,2.646l-10.107-3.852
			c-39.642-15.07-62.273-29.739-59.054-38.274c2.245-5.965,17.283-9.387,41.262-9.387c3.923,0,8.01,0.087,12.161,0.259l2.272-7.616
			C109.977,184.52,106.873,184.488,103.94,184.488z M104.955,238.623l-27.449-2.52c-25.659-13.843-37.028-25.24-33.789-33.876
			c0.82-2.149,3.18-5.292,9.777-8.11l9.193-3.936l-6.53,7.573c-0.668,0.796-1.178,1.644-1.5,2.511
			c-3.271,8.69,9.869,20.02,37.991,32.778L104.955,238.623z M79.288,231.79l0.127,0.012c-0.892-0.457-1.763-0.919-2.611-1.372
			C77.613,230.879,78.44,231.333,79.288,231.79z M49.55,201.866c-1.031,0.971-1.385,1.711-1.492,1.997
			c-1.269,3.371,2.666,9.757,15.845,18.699C53.637,215.276,48.898,208.42,49.55,201.866z"/>
	</g>
</g>
<g>
	<g>
		<g>
			<path fill="#939598" d="M413.303,252.614c-27.051-13.136-63.156-26.076-104.406-37.445l-2.917-0.8l8.257,20.378
				c29.825,9.737,54.262,20.06,68.975,29.157l1.245,0.771l39.571-6.863L413.303,252.614z M386,256.614
				c-15.659-9.444-39.913-19.603-70.351-29.492l-1.027-2.371c32.237,9.188,60.98,19.295,84.256,29.625L386,256.614z"/>
			<path fill="#939598" d="M384.174,266.144l-1.699-1.054c-14.572-9.01-38.961-19.316-68.672-29.014l-0.616-0.202l-9.563-23.599
				l5.643,1.544c41.374,11.405,77.558,24.385,104.646,37.537l14.629,7.092L384.174,266.144z M315.287,233.622
				c29.634,9.708,54.004,20.031,68.66,29.092l0.792,0.493l34.774-6.032l-6.82-3.304c-26.939-13.08-62.96-25.996-104.167-37.357
				l-0.191-0.052L315.287,233.622z M385.726,258.078l-0.445-0.266c-15.516-9.359-39.742-19.513-70.061-29.361l-0.601-0.194
				l-2.451-5.658l2.837,0.807c32.523,9.272,60.936,19.261,84.438,29.694l4.205,1.867L385.726,258.078z M335.666,232.503
				c21.19,7.668,38.456,15.384,50.609,22.646l7.784-1.354C377.162,246.526,357.322,239.296,335.666,232.503z"/>
		</g>
	</g>
	<g>
		<g>
			<path fill="#939598" d="M384.27,265.635l-1.54-0.946c-23.26-14.378-47.789-22.289-67.717-28.795l-0.879-0.18l-8.734-22.61
				l3.748,1.178c41.29,11.382,77.45,24.354,104.562,37.497L427,258.229L384.27,265.635z M314.921,234.003
				c29.702,9.726,54.115,20.061,68.779,29.121l0.947,0.58l36.411-6.313l-8.158-3.949c-27.003-13.104-63.061-26.036-104.243-37.377
				l-1.126-0.319L314.921,234.003z M385.821,257.577l-0.286-0.183c-15.595-9.377-39.857-19.548-70.168-29.4l-0.394-0.123
				l-1.966-4.545l1.862,0.533c32.03,9.133,61.207,19.396,84.382,29.679l2.766,1.236L385.821,257.577z M316.334,226.37
				c30.072,9.793,54.203,19.913,69.85,29.272l9.526-1.654c-22.166-9.631-49.531-19.218-79.468-27.824L316.334,226.37z"/>
			<path fill="#939598" d="M383.987,267.103l-1.99-1.225c-22.797-14.092-47.076-22.018-66.586-28.385l-2.304-0.562l-10.056-26.029
				l6.514,2.046c41.302,11.385,77.542,24.38,104.753,37.572l17.189,8.346L383.987,267.103z M315.972,232.877
				c29.526,9.702,53.821,20.012,68.465,29.057l0.493,0.307l31.613-5.483l-4.25-2.058c-26.603-12.908-61.983-25.639-102.401-36.845
				l1.433,3.539l3.931,1.125c32.082,9.145,61.322,19.431,84.561,29.742l6.953,3.112l-21.242,3.672l-0.745-0.473
				c-15.496-9.316-39.658-19.436-69.849-29.248l-0.458-0.144L315.972,232.877z M366.076,243.744
				c7.812,3.538,14.644,7.036,20.378,10.435l4.373-0.761C383.127,250.172,374.838,246.937,366.076,243.744z"/>
		</g>
	</g>
</g>
<g>
	<polygon fill="#1C75BC" stroke="#1C75BC" stroke-width="2.7936" stroke-miterlimit="10" points="351.324,256.721 434.924,281.357 
		418.488,245.09 	"/>
</g>
<g>
	<g>
		<g>
			<path fill="#939598" d="M420.76,240.791l-31.194,5.408l8.043,3.339l-25.306,4.676l-6.809-3.848l-28.917,5.618l105.302,31.425
				L420.76,240.791z M416.217,249.372l11.742,25.933l-59.758-17.609L416.217,249.372z"/>
		</g>
	</g>
	<g>
		<g>
			<path fill="#939598" d="M443.551,288.862l-107.666-32.878l29.761-6.581l6.813,3.844l21.926-4.043l-8.099-3.367l35.014-6.067
				L443.551,288.862z M340.425,256.168l99.774,29.781l-19.988-44.123l-27.366,4.739l7.979,3.315l-28.691,5.3l-6.805-3.844
				L340.425,256.168z M429.631,276.757l-65.477-19.299l52.612-9.109L429.631,276.757z M372.252,257.927l54.043,15.925
				l-10.625-23.446L372.252,257.927z"/>
			<path fill="#939598" d="M446.102,291.099l-108.518-33.136l0.414-2.216l-1.867-1.25l29.738-6.57l6.836,3.859l16.793-3.104
				l-8.189-3.398l40.82-7.075L446.102,291.099z M346.275,256.454l91.385,27.275l-18.271-40.344l-21.564,3.732l5.256,2.181
				l14.508-2.51l14.574,32.168l-74.148-21.854l11.242-1.946l-4.167-2.348L346.275,256.454z M378.392,258.277l45.375,13.374
				l-8.92-19.686L378.392,258.277z"/>
		</g>
	</g>
</g>
<g>
	<g>
		<polygon fill="#FFFFFF" points="166.471,283.017 102.75,243.005 157.167,248.349 		"/>
		<path fill="#939598" d="M168.744,286.093l-71.756-45.059l61.279,6.017L168.744,286.093z M108.512,244.974l55.688,34.968
			l-8.13-30.296L108.512,244.974z"/>
	</g>
</g>
<g>
	<path fill="#FFFFFF" d="M436.812,270.752l7.756,18.27l-45.07-12.542c0.199,0.954,0.092,1.894-0.354,3.056
		c-6.307,16.8-88.214,12.741-182.958-8.981c-26.041-5.974-50.332-12.666-71.749-19.575l1.695,15.393
		c25.699,8.651,54.943,16.913,86.384,24.115c113.682,26.08,212.852,28.603,221.487,5.643
		C456.693,288.989,450.303,280.219,436.812,270.752z"/>
</g>
<path fill="#FFFFFF" d="M56.077,200.811c3.056-8.137,23.884-11.369,55.277-10.096l1.354-4.604
	c-39.555-0.915-66.121,4.198-70.412,15.58c-5.109,13.629,22.731,33.136,69.949,52.209l-22.921-15.089l26.689,2.228
	C76.148,225.877,52.316,210.792,56.077,200.811z"/>
<path fill="#FFFFFF" d="M251.666,204.966c-20.562-4.474-40.589-8.209-59.563-11.106l2.221,7.035
	c13.992,2.523,28.508,5.464,43.371,8.866c6.603,1.504,13.044,3.076,19.4,4.671L251.666,204.966z"/>
<g>
	<path fill="#FFFFFF" d="M310.731,219.328l4.453,11.445c29.833,9.801,52.846,19.673,67.692,28.85l26.399-4.58
		C384.027,242.797,350.616,230.528,310.731,219.328z"/>
</g>
<g>
	<polygon fill="#FFFFFF" points="351.324,256.721 434.924,281.357 418.488,245.09 	"/>
</g>
</svg>
