<?xml version="1.0" encoding="utf-8"?>
<!-- Generator: Adobe Illustrator 16.0.0, SVG Export Plug-In . SVG Version: 6.00 Build 0)  -->
<!DOCTYPE svg PUBLIC "-//W3C//DTD SVG 1.1//EN" "http://www.w3.org/Graphics/SVG/1.1/DTD/svg11.dtd">
<svg version="1.1" id="Layer_1" xmlns="http://www.w3.org/2000/svg" xmlns:xlink="http://www.w3.org/1999/xlink" x="0px" y="0px"
	 width="500px" height="500px" viewBox="0 0 500 500" enable-background="new 0 0 500 500" xml:space="preserve">
<g>
	<g>
		<path fill="#A7A9AC" d="M111.709,250.328l-23.566-15.514l13.221,1.103l-0.016,0.047l37.198,3.529l11.654-45.055l15.128,54.667
			c14.061,4.109,29.03,8.102,44.687,11.846l-20.582-66.39c16.685,2.864,34.709,6.251,52.687,10.367
			c9.137,2.104,18.062,4.284,26.733,6.53l18.625,32.998l-16.598,29.02c12.483,2.146,24.482,3.933,35.838,5.354
			c1.211-2.926,2.363-5.83,3.439-8.832h0.53c1.621,3.351,3.179,6.591,4.743,9.859c16.138,1.801,30.783,2.808,43.4,2.994
			l-22.862-39.439l5.497-9.518c14.253,5.313,26.681,10.642,36.757,15.761l-20.636,3.571l85.971,25.346l-16.898-37.306l-23.076,3.998
			c-25.262-11.067-57.271-22.27-93.317-32.205c-3.299-7.601-6.624-14.812-10.791-23.351l-15.385-32.068h-45.615l24.742,43.827
			c-26.266-5.907-52.268-10.72-76.028-14.146l-9.209-29.681h-52.13l-7.237,23.146c-0.907-0.029-2.873-0.079-3.891-0.112
			c-42.083-1.216-70.449,4.012-74.945,15.97c-4.784,12.722,18.424,30.453,59.125,48.295l-26.758,88.406h41.194l12.512-45.095
			l6.305-24.307l-21.037-13.857C111.318,250.165,111.513,250.247,111.709,250.328z M53.943,195.731
			c3.222-8.581,25.654-11.877,59.355-10.281c1.248,0.061,2.491,0.178,3.772,0.259l-14.458,46.234
			C69.526,218.145,50.502,204.862,53.943,195.731z"/>
	</g>
	<g>
		<path fill="#A7A9AC" d="M445.436,267.749l7.98,18.786l-46.5-13.591c0.301,1.328,0.252,2.602-0.207,3.8
			c-6.488,17.271-90.743,13.143-188.172-9.202c-20.855-4.781-40.593-10.021-58.718-15.453l-1.981-7.385l-55.962-5.493l65.524,41.155
			l-3.048-11.358c2.337,0.725,4.698,1.446,7.079,2.164l4.727,17.08l13.559,45.095h42.759l-15.405-49.676
			c6.004,1.494,12.078,2.962,18.267,4.38c8.146,1.866,16.225,3.616,24.21,5.25l-22.901,40.046h45.364l14.596-31.802
			c0.187-0.438,0.372-0.855,0.569-1.282c10.557,1.738,20.831,3.244,30.766,4.521l14.288,28.563h45.88l-14.005-24.153
			c49.762,2.892,84.031-2.104,89.01-15.346C465.871,286.503,459.305,277.488,445.436,267.749z"/>
	</g>
	<g>
		<path fill="#A7A9AC" d="M385.504,157.641h-45.367l-14.853,32.068c-3.181,7.301-5.834,13.408-8.614,20.409
			c11.856,2.627,26.754,7.601,32.9,9.737L385.504,157.641z"/>
	</g>
</g>
</svg>
