<?xml version="1.0" encoding="utf-8"?>
<!-- Generator: Adobe Illustrator 16.0.0, SVG Export Plug-In . SVG Version: 6.00 Build 0)  -->
<!DOCTYPE svg PUBLIC "-//W3C//DTD SVG 1.1//EN" "http://www.w3.org/Graphics/SVG/1.1/DTD/svg11.dtd">
<svg version="1.1" id="Layer_1" xmlns="http://www.w3.org/2000/svg" xmlns:xlink="http://www.w3.org/1999/xlink" x="0px" y="0px"
	 width="500px" height="500px" viewBox="0 0 500 500" enable-background="new 0 0 500 500" xml:space="preserve">
<g>
	<g>
		<g>
			<path fill="#1C75BC" d="M261.095,201.638c-25.776-5.801-50.763-10.396-74.042-13.742l2.048,6.795
				c16.392,2.807,33.637,6.251,51.336,10.309c8.914,2.043,17.625,4.17,26.082,6.367L261.095,201.638z"/>
			<path fill="#1C75BC" d="M269.337,213.547l-3.168-0.826c-8.493-2.202-17.253-4.343-26.043-6.357
				c-17.374-3.981-34.62-7.444-51.26-10.292l-0.859-0.147l-2.935-9.727l2.176,0.313c23.878,3.43,48.825,8.059,74.149,13.759
				l0.618,0.137L269.337,213.547z M190.192,193.457c16.43,2.829,33.435,6.252,50.559,10.177c7.728,1.771,15.432,3.639,22.953,5.561
				l-3.526-6.328c-24.282-5.448-48.202-9.909-71.151-13.269L190.192,193.457z"/>
		</g>
		<g>
			<path fill="#1C75BC" d="M268.376,212.806l-2.085-0.542c-8.604-2.236-17.375-4.369-26.062-6.364
				c-17.316-3.968-34.577-7.442-51.29-10.295l-0.559-0.098l-2.626-8.728l1.427,0.204c23.849,3.426,48.792,8.051,74.114,13.757
				l0.398,0.087L268.376,212.806z M189.814,193.874c16.574,2.854,33.674,6.283,50.83,10.221c8.002,1.837,16.076,3.803,24.023,5.842
				l-4.178-7.486c-24.634-5.539-48.887-10.058-72.141-13.431L189.814,193.874z"/>
			<path fill="#1C75BC" d="M271.198,214.986l-5.259-1.367c-8.453-2.196-17.209-4.334-26.025-6.356
				c-17.414-3.992-34.649-7.45-51.213-10.279l-1.416-0.246l-3.504-11.656l3.601,0.513c23.964,3.448,48.938,8.082,74.221,13.775
				l1.005,0.23L271.198,214.986z M190.904,192.644c16.464,2.849,33.301,6.243,50.054,10.089c6.816,1.561,13.833,3.254,20.898,5.042
				l-2.282-4.094c-23.646-5.299-46.92-9.656-69.247-12.958L190.904,192.644z"/>
		</g>
	</g>
	<g>
		<g>
			<path fill="#1C75BC" d="M274.273,217.35l-8.715-2.261c-8.589-2.22-17.333-4.355-25.981-6.341
				c-17.257-3.961-34.457-7.41-51.127-10.266l-2.347-0.402l-4.478-14.848l5.975,0.857c23.934,3.435,48.944,8.083,74.337,13.794
				l1.682,0.381L274.273,217.35z M244.127,201.904c4.888,1.131,9.797,2.312,14.672,3.527l-0.229-0.419
				C253.736,203.944,248.919,202.897,244.127,201.904z"/>
			<path fill="#1C75BC" d="M277.095,219.528l-11.886-3.081c-8.685-2.244-17.408-4.376-25.946-6.335
				c-17.163-3.938-34.335-7.385-51.052-10.248l-3.207-0.549l-5.354-17.785l8.148,1.174c23.88,3.426,48.932,8.074,74.45,13.809
				l2.285,0.522L277.095,219.528z M187.193,196.848l1.49,0.256c16.767,2.872,33.996,6.327,51.213,10.278
				c8.556,1.966,17.311,4.101,26.01,6.353l5.546,1.436l-8.759-15.682l-1.065-0.242c-25.442-5.72-50.416-10.354-74.229-13.771
				l-3.8-0.547L187.193,196.848z M261.585,207.569l-3.124-0.775c-4.87-1.215-9.767-2.397-14.649-3.524l0.595-2.735
				c4.809,0.989,9.629,2.04,14.464,3.11l0.616,0.138L261.585,207.569z"/>
		</g>
		<g>
			<path fill="#1C75BC" d="M276.126,218.788l-10.804-2.799c-8.551-2.217-17.279-4.347-25.951-6.344
				c-17.248-3.952-34.438-7.402-51.083-10.246l-2.906-0.502l-5.062-16.78l7.405,1.057c23.956,3.443,48.989,8.09,74.418,13.814
				l2.073,0.465L276.126,218.788z M186.82,197.272l1.789,0.309c16.678,2.844,33.899,6.309,51.174,10.27
				c8.687,1.985,17.438,4.129,26.001,6.347l6.631,1.721l-9.398-16.843l-1.287-0.292c-25.369-5.713-50.359-10.345-74.262-13.784
				l-4.541-0.648L186.82,197.272z M260.64,206.847l-2.058-0.511c-4.881-1.223-9.785-2.404-14.665-3.537l0.398-1.804
				c4.798,1.005,9.621,2.041,14.452,3.125l0.408,0.083L260.64,206.847z"/>
			<path fill="#1C75BC" d="M278.94,220.967l-13.964-3.623c-8.452-2.191-17.172-4.322-25.916-6.335
				c-17.268-3.955-34.428-7.396-51.004-10.229l-3.764-0.651l-5.946-19.709l9.58,1.368c23.993,3.449,49.067,8.102,74.524,13.834
				l2.683,0.603L278.94,220.967z M187.916,196.042l0.933,0.161c16.551,2.821,33.795,6.283,51.246,10.285
				c8.499,1.94,17.261,4.08,26.04,6.355l3.459,0.9l-7.498-13.442l-0.674-0.151c-25.268-5.69-50.221-10.319-74.153-13.762
				l-2.368-0.339L187.916,196.042z M263.424,208.983l-5.183-1.29c-4.867-1.221-9.77-2.399-14.639-3.529l-1.35-0.315l0.992-4.51
				l1.359,0.287c4.805,1.005,9.627,2.039,14.469,3.128l1.016,0.201L263.424,208.983z"/>
		</g>
	</g>
	<g>
		<path fill="#1C75BC" stroke="#1C75BC" stroke-width="2.8011" stroke-miterlimit="10" d="M127.147,286.139l-12.206,43.974H74.79
			l52.357-171.299h50.829l53.125,171.299h-41.688l-13.212-43.974l-25.326-91.459L127.147,286.139z"/>
	</g>
	<g>
		<path fill="#1C75BC" stroke="#1C75BC" stroke-width="2.8011" stroke-miterlimit="10" d="M236.32,333.966h-49.769l-14.038-46.713
			l-21.511-77.714l-20.135,77.569l-12.996,46.857H69.586l54.711-179.011h56.516L236.32,333.966z M192.271,326.263h33.609
			l-50.737-163.609h-45.151L79.986,326.263h32.03l11.419-41.149l27.323-105.296l29.152,105.296L192.271,326.263z"/>
		<path fill="#1C75BC" stroke="#1C75BC" stroke-width="2.8011" stroke-miterlimit="10" d="M237.572,334.883h-51.706l-14.229-47.361
			l-20.606-74.42l-19.269,74.245l-13.192,47.536H68.334l55.277-180.845h57.878l0.207,0.643L237.572,334.883z M187.235,333.037
			h47.833l-54.934-177.155h-55.147l-54.15,177.155h46.322l12.819-46.172l21-80.895l22.424,81.037L187.235,333.037z M227.126,327.185
			h-35.534l-12.568-41.803l-28.234-102.005l-26.466,101.974l-11.604,41.834H78.741l50.569-165.454h46.511l0.199,0.649
			L227.126,327.185z M192.963,325.345h31.661l-50.162-161.768h-43.789L81.23,325.345h30.089l11.23-40.471l28.184-108.62
			l30.063,108.62L192.963,325.345z"/>
	</g>
	<g>
		<g>
			<path fill="#1C75BC" stroke="#1C75BC" stroke-width="2.8011" stroke-miterlimit="10" d="M338.099,330.112l-15.498-31.011
				c-6.354-11.942-10.423-20.836-15.253-30.753h-0.509c-3.556,9.917-7.876,18.811-13.212,30.753l-14.235,31.011h-44.23
				l49.564-86.671l-47.785-84.628h44.484l14.991,31.258c5.087,10.417,8.894,18.803,12.963,28.462h0.516
				c4.059-10.928,7.364-18.547,11.7-28.462l14.469-31.258h44.228l-48.292,83.618l50.84,87.682H338.099z"/>
			<path fill="#1C75BC" stroke="#1C75BC" stroke-width="2.8011" stroke-miterlimit="10" d="M384.445,331.037h-46.915l-15.753-31.519
				c-4.774-8.96-8.307-16.336-11.744-23.465c-0.933-1.97-1.88-3.943-2.857-5.943c-2.622,7.113-5.672,13.821-9.172,21.516
				c-1.126,2.501-2.307,5.092-3.542,7.854l-14.484,31.558h-46.404l0.792-1.378l49.308-86.218l-48.311-85.557h46.641l15.25,31.785
				c4.749,9.744,8.485,17.91,12.349,27.014c3.933-10.462,7.283-18.14,11.133-26.985l14.742-31.814h46.417l-48.827,84.546
				L384.445,331.037z M338.672,329.193h42.567l-50.304-86.763l0.266-0.463l47.493-82.243h-42.039l-14.235,30.727
				c-4.018,9.222-7.497,17.205-11.663,28.41l-0.227,0.598h-1.759l-0.233-0.566c-4.082-9.68-7.951-18.17-12.944-28.421l-14.75-30.747
				h-42.318l47.269,83.731l-0.269,0.442l-48.773,85.295H278.8l13.987-30.476c1.228-2.758,2.419-5.362,3.536-7.848
				c3.717-8.176,6.924-15.248,9.649-22.833l0.223-0.61h1.733l0.248,0.525c1.204,2.474,2.367,4.885,3.531,7.297
				c3.417,7.117,6.95,14.479,11.708,23.421L338.672,329.193z"/>
		</g>
		<g>
			<path fill="#1C75BC" stroke="#1C75BC" stroke-width="2.8011" stroke-miterlimit="10" d="M389.523,333.966h-53.798l-16.564-33.139
				c-4.743-8.897-8.281-16.27-11.706-23.396c-2.046,4.979-4.302,9.951-6.779,15.41c-1.127,2.483-2.305,5.079-3.541,7.83
				l-15.275,33.294h-53.326l51.768-90.534l-49.948-88.477h53.496l16.045,33.446c3.592,7.376,6.614,13.87,9.555,20.548
				c2.901-7.344,5.6-13.534,8.609-20.419l15.55-33.575h53.357l-50.519,87.476L389.523,333.966z M340.481,326.263h35.676
				l-48.601-83.832l46.07-79.777h-35.099l-13.45,29.026c-3.977,9.122-7.442,17.074-11.577,28.201l-0.932,2.505h-5.743l-0.998-2.357
				c-4.048-9.621-7.892-18.074-12.871-28.271l-13.953-29.104h-35.466l45.619,80.805l-47.355,82.805h35.121l13.207-28.762
				c1.22-2.736,2.41-5.343,3.534-7.844c3.688-8.117,6.867-15.135,9.555-22.603l0.917-2.549h5.626l1.047,2.158
				c1.209,2.484,2.369,4.912,3.538,7.323c3.4,7.089,6.92,14.42,11.652,23.311L340.481,326.263z"/>
			<path fill="#1C75BC" stroke="#1C75BC" stroke-width="2.8011" stroke-miterlimit="10" d="M391.126,334.883h-55.965l-16.826-33.639
				c-4.335-8.139-7.667-15.002-10.818-21.56c-1.857,4.402-3.873,8.858-6.002,13.537l-0.115,0.248
				c-1.089,2.408-2.229,4.918-3.418,7.583l-15.533,33.83h-55.504l0.792-1.378l51.504-90.084l-50.47-89.383h55.653l16.298,33.969
				c3.26,6.685,6.053,12.647,8.677,18.56c2.633-6.525,5.151-12.306,7.804-18.408l15.817-34.12h55.55l-51.056,88.393L391.126,334.883
				z M336.293,333.037h51.62l-52.534-90.606l0.272-0.466l49.72-86.083h-51.173l-15.306,33.039
				c-2.915,6.684-5.67,13.017-8.582,20.359l-0.813,2.062l-0.894-2.02c-2.894-6.574-5.921-13.092-9.541-20.51l-15.795-32.93h-51.331
				l49.432,87.555l-0.264,0.452l-50.98,89.147h51.146l15.031-32.744c1.193-2.655,2.328-5.172,3.414-7.579l0.118-0.249
				c2.427-5.346,4.721-10.397,6.778-15.383l0.787-1.915l0.896,1.863c3.411,7.12,6.952,14.48,11.679,23.365L336.293,333.037z
				 M377.764,327.185h-37.848l-14.74-29.481c-4.769-8.932-8.276-16.252-11.661-23.312l-0.184-0.378
				c-1.106-2.291-2.207-4.591-3.35-6.943l-0.805-1.646h-4.394l-0.697,1.938c-2.698,7.512-5.89,14.541-9.576,22.68
				c-1.138,2.497-2.318,5.104-3.544,7.842l-13.454,29.303h-37.31l0.792-1.372l47.101-82.356l-46.139-81.725h37.624l14.211,29.625
				c4.979,10.215,8.838,18.68,12.892,28.313l0.758,1.793h4.48l0.708-1.908c4.153-11.144,7.603-19.07,11.6-28.235l13.711-29.588
				h37.284l-46.599,80.7L377.764,327.185z M341.051,325.345h33.501l-48.061-82.914l0.267-0.463l45.268-78.391h-32.908
				l-13.203,28.502c-3.986,9.115-7.426,17.018-11.552,28.116l-1.155,3.114h-6.994l-1.226-2.922
				c-4.038-9.602-7.894-18.036-12.857-28.23l-13.713-28.58h-33.303l45.1,79.887l-0.254,0.449l-46.566,81.432h32.932l12.958-28.229
				c1.227-2.726,2.399-5.346,3.541-7.828c3.678-8.112,6.854-15.116,9.526-22.541l1.127-3.167h6.852l1.313,2.682
				c1.14,2.356,2.246,4.657,3.357,6.951l0.179,0.376c3.378,7.048,6.88,14.341,11.63,23.281L341.051,325.345z"/>
		</g>
	</g>
	<g>
		<path fill="#FFFFFF" stroke="#1C75BC" stroke-width="2.8011" stroke-miterlimit="10" d="M127.147,286.139l-12.206,43.974H74.79
			l52.357-171.299h50.829l53.125,171.299h-41.688l-13.212-43.974l-25.326-91.459L127.147,286.139z"/>
	</g>
	<g>
		<path fill="#FFFFFF" stroke="#1C75BC" stroke-width="2.8011" stroke-miterlimit="10" d="M338.099,330.112l-15.498-31.011
			c-6.354-11.942-10.423-20.836-15.253-30.753h-0.509c-3.556,9.917-7.876,18.811-13.212,30.753l-14.235,31.011h-44.23l49.564-86.671
			l-47.785-84.628h44.484l14.991,31.258c5.087,10.417,8.894,18.803,12.963,28.462h0.516c4.059-10.928,7.364-18.547,11.7-28.462
			l14.469-31.258h44.228l-48.292,83.618l50.84,87.682H338.099z"/>
	</g>
	<g>
		<g>
			<polygon fill="#1C75BC" stroke="#1C75BC" stroke-width="2.8011" stroke-miterlimit="10" points="162.414,275.183 
				103.772,238.333 158.336,243.692 			"/>
			<path fill="#1C75BC" stroke="#1C75BC" stroke-width="2.8011" stroke-miterlimit="10" d="M163.58,277.001l-63.615-39.965
				l59.186,5.808L163.58,277.001z M107.576,239.642l53.675,33.712l-3.74-28.81L107.576,239.642z"/>
		</g>
		<g>
			<path fill="#1C75BC" stroke="#1C75BC" stroke-width="2.8011" stroke-miterlimit="10" d="M167.278,282.776L87.9,232.909
				l73.858,7.253L167.278,282.776z M119.636,243.755l37.914,23.821l-2.64-20.351L119.636,243.755z"/>
			<path fill="#1C75BC" stroke="#1C75BC" stroke-width="2.8011" stroke-miterlimit="10" d="M172.465,286.994l-88.369-55.385
				l78.477,7.698L172.465,286.994z M91.697,234.209l74.424,46.753l-5.18-39.958L91.697,234.209z M158.712,269.396l-42.876-26.937
				l39.891,3.919L158.712,269.396z M123.445,245.063l32.939,20.689l-2.293-17.684L123.445,245.063z"/>
		</g>
	</g>
	<g>
		<g>
			<path fill="#1C75BC" stroke="#1C75BC" stroke-width="2.8011" stroke-miterlimit="10" d="M438.729,266.154l7.777,18.321
				l-45.339-13.26c0.303,1.3,0.253,2.54-0.192,3.704c-6.327,16.847-88.466,12.818-183.464-8.965
				c-26.11-5.988-50.465-12.697-71.938-19.626l1.702,15.434c25.765,8.675,55.089,16.957,86.61,24.181
				c113.987,26.149,213.422,28.679,222.079,5.657C458.663,284.439,452.255,275.648,438.729,266.154z"/>
			<path fill="#1C75BC" stroke="#1C75BC" stroke-width="2.8011" stroke-miterlimit="10" d="M394.172,308.259c0,0,0,0-0.007,0
				c-42.659,0-101.146-7.799-160.483-21.411c-30.849-7.071-60.016-15.22-86.703-24.223l-0.553-0.181l-1.924-17.429l1.354,0.443
				c22.215,7.156,46.39,13.744,71.864,19.594c53.623,12.302,104.823,19.356,140.458,19.356c24.667,0,39.563-3.481,41.938-9.807
				c0.358-0.974,0.42-2.041,0.16-3.176l-0.351-1.533l44.975,13.146l-8.279-19.494l2.637,1.852
				c14.464,10.149,20.37,19.082,17.576,26.526C451.752,305.431,419.959,308.259,394.172,308.259z M148.126,261.068
				c26.469,8.903,55.4,16.967,85.965,23.979c59.214,13.576,117.555,21.372,160.074,21.372c0.007,0,0.007,0,0.007,0
				c35.617,0,57.261-5.376,60.927-15.146c2.27-6.021-2.642-13.745-14.215-22.426l7.241,17.055l-45.853-13.394
				c0.038,0.952-0.096,1.874-0.434,2.74c-3.419,9.094-25.63,11.008-43.66,11.008c-35.77,0-87.114-7.074-140.866-19.405
				c-25.011-5.732-48.775-12.194-70.668-19.208L148.126,261.068z"/>
		</g>
		<g>
			<path fill="#1C75BC" stroke="#1C75BC" stroke-width="2.8011" stroke-miterlimit="10" d="M394.172,311.187c0,0,0,0-0.007,0
				c-42.866,0-101.602-7.837-161.148-21.482c-30.915-7.097-60.178-15.27-86.978-24.291l-2.327-0.789l-2.619-23.779l5.659,1.822
				c22.138,7.142,46.232,13.719,71.621,19.541c53.425,12.248,104.373,19.271,139.792,19.271c0,0,0,0,0.013,0
				c26.728,0,37.827-4.26,39.194-7.913c0.107-0.265,0.225-0.721,0.046-1.493l-1.458-6.387l43.827,12.822l-9.866-23.24l11.021,7.734
				c15.694,11.024,21.956,21.096,18.629,29.95C455.021,305.055,433.009,311.187,394.172,311.187z M150.831,258.89
				c25.916,8.641,54.134,16.48,83.913,23.302c59.005,13.536,117.103,21.298,159.421,21.298c49.378,0,57.036-10.138,58.201-13.249
				c0.004-0.014,0.008-0.019,0.017-0.038l-47.781-13.967c-0.007,0.016-0.011,0.028-0.022,0.044
				c-3.261,8.688-18.442,12.895-46.399,12.904h-0.013c-35.973,0-87.543-7.097-141.511-19.485
				c-23.461-5.377-45.838-11.395-66.615-17.913L150.831,258.89z M448.822,280.062l3.831,9.045
				C453.009,286.6,451.672,283.513,448.822,280.062z"/>
			<path fill="#1C75BC" stroke="#1C75BC" stroke-width="2.8011" stroke-miterlimit="10" d="M394.172,312.112h-0.007
				c-42.934-0.008-101.745-7.846-161.344-21.512c-30.959-7.108-60.257-15.283-87.071-24.32l-2.889-0.971l-2.836-25.783l7.012,2.267
				c22.108,7.132,46.189,13.692,71.543,19.509c53.367,12.239,104.234,19.256,139.586,19.256c28.171,0,37.395-4.778,38.348-7.308
				c0.045-0.115,0.144-0.385,0.012-0.963l-1.822-7.927l43.47,12.712l-10.357-24.407l13.658,9.584
				c16.079,11.292,22.459,21.733,18.955,31.029C455.734,305.779,433.441,312.112,394.172,312.112z M144.567,263.935l1.765,0.597
				c26.761,9.018,55.996,17.177,86.893,24.267c59.485,13.645,118.137,21.466,160.94,21.473l0.007,0.916v-0.916
				c38.418,0,60.135-5.939,64.537-17.641c3.16-8.412-2.991-18.122-18.298-28.866l-8.374-5.875l9.368,22.044l-44.198-12.922
				l1.117,4.865c0.168,0.751,0.139,1.406-0.083,2.016c-1.547,4.112-12.887,8.512-40.062,8.512
				c-35.495,0-86.507-7.033-140.014-19.305c-25.4-5.824-49.521-12.403-71.693-19.562l-4.301-1.381L144.567,263.935z
				 M394.165,304.417c-42.384,0-100.572-7.771-159.624-21.317c-29.803-6.836-58.07-14.689-83.998-23.332l-0.565-0.184l-1.007-9.097
				l1.353,0.422c20.721,6.502,43.106,12.525,66.538,17.893c53.901,12.362,105.403,19.454,141.304,19.454
				c27.542,0,42.447-4.02,45.555-12.292l0.303-0.814l0.842,0.197l46.748,13.662l-6.122-14.406l4.038,4.869
				c3.06,3.705,4.42,6.988,4.041,9.756l-0.043,0.347l0.031,0.017l-0.066,0.205l-0.378,2.741l-0.4-0.928
				C449.985,296.217,438.874,304.417,394.165,304.417z M151.677,258.201c25.729,8.554,53.741,16.321,83.269,23.1
				c58.942,13.51,116.972,21.267,159.218,21.267c45.094,0,54.832-8.555,56.899-11.801l-45.936-13.419
				c-4.042,8.596-19.42,12.749-46.949,12.749c-36.043,0-87.704-7.101-141.734-19.493c-22.963-5.269-44.936-11.155-65.324-17.516
				L151.677,258.201z"/>
		</g>
	</g>
	<g>
		<path fill="#1C75BC" stroke="#1C75BC" stroke-width="2.8011" stroke-miterlimit="10" d="M56.974,196.028
			c3.269-8.704,26.763-11.831,61.808-9.817l1.453-4.727c-43.234-1.646-72.547,3.401-77.076,15.427
			c-5.124,13.665,22.789,33.224,70.133,52.35L90.311,234.13l26.762,2.232C77.101,221.162,53.205,206.034,56.974,196.028z"/>
	</g>
	<g>
		<path fill="#1C75BC" stroke="#1C75BC" stroke-width="2.8011" stroke-miterlimit="10" d="M307.083,213.109l4.957,11.41
			c31.672,10.203,57.098,20.897,72.607,30.475l26.467-4.589C384.904,237.699,348.878,224.64,307.083,213.109z"/>
	</g>
	<g>
		<path fill="#1C75BC" stroke="#1C75BC" stroke-width="2.8011" stroke-miterlimit="10" d="M143.976,242.482l-25.535-9.718
			c-45.681-17.369-59.636-30.685-57.866-35.383c1.368-3.648,12.459-7.908,39.2-7.908c4.342,0,9.001,0.108,13.897,0.326l3.662-12.27
			c-4.255-0.125-8.41-0.203-12.369-0.203c-38.847,0-60.862,6.14-65.411,18.233c-4.023,10.695,4.305,28.648,64.878,54.194
			c2.388,1.011,29.884,11.856,32.446,12.885l-21.467-16.599l-10.354-6.824L143.976,242.482z M79.567,229.366
			c-21.113-11.382-35.803-23.124-32.807-31.097c0.525-1.386,2.321-4.16,8.543-6.815c-0.857,0.992-1.503,2.062-1.931,3.213
			c-3.849,10.21,9.367,22.217,39.316,35.798L79.567,229.366z"/>
		<path fill="#1C75BC" stroke="#1C75BC" stroke-width="2.8011" stroke-miterlimit="10" d="M142.723,266.003l-6.199-2.508
			c-0.948-0.389-5.348-2.125-10.627-4.207c-9.049-3.592-20.321-8.04-21.832-8.68c-33.932-14.316-72.822-35.544-65.374-55.373
			c4.7-12.495,26.997-18.829,66.273-18.829c3.879,0,8.057,0.075,12.4,0.209l1.198,0.038l-4.204,14.096l-0.723-0.033
			c-4.892-0.214-9.557-0.324-13.862-0.324c-28.153,0-37.388,4.784-38.332,7.306c-1.337,3.548,10.936,16.56,57.333,34.208
			l31.645,12.034l-41.838-3.495l7.328,4.826L142.723,266.003z M104.965,178.258c-38.429,0-60.146,5.928-64.546,17.628
			c-3.828,10.183,4.23,27.652,64.366,53.02c1.495,0.638,12.745,5.086,21.785,8.661c1.632,0.656,3.177,1.254,4.566,1.812
			l-16.284-12.608l-13.324-8.773l35.997,3.024l-19.41-7.397c-43.611-16.578-60.763-30.317-58.402-36.57
			c1.543-4.105,12.878-8.511,40.063-8.511c4.13,0,8.566,0.1,13.221,0.308l3.114-10.436
			C112.219,178.307,108.471,178.258,104.965,178.258z M97.931,231.83l-18.805-1.648c-17.198-9.279-36.926-22.398-33.233-32.244
			c0.588-1.541,2.53-4.553,9.043-7.335l3.651-1.559l-2.594,3.004c-0.767,0.909-1.366,1.896-1.754,2.945
			c-3.634,9.648,9.43,21.296,38.824,34.63L97.931,231.83z M79.842,228.462l7.739,0.644c-27.467-13.069-38.947-24.464-35.071-34.757
			c0.08-0.216,0.159-0.423,0.26-0.632c-3.732,2.103-4.833,4.037-5.148,4.882C45.143,205.188,56.887,216.067,79.842,228.462z"/>
	</g>
	<g>
		<g>
			<path fill="#1C75BC" stroke="#1C75BC" stroke-width="2.8011" stroke-miterlimit="10" d="M412.79,246.948
				c-27.126-13.17-63.326-26.145-104.687-37.546l-2.924-0.799l8.281,20.431c29.903,9.764,54.406,20.113,69.158,29.237l1.249,0.77
				l39.676-6.881L412.79,246.948z M385.413,250.955c-15.701-9.465-40.018-19.651-70.537-29.568l-1.029-2.377
				c32.32,9.21,61.14,19.346,84.477,29.707L385.413,250.955z"/>
		</g>
		<g>
			<path fill="#1C75BC" stroke="#1C75BC" stroke-width="2.8011" stroke-miterlimit="10" d="M383.68,260.003l-1.544-0.949
				c-23.322-14.414-47.917-22.347-67.898-28.872l-0.883-0.177l-8.755-22.675l3.758,1.185c41.397,11.41,77.654,24.415,104.839,37.597
				l13.328,6.469L383.68,260.003z M314.144,228.286c29.781,9.752,54.259,20.115,68.962,29.198l0.949,0.581l36.51-6.33l-8.18-3.957
				c-27.076-13.14-63.227-26.105-104.522-37.477l-1.126-0.323L314.144,228.286z M385.236,251.922l-0.29-0.184
				c-15.636-9.399-39.965-19.598-70.356-29.475l-0.393-0.126l-1.973-4.555l1.87,0.534c32.111,9.155,61.367,19.447,84.605,29.758
				l2.773,1.239L385.236,251.922z M315.562,220.636c30.152,9.817,54.348,19.964,70.035,29.352l9.552-1.663
				c-22.227-9.657-49.662-19.268-79.679-27.897L315.562,220.636z"/>
		</g>
	</g>
	<g>
		<polygon fill="#1C75BC" stroke="#1C75BC" stroke-width="2.8011" stroke-miterlimit="10" points="353.012,252.087 436.831,276.787 
			420.354,240.421 		"/>
	</g>
	<g>
		<g>
			<g>
				<path fill="#1C75BC" d="M422.633,236.117l-31.278,5.42l8.065,3.35l-25.374,4.688l-6.827-3.857l-28.996,5.631l105.582,31.509
					L422.633,236.117z M418.074,244.719l11.775,26.002l-59.918-17.657L418.074,244.719z"/>
			</g>
		</g>
		<g>
			<g>
				<path fill="#1C75BC" d="M445.48,284.313l-107.95-32.966l29.841-6.597l6.83,3.855l21.983-4.059l-8.117-3.371l35.106-6.089
					L445.48,284.313z M342.083,251.532l100.041,29.858l-20.041-44.237l-27.439,4.75l7.999,3.322l-28.769,5.314l-6.822-3.852
					L342.083,251.532z M431.524,272.173l-65.649-19.347l52.751-9.134L431.524,272.173z M373.996,253.295l54.189,15.968
					l-10.654-23.509L373.996,253.295z"/>
				<path fill="#1C75BC" d="M448.042,286.555l-108.808-33.223l-3.02-2.202l1.564-1.272l29.816-6.59l6.855,3.872l16.836-3.112
					l-8.21-3.407l40.93-7.094L448.042,286.555z M347.949,251.82l91.627,27.35l-18.319-40.451l-21.623,3.741l5.271,2.188l14.546-2.52
					l14.611,32.255l-74.342-21.914l11.272-1.946l-4.18-2.361L347.949,251.82z M380.151,253.649l45.499,13.409l-8.944-19.741
					L380.151,253.649z"/>
			</g>
		</g>
	</g>
	<g>
		<polygon fill="#FFFFFF" stroke="#1C75BC" stroke-width="2.8011" stroke-miterlimit="10" points="167.662,278.453 103.772,238.333 
			158.336,243.692 		"/>
	</g>
	<g>
		<path fill="#FFFFFF" d="M438.729,266.154l7.777,18.321l-45.192-12.579c0.2,0.955,0.092,1.901-0.354,3.068
			c-6.325,16.844-88.45,12.773-183.448-9.01c-26.11-5.988-50.465-12.697-71.938-19.626l1.702,15.434
			c25.765,8.675,55.089,16.957,86.61,24.181c113.987,26.149,213.422,28.679,222.079,5.657
			C458.663,284.439,452.255,275.648,438.729,266.154z"/>
	</g>
	<path fill="#FFFFFF" d="M56.974,196.028c3.066-8.158,23.948-11.402,55.426-10.125l1.355-4.615
		c-39.659-0.917-66.296,4.208-70.596,15.623c-5.124,13.665,22.789,33.224,70.133,52.35L90.311,234.13l26.762,2.232
		C77.101,221.162,53.205,206.034,56.974,196.028z"/>
	<path fill="#FFFFFF" d="M253.084,200.193c-20.616-4.485-40.694-8.233-59.719-11.135l2.224,7.054
		c14.029,2.529,28.586,5.477,43.486,8.887c6.62,1.512,13.081,3.087,19.452,4.685L253.084,200.193z"/>
	<g>
		<path fill="#FFFFFF" d="M312.31,214.594l4.466,11.474c29.912,9.828,52.985,19.726,67.873,28.925l26.467-4.589
			C385.801,238.126,352.3,225.825,312.31,214.594z"/>
	</g>
	<g>
		<polygon fill="#FFFFFF" points="353.012,252.087 436.831,276.787 420.354,240.421 		"/>
	</g>
</g>
</svg>
