<?xml version="1.0" encoding="utf-8"?>
<!-- Generator: Adobe Illustrator 16.0.0, SVG Export Plug-In . SVG Version: 6.00 Build 0)  -->
<!DOCTYPE svg PUBLIC "-//W3C//DTD SVG 1.1//EN" "http://www.w3.org/Graphics/SVG/1.1/DTD/svg11.dtd">
<svg version="1.1" id="Layer_1" xmlns="http://www.w3.org/2000/svg" xmlns:xlink="http://www.w3.org/1999/xlink" x="0px" y="0px"
	 width="500px" height="500px" viewBox="0 0 500 500" enable-background="new 0 0 500 500" xml:space="preserve">
<g>
	<g>
		<path fill="#0064B9" d="M109.125,254.55l-23.938-15.758l13.43,1.121l-0.017,0.046l37.787,3.586l11.838-45.768l15.367,55.533
			c14.284,4.173,29.49,8.228,45.394,12.031l-20.907-67.44c16.948,2.91,35.259,6.351,53.52,10.532
			c9.281,2.137,18.348,4.351,27.156,6.634l18.92,33.519l-16.86,29.479c12.68,2.18,24.869,3.994,36.405,5.439
			c1.23-2.972,2.4-5.924,3.494-8.972h0.538c1.646,3.405,3.23,6.694,4.818,10.014c16.394,1.831,31.269,2.855,44.087,3.044
			l-23.225-40.065l5.583-9.667c14.478,5.397,27.103,10.812,37.338,16.01l-20.962,3.629l87.331,25.745l-17.166-37.894l-23.441,4.06
			c-25.663-11.242-58.177-22.622-94.793-32.714c-3.352-7.721-6.729-15.046-10.962-23.72l-15.628-32.575h-46.337l25.133,44.52
			c-26.68-6-53.094-10.89-77.229-14.37l-9.354-30.15h-52.957l-7.351,23.512c-0.921-0.029-2.918-0.08-3.952-0.113
			c-42.749-1.236-71.563,4.076-76.13,16.223c-4.859,12.923,18.715,30.935,60.06,49.06l-27.182,89.803h41.846l12.709-45.806
			l6.405-24.692l-21.369-14.078C108.728,254.387,108.926,254.468,109.125,254.55z M50.445,199.09
			c3.273-8.715,26.06-12.064,60.294-10.443c1.268,0.062,2.53,0.181,3.832,0.263l-14.687,46.966
			C66.274,221.859,46.95,208.366,50.445,199.09z"/>
	</g>
	<g>
		<path fill="#0064B9" d="M448.132,272.247l8.105,19.085l-47.235-13.808c0.306,1.351,0.257,2.645-0.21,3.862
			c-6.592,17.54-92.179,13.348-191.148-9.35c-21.186-4.857-41.236-10.179-59.647-15.698l-2.013-7.5l-56.847-5.581l66.561,41.806
			l-3.096-11.537c2.374,0.737,4.772,1.47,7.19,2.197l4.801,17.353l13.773,45.806h43.436l-15.648-50.461
			c6.099,1.519,12.27,3.008,18.555,4.45c8.275,1.896,16.482,3.674,24.594,5.332l-23.264,40.679h46.083l14.827-32.302
			c0.189-0.447,0.377-0.871,0.578-1.305c10.724,1.766,21.161,3.297,31.252,4.593l14.515,29.014h46.605l-14.228-24.533
			c50.551,2.937,85.362-2.14,90.417-15.59C468.89,291.297,462.219,282.142,448.132,272.247z"/>
	</g>
	<g>
		<path fill="#0064B9" d="M387.25,160.398h-46.084l-15.088,32.575c-3.231,7.417-5.926,13.62-8.751,20.731
			c12.045,2.669,27.178,7.721,33.421,9.892L387.25,160.398z"/>
	</g>
</g>
</svg>
