<?xml version="1.0" encoding="utf-8"?>
<!-- Generator: Adobe Illustrator 16.0.0, SVG Export Plug-In . SVG Version: 6.00 Build 0)  -->
<!DOCTYPE svg PUBLIC "-//W3C//DTD SVG 1.1//EN" "http://www.w3.org/Graphics/SVG/1.1/DTD/svg11.dtd">
<svg version="1.1" id="Layer_1" xmlns="http://www.w3.org/2000/svg" xmlns:xlink="http://www.w3.org/1999/xlink" x="0px" y="0px"
	 width="500px" height="500px" viewBox="0 0 500 500" enable-background="new 0 0 500 500" xml:space="preserve">
<g>
	<g>
		<path fill="#D1D3D4" d="M128.44,294.701l-12.467,44.926H74.937l53.503-175.04h51.938l54.28,175.04h-42.593l-13.503-44.926
			l-25.87-93.46L128.44,294.701z"/>
	</g>
</g>
<g>
	<g>
		<path fill="#D1D3D4" d="M343.997,339.627l-15.843-31.686c-6.49-12.207-10.65-21.295-15.584-31.418h-0.519
			c-3.636,10.123-8.048,19.211-13.507,31.418l-14.542,31.686h-45.188l50.642-88.555l-48.822-86.485h45.446l15.324,31.945
			c5.191,10.649,9.091,19.219,13.244,29.088h0.521c4.153-11.165,7.528-18.962,11.948-29.088l14.798-31.945h45.191l-49.345,85.448
			l51.942,89.592H343.997z"/>
	</g>
</g>
<g>
	<g>
		<polygon fill="#005FBC" points="359.226,259.902 444.875,285.143 428.039,247.98 		"/>
	</g>
	<g>
		<polygon fill="#005FBC" points="164.478,283.496 104.558,245.846 160.303,251.322 		"/>
	</g>
	<g>
		<path fill="#005FBC" d="M446.812,274.279l7.943,18.713l-46.32-13.545c0.301,1.33,0.254,2.6-0.197,3.795
			c-6.469,17.197-90.399,13.088-187.458-9.174c-26.685-6.121-51.567-12.973-73.51-20.053l1.734,15.771
			c26.329,8.867,56.288,17.324,88.501,24.715c116.472,26.715,218.068,29.299,226.919,5.775
			C467.178,292.961,460.637,283.979,446.812,274.279z"/>
	</g>
	<g>
		<path fill="#005FBC" d="M56.741,202.615c3.341-8.881,27.345-12.075,63.156-10.031l1.479-4.825
			c-44.169-1.682-74.124,3.48-78.75,15.77c-5.247,13.952,23.285,33.942,71.658,53.478l-23.474-15.46l27.339,2.293
			C77.31,228.307,52.894,212.851,56.741,202.615z"/>
	</g>
	<g>
		<g>
			<path fill="#005FBC" d="M265.308,208.354c-26.34-5.925-51.861-10.619-75.66-14.041l2.093,6.946
				c16.752,2.864,34.378,6.382,52.46,10.524c9.108,2.09,18.008,4.273,26.656,6.514L265.308,208.354z"/>
		</g>
		<g>
			<path fill="#005FBC" d="M312.301,220.082l5.06,11.647c32.372,10.433,58.351,21.35,74.188,31.143l27.045-4.689
				C391.814,245.199,355.007,231.85,312.301,220.082z"/>
		</g>
	</g>
</g>
</svg>
