<?xml version="1.0" encoding="utf-8"?>
<!-- Generator: Adobe Illustrator 16.0.0, SVG Export Plug-In . SVG Version: 6.00 Build 0)  -->
<!DOCTYPE svg PUBLIC "-//W3C//DTD SVG 1.1//EN" "http://www.w3.org/Graphics/SVG/1.1/DTD/svg11.dtd">
<svg version="1.1" id="Layer_1" xmlns="http://www.w3.org/2000/svg" xmlns:xlink="http://www.w3.org/1999/xlink" x="0px" y="0px"
	 width="841.89px" height="243.283px" viewBox="0 0 841.89 243.283" enable-background="new 0 0 841.89 243.283"
	 xml:space="preserve">
<g>
	<g>
		<path fill="#BCBEC0" d="M56.851,148.479c7.118,3.645,18.051,7.287,29.336,7.287c12.156,0,18.583-5.027,18.583-12.67
			c0-7.293-5.552-11.459-19.622-16.494c-19.446-6.768-32.117-17.54-32.117-34.556c0-19.959,16.665-35.24,44.275-35.24
			c13.192,0,22.915,2.776,29.862,5.904l-5.904,21.354c-4.688-2.259-13.021-5.552-24.486-5.552c-11.456,0-17.008,5.206-17.008,11.28
			c0,7.469,6.593,10.768,21.701,16.495c20.662,7.635,30.38,18.407,30.38,34.902c0,19.617-15.104,36.283-47.221,36.283
			c-13.372,0-26.564-3.475-33.165-7.117L56.851,148.479z"/>
	</g>
	<g>
		<path fill="#BCBEC0" d="M177.524,66.527v24.306h18.924v19.446h-18.924v30.736c0,10.24,2.435,14.93,10.421,14.93
			c3.297,0,5.902-0.348,7.81-0.699l0.171,19.969c-3.469,1.393-9.719,2.26-17.188,2.26c-8.504,0-15.622-2.953-19.788-7.291
			c-4.864-5.033-7.293-13.199-7.293-25.178v-34.726h-11.28V90.833h11.28V72.435L177.524,66.527z"/>
	</g>
	<g>
		<path fill="#BCBEC0" d="M231.184,141.712c0.864,10.934,11.636,16.139,23.959,16.139c9.031,0,16.32-1.215,23.438-3.469
			l3.473,17.881c-8.683,3.473-19.271,5.211-30.729,5.211c-28.819,0-45.314-16.666-45.314-43.235
			c0-21.53,13.368-45.313,42.884-45.313c27.428,0,37.849,21.354,37.849,42.367c0,4.512-0.522,8.508-0.869,10.42H231.184z
			 M262.262,123.651c0-6.421-2.776-17.187-14.929-17.187c-11.119,0-15.627,10.068-16.325,17.187H262.262z"/>
	</g>
	<g>
		<path fill="#BCBEC0" d="M322.869,141.712c0.869,10.934,11.631,16.139,23.959,16.139c9.03,0,16.32-1.215,23.442-3.469l3.474,17.881
			c-8.685,3.473-19.276,5.211-30.735,5.211c-28.819,0-45.314-16.666-45.314-43.235c0-21.53,13.372-45.313,42.879-45.313
			c27.438,0,37.854,21.354,37.854,42.367c0,4.512-0.517,8.508-0.869,10.42H322.869z M353.946,123.651
			c0-6.421-2.776-17.187-14.929-17.187c-11.114,0-15.626,10.068-16.324,17.187H353.946z"/>
	</g>
	<g>
		<path fill="#BCBEC0" d="M394.243,117.923c0-10.59-0.351-19.617-0.693-27.09h22.218l1.22,11.465h0.516
			c3.646-5.382,11.108-13.373,25.696-13.373c10.938,0,19.623,5.561,23.266,14.412h0.348c3.121-4.338,6.941-7.812,10.939-10.241
			c4.688-2.781,9.895-4.171,16.143-4.171c16.324,0,28.648,11.464,28.648,36.81v50h-25.697v-46.181
			c0-12.325-3.992-19.447-12.5-19.447c-6.074,0-10.416,4.167-12.152,9.206c-0.697,1.908-1.043,4.684-1.043,6.768v49.654h-25.691
			v-47.571c0-10.763-3.82-18.057-12.154-18.057c-6.775,0-10.768,5.21-12.329,9.553c-0.868,2.083-1.043,4.513-1.043,6.596v49.479
			h-25.692V117.923z"/>
	</g>
</g>
<g>
	<g>
		<g>
			<path fill="#BCBEC0" d="M570.031,145.675l-8.395,30.27h-27.652l36.047-117.935h34.996l36.57,117.935h-28.699l-9.096-30.27
				l-17.436-62.968L570.031,145.675z"/>
		</g>
	</g>
</g>
<g>
	<g>
		<g>
			<path fill="#BCBEC0" d="M715.262,175.944l-10.672-21.346c-4.373-8.225-7.178-14.35-10.5-21.17h-0.348
				c-2.453,6.82-5.422,12.945-9.107,21.17l-9.791,21.346h-30.447l34.119-59.668l-32.895-58.267h30.619l10.326,21.521
				c3.5,7.177,6.123,12.949,8.922,19.599h0.355c2.797-7.523,5.064-12.773,8.049-19.599l9.971-21.521h30.449l-33.25,57.57
				l34.994,60.365H715.262z"/>
		</g>
	</g>
</g>
<g>
	<g>
		<g>
			<polygon fill="#6D6E71" points="725.52,122.229 783.227,139.237 771.885,114.198 			"/>
		</g>
	</g>
	<g>
		<g>
			<polygon fill="#6D6E71" points="594.314,138.126 553.941,112.758 591.502,116.447 			"/>
		</g>
	</g>
	<g>
		<g>
			<path fill="#6D6E71" d="M784.539,131.917l5.35,12.609l-31.207-9.127c0.205,0.895,0.168,1.75-0.135,2.557
				c-4.359,11.586-60.908,8.816-126.303-6.184c-17.975-4.122-34.738-8.742-49.525-13.507l1.166,10.623
				c17.742,5.976,37.93,11.671,59.635,16.651c78.471,17.998,146.92,19.74,152.887,3.893
				C798.254,144.503,793.85,138.45,784.539,131.917z"/>
		</g>
	</g>
	<g>
		<g>
			<path fill="#6D6E71" d="M521.725,83.634c2.25-5.985,18.422-8.14,42.551-6.759l0.994-3.253
				c-29.758-1.133-49.938,2.344-53.055,10.624c-3.533,9.403,15.688,22.871,48.281,36.036l-15.82-10.42l18.426,1.542
				C535.584,100.943,519.133,90.526,521.725,83.634z"/>
		</g>
	</g>
	<g>
		<g>
			<g>
				<path fill="#6D6E71" d="M662.248,87.499c-17.748-3.992-34.945-7.159-50.98-9.463l1.414,4.679
					c11.283,1.93,23.164,4.301,35.342,7.091c6.143,1.413,12.137,2.879,17.963,4.391L662.248,87.499z"/>
			</g>
		</g>
		<g>
			<g>
				<path fill="#6D6E71" d="M693.908,95.4l3.41,7.847c21.809,7.028,39.312,14.384,49.984,20.981l18.219-3.159
					C747.484,112.322,722.684,103.327,693.908,95.4z"/>
			</g>
		</g>
	</g>
</g>
</svg>
