<?xml version="1.0" encoding="utf-8"?>
<!-- Generator: Adobe Illustrator 16.0.0, SVG Export Plug-In . SVG Version: 6.00 Build 0)  -->
<!DOCTYPE svg PUBLIC "-//W3C//DTD SVG 1.1//EN" "http://www.w3.org/Graphics/SVG/1.1/DTD/svg11.dtd">
<svg version="1.1" id="Layer_1" xmlns="http://www.w3.org/2000/svg" xmlns:xlink="http://www.w3.org/1999/xlink" x="0px" y="0px"
	 width="841.89px" height="243.283px" viewBox="0 0 841.89 243.283" enable-background="new 0 0 841.89 243.283"
	 xml:space="preserve">
<g>
	<g>
		<path fill="#6D6E71" d="M41.358,155.698c7.32,3.748,18.564,7.496,30.17,7.496c12.496,0,19.1-5.176,19.1-13.029
			c0-7.496-5.714-11.781-20.171-16.959c-19.994-6.962-33.026-18.03-33.026-35.523c0-20.529,17.139-36.238,45.521-36.238
			c13.567,0,23.562,2.855,30.702,6.068l-6.069,21.959c-4.82-2.323-13.39-5.714-25.169-5.714c-11.782,0-17.493,5.356-17.493,11.605
			c0,7.676,6.782,11.066,22.314,16.958c21.242,7.854,31.237,18.924,31.237,35.881c0,20.172-15.531,37.307-48.553,37.307
			c-13.745,0-27.311-3.568-34.097-7.316L41.358,155.698z"/>
		<path fill="#6D6E71" d="M165.429,71.443v24.992h19.458v19.991h-19.458v31.597c0,10.533,2.497,15.354,10.708,15.354
			c3.394,0,6.072-0.357,8.034-0.715l0.181,20.527c-3.572,1.43-9.999,2.32-17.674,2.32c-8.747,0-16.064-3.033-20.349-7.494
			c-5-5.178-7.499-13.568-7.499-25.887v-35.703h-11.601V96.435h11.601V77.512L165.429,71.443z"/>
		<path fill="#6D6E71" d="M220.59,148.737c0.895,11.244,11.961,16.6,24.637,16.6c9.282,0,16.78-1.246,24.097-3.568l3.572,18.385
			c-8.927,3.572-19.816,5.355-31.598,5.355c-29.632,0-46.59-17.135-46.59-44.447c0-22.135,13.745-46.591,44.092-46.591
			c28.206,0,38.915,21.955,38.915,43.556c0,4.643-0.536,8.746-0.89,10.711H220.59z M252.544,130.173
			c0-6.607-2.855-17.674-15.351-17.674c-11.424,0-16.067,10.353-16.78,17.674H252.544z"/>
		<path fill="#6D6E71" d="M314.849,148.737c0.893,11.244,11.959,16.6,24.637,16.6c9.281,0,16.78-1.246,24.098-3.568l3.571,18.385
			c-8.928,3.572-19.816,5.355-31.6,5.355c-29.63,0-46.589-17.135-46.589-44.447c0-22.135,13.745-46.591,44.092-46.591
			c28.206,0,38.913,21.955,38.913,43.556c0,4.643-0.535,8.746-0.89,10.711H314.849z M346.803,130.173
			c0-6.607-2.855-17.674-15.351-17.674c-11.425,0-16.067,10.353-16.781,17.674H346.803z"/>
		<path fill="#6D6E71" d="M388.221,124.282c0-10.889-0.359-20.171-0.713-27.847h22.849l1.25,11.78h0.536
			c3.749-5.533,11.423-13.744,26.42-13.744c11.245,0,20.171,5.71,23.921,14.815h0.354c3.215-4.462,7.142-8.033,11.248-10.531
			c4.821-2.855,10.177-4.284,16.601-4.284c16.78,0,29.452,11.783,29.452,37.845v51.41H493.72v-47.484
			c0-12.675-4.106-19.993-12.854-19.993c-6.245,0-10.707,4.284-12.495,9.459c-0.713,1.966-1.07,4.821-1.07,6.963v51.055h-26.419
			v-48.912c0-11.067-3.926-18.565-12.495-18.565c-6.963,0-11.066,5.355-12.673,9.817c-0.895,2.142-1.072,4.642-1.072,6.781v50.879
			h-26.42V124.282z"/>
	</g>
	<g>
		<path fill="#6D6E71" d="M558.672,125.392l-16.508-10.867l9.264,0.776l-0.016,0.031l26.054,2.47l8.159-31.55l10.599,38.286
			c9.846,2.877,20.327,5.671,31.297,8.296l-14.422-46.494c11.688,2.007,24.314,4.373,36.905,7.26
			c6.4,1.469,12.65,2.996,18.725,4.572l13.041,23.11l-11.627,20.322c8.747,1.506,17.147,2.758,25.102,3.752
			c0.849-2.051,1.656-4.086,2.406-6.186h0.372c1.139,2.344,2.229,4.613,3.322,6.902c11.301,1.262,21.56,1.963,30.393,2.096
			l-16.01-27.624l3.851-6.663c9.979,3.718,18.687,7.452,25.74,11.036l-14.456,2.51l60.218,17.745l-11.832-26.128l-16.166,2.801
			c-17.695-7.749-40.106-15.596-65.355-22.552c-2.309-5.322-4.643-10.375-7.556-16.355L679.397,60.48h-31.951l17.327,30.693
			c-18.393-4.135-36.602-7.507-53.241-9.907l-6.451-20.786h-36.509l-5.067,16.211c-0.635-0.019-2.011-0.058-2.724-0.077
			c-29.477-0.854-49.337,2.81-52.49,11.18c-3.349,8.909,12.903,21.325,41.407,33.827l-18.735,61.913h28.848l8.762-31.58
			l4.413-17.021l-14.729-9.705C558.399,125.28,558.534,125.334,558.672,125.392z M518.216,87.159
			c2.256-6.011,17.968-8.322,41.567-7.199c0.875,0.041,1.747,0.12,2.64,0.178l-10.119,32.382
			C529.126,102.856,515.808,93.552,518.216,87.159z"/>
	</g>
	<g>
		<path fill="#6D6E71" d="M792.393,137.595l5.592,13.154l-32.569-9.52c0.213,0.934,0.181,1.826-0.144,2.66
			c-4.545,12.102-63.551,9.207-131.784-6.445c-14.61-3.348-28.428-7.014-41.126-10.816l-1.384-5.169l-39.188-3.853l45.888,28.826
			l-2.14-7.959c1.636,0.508,3.29,1.02,4.959,1.518l3.312,11.963l9.493,31.58h29.946l-10.788-34.793
			c4.208,1.049,8.457,2.078,12.792,3.068c5.709,1.309,11.364,2.539,16.957,3.676l-16.041,28.049h31.771l10.223-22.273
			c0.132-0.303,0.262-0.6,0.397-0.893c7.397,1.215,14.589,2.271,21.545,3.162l10.012,20.004h32.129l-9.804-16.914
			c34.854,2.029,58.85-1.473,62.338-10.746C806.704,150.729,802.106,144.413,792.393,137.595z"/>
	</g>
	<g>
		<path fill="#6D6E71" d="M750.422,60.48h-31.774l-10.402,22.458c-2.228,5.114-4.086,9.39-6.035,14.298
			c8.304,1.837,18.739,5.319,23.042,6.815L750.422,60.48z"/>
	</g>
</g>
</svg>
