<?xml version="1.0" encoding="utf-8"?>
<!-- Generator: Adobe Illustrator 16.0.0, SVG Export Plug-In . SVG Version: 6.00 Build 0)  -->
<!DOCTYPE svg PUBLIC "-//W3C//DTD SVG 1.1//EN" "http://www.w3.org/Graphics/SVG/1.1/DTD/svg11.dtd">
<svg version="1.1" id="Layer_1" xmlns="http://www.w3.org/2000/svg" xmlns:xlink="http://www.w3.org/1999/xlink" x="0px" y="0px"
	 width="841.89px" height="243.283px" viewBox="0 0 841.89 243.283" enable-background="new 0 0 841.89 243.283"
	 xml:space="preserve">
<g>
	<path fill="#939598" d="M52.856,150.968c6.797,3.486,17.245,6.969,28.027,6.969c11.608,0,17.742-4.811,17.742-12.107
		c0-6.961-5.306-10.945-18.74-15.752c-18.569-6.467-30.68-16.75-30.68-33.003c0-19.067,15.921-33.664,42.288-33.664
		c12.603,0,21.894,2.652,28.524,5.641l-5.638,20.396c-4.475-2.155-12.438-5.309-23.382-5.309c-10.941,0-16.248,4.974-16.248,10.782
		c0,7.132,6.296,10.277,20.726,15.757c19.735,7.294,29.023,17.571,29.023,33.329c0,18.736-14.429,34.654-45.106,34.654
		c-12.77,0-25.371-3.311-31.675-6.795L52.856,150.968z"/>
	<path fill="#939598" d="M79.392,184.05c-14.345,0-27.552-3.752-34.281-7.469l-3.607-1.998l7.753-31.51l6.058,3.105
		c2.916,1.498,13.377,6.373,25.569,6.373c4.611,0,12.36-0.875,12.36-6.723c0-2.77-1.163-5.668-15.172-10.688
		c-22.708-7.904-34.244-20.717-34.244-38.067c0-22.992,19.599-39.042,47.667-39.042c11.381,0,21.721,2.056,30.733,6.108l4.212,1.895
		l-8.585,31.059l-5.811-2.796c-6.577-3.165-13.659-4.776-21.045-4.776c-6.503,0-10.865,2.173-10.865,5.4
		c0,3.278,3.707,5.581,17.254,10.72c22.155,8.193,32.492,20.388,32.492,38.366C129.877,162.478,116.659,184.05,79.392,184.05z
		 M54.004,168.837c6.203,2.4,15.776,4.447,25.388,4.447c24.5,0,39.72-11.223,39.72-29.277c0-13.217-7.626-21.673-25.507-28.287
		c-13.025-4.939-24.242-9.193-24.242-20.798c0-8.046,6.69-16.165,21.633-16.165c6.854,0,13.494,1.135,19.82,3.378l2.728-9.872
		c-6.597-2.303-13.99-3.465-22.052-3.465c-22.072,0-36.901,11.36-36.901,28.277c0,12.444,8.851,21.573,27.069,27.919
		c11.327,4.056,22.347,8.994,22.347,20.835c0,8.455-6.075,17.49-23.125,17.49c-9.784,0-18.439-2.508-24.335-4.807L54.004,168.837z"
		/>
</g>
<g>
	<path fill="#939598" d="M168.109,72.699v23.215h18.074v18.576h-18.074v29.353c0,9.779,2.317,14.262,9.945,14.262
		c3.154,0,5.638-0.332,7.467-0.67l0.162,19.072c-3.312,1.328-9.285,2.154-16.415,2.154c-8.125,0-14.929-2.818-18.908-6.959
		c-4.646-4.811-6.965-12.609-6.965-24.049V114.49H132.62V95.914h10.777V78.336L168.109,72.699z"/>
	<path fill="#939598" d="M169.27,184.05c-9.229,0-17.535-3.145-22.791-8.621c-5.691-5.895-8.465-14.982-8.465-27.775v-27.782
		h-10.779V90.528h10.779V74.042l35.472-8.096v24.582h18.079v29.343h-18.079v23.971c0,8.875,1.719,8.875,4.568,8.875
		c2.252,0,4.376-0.188,6.495-0.578l6.296-1.148l0.252,29.145l-3.415,1.371C183.591,183.149,177.051,184.05,169.27,184.05z
		 M138,109.104h10.779v38.55c0,9.725,1.838,16.559,5.454,20.309c3.201,3.332,8.822,5.322,15.036,5.322
		c4.688,0,8.38-0.375,10.992-0.861l-0.077-8.979c-0.7,0.027-1.409,0.039-2.13,0.039c-15.331,0-15.331-14.27-15.331-19.641v-34.739
		h18.074v-7.807h-18.074V79.449l-13.944,3.182v18.666H138V109.104z"/>
</g>
<g>
	<path fill="#939598" d="M223.328,144.505c0.831,10.447,11.111,15.42,22.886,15.42c8.622,0,15.587-1.158,22.387-3.314l3.319,17.082
		c-8.295,3.312-18.411,4.969-29.357,4.969c-27.526,0-43.283-15.918-43.283-41.285c0-20.567,12.773-43.283,40.965-43.283
		c26.199,0,36.149,20.396,36.149,40.458c0,4.316-0.496,8.125-0.833,9.953H223.328z M253.013,127.256
		c0-6.137-2.655-16.419-14.263-16.419c-10.615,0-14.926,9.623-15.589,16.419H253.013z"/>
	<path fill="#939598" d="M242.562,184.05c-30.017,0-48.666-17.885-48.666-46.674c0-24.188,15.921-48.668,46.349-48.668
		c30.651,0,41.532,24.693,41.532,45.844c0,4.342-0.477,8.484-0.919,10.918l-0.805,4.418h-7.271l5.269,27.152l-4.139,1.648
		C265.147,182.196,254.306,184.05,242.562,184.05z M240.245,99.476c-24.449,0-35.58,19.648-35.58,37.9
		c0,22.82,13.813,35.908,37.897,35.908c8.546,0,16.465-1.078,23.186-3.131l-1.327-6.816c-5.779,1.338-11.695,1.973-18.207,1.973
		c-16.184,0-27.267-8-28.257-20.381l-0.459-5.807h53.315c0.12-1.412,0.197-2.977,0.197-4.57
		C271.01,126.324,268.792,99.476,240.245,99.476z M231.343,149.888c4.381,4.369,12.773,4.654,14.871,4.654
		c7.672,0,14.073-0.945,20.76-3.068l5.011-1.586H231.343z M258.395,132.64h-41.169l0.579-5.905
		c1.001-10.249,7.98-21.278,20.946-21.278c13.57,0,19.644,10.95,19.644,21.799V132.64z M230.2,121.875h16.627
		c-1.028-3.001-3.292-5.652-8.076-5.652C234.159,116.222,231.609,119.016,230.2,121.875z"/>
</g>
<g>
	<path fill="#939598" d="M314.865,144.505c0.827,10.447,11.11,15.42,22.88,15.42c8.628,0,15.589-1.158,22.393-3.314l3.313,17.082
		c-8.291,3.312-18.405,4.969-29.353,4.969c-27.529,0-43.28-15.918-43.28-41.285c0-20.567,12.768-43.283,40.964-43.283
		c26.198,0,36.152,20.396,36.152,40.458c0,4.316-0.499,8.125-0.832,9.953H314.865z M344.545,127.256
		c0-6.137-2.648-16.419-14.259-16.419c-10.609,0-14.925,9.623-15.588,16.419H344.545z"/>
	<path fill="#939598" d="M334.098,184.05c-30.012,0-48.661-17.885-48.661-46.674c0-24.188,15.918-48.668,46.346-48.668
		c30.653,0,41.532,24.693,41.532,45.844c0,4.338-0.471,8.484-0.913,10.918l-0.807,4.418h-7.28l5.272,27.152l-4.131,1.648
		C356.685,182.196,345.842,184.05,334.098,184.05z M331.782,99.476c-24.447,0-35.584,19.648-35.584,37.9
		c0,22.82,13.817,35.908,37.9,35.908c8.545,0,16.467-1.078,23.185-3.131l-1.321-6.816c-5.786,1.338-11.695,1.973-18.216,1.973
		c-16.176,0-27.264-8-28.25-20.381l-0.458-5.807h53.319c0.117-1.418,0.192-2.98,0.192-4.57
		C362.548,126.324,360.33,99.476,331.782,99.476z M322.882,149.888c4.378,4.369,12.774,4.654,14.863,4.654
		c7.678,0,14.08-0.945,20.765-3.061l5.012-1.594H322.882z M349.931,132.64h-41.164l0.573-5.905
		c1.001-10.249,7.979-21.278,20.946-21.278c13.573,0,19.645,10.95,19.645,21.799V132.64z M321.737,121.875h16.624
		c-1.027-3.001-3.289-5.652-8.074-5.652C325.692,116.222,323.146,119.016,321.737,121.875z"/>
</g>
<g>
	<path fill="#939598" d="M383.019,121.784c0-10.113-0.336-18.74-0.664-25.87h21.227l1.163,10.946h0.492
		c3.484-5.141,10.615-12.767,24.547-12.767c10.445,0,18.737,5.303,22.223,13.76h0.332c2.979-4.146,6.633-7.461,10.441-9.784
		c4.482-2.652,9.454-3.976,15.426-3.976c15.589,0,27.358,10.941,27.358,35.154v47.757h-24.54v-44.107
		c0-11.778-3.814-18.573-11.937-18.573c-5.808,0-9.952,3.977-11.613,8.786c-0.66,1.826-0.993,4.481-0.993,6.466v47.428h-24.538
		v-45.438c0-10.28-3.653-17.243-11.611-17.243c-6.469,0-10.28,4.969-11.777,9.12c-0.826,1.991-0.996,4.306-0.996,6.298v47.262
		h-24.539V121.784z"/>
	<path fill="#939598" d="M510.952,182.388h-35.314v-49.49c0-13.19-4.935-13.19-6.551-13.19c-4.401,0-6.107,3.951-6.525,5.162
		c-0.408,1.131-0.698,3.119-0.698,4.708v52.811h-35.308v-50.82c0-7.873-2.092-11.86-6.225-11.86c-4.371,0-6.242,4.254-6.71,5.562
		l-0.093,0.241c-0.582,1.401-0.582,3.533-0.582,4.233v52.645h-35.307v-60.604c0-10.045-0.334-18.587-0.662-25.62l-0.263-5.635
		h31.709l0.499,4.71c5.803-4.299,12.854-6.531,20.861-6.531c9.473,0,17.779,3.803,23.12,10.281c2.184-2.127,4.57-3.99,7.081-5.513
		c5.425-3.221,11.371-4.768,18.221-4.768c24.142,0,32.747,20.938,32.747,40.54V182.388z M486.409,171.622h13.777v-42.375
		c0-19.205-7.81-29.772-21.981-29.772c-4.932,0-8.963,1.027-12.68,3.228c-3.293,2.008-6.363,4.889-8.819,8.298l-1.611,2.237h-6.699
		l-1.373-3.335c-2.683-6.531-9.134-10.428-17.239-10.428c-8.649,0-15.407,3.5-20.089,10.403l-1.6,2.365h-8.196l-1.166-10.947
		h-10.757c0.238,5.958,0.428,12.779,0.428,20.487v49.838h13.772v-41.879c0-2.109,0.144-5.243,1.358-8.243
		c2.234-6.092,7.803-12.564,16.796-12.564c10.638,0,16.991,8.457,16.991,22.631v40.055h13.774v-42.045
		c0-2.257,0.346-5.624,1.315-8.301c2.58-7.464,9.132-12.339,16.675-12.339c5.201,0,17.322,2.34,17.322,23.961V171.622z"/>
</g>
<g>
	<path fill="#FFFFFF" d="M52.856,150.968c6.797,3.486,17.245,6.969,28.027,6.969c11.608,0,17.742-4.811,17.742-12.107
		c0-6.961-5.306-10.945-18.74-15.752c-18.569-6.467-30.68-16.75-30.68-33.003c0-19.067,15.921-33.664,42.288-33.664
		c12.603,0,21.894,2.652,28.524,5.641l-5.638,20.396c-4.475-2.155-12.438-5.309-23.382-5.309c-10.941,0-16.248,4.974-16.248,10.782
		c0,7.132,6.296,10.277,20.726,15.757c19.735,7.294,29.023,17.571,29.023,33.329c0,18.736-14.429,34.654-45.106,34.654
		c-12.77,0-25.371-3.311-31.675-6.795L52.856,150.968z"/>
</g>
<g>
	<path fill="#FFFFFF" d="M168.109,72.699v23.215h18.074v18.576h-18.074v29.353c0,9.779,2.317,14.262,9.945,14.262
		c3.154,0,5.638-0.332,7.467-0.67l0.162,19.072c-3.312,1.328-9.285,2.154-16.415,2.154c-8.125,0-14.929-2.818-18.908-6.959
		c-4.646-4.811-6.965-12.609-6.965-24.049V114.49H132.62V95.914h10.777V78.336L168.109,72.699z"/>
</g>
<g>
	<path fill="#FFFFFF" d="M223.328,144.505c0.831,10.447,11.111,15.42,22.886,15.42c8.622,0,15.587-1.158,22.387-3.314l3.319,17.082
		c-8.295,3.312-18.411,4.969-29.357,4.969c-27.526,0-43.283-15.918-43.283-41.285c0-20.567,12.773-43.283,40.965-43.283
		c26.199,0,36.149,20.396,36.149,40.458c0,4.316-0.496,8.125-0.833,9.953H223.328z M253.013,127.256
		c0-6.137-2.655-16.419-14.263-16.419c-10.615,0-14.926,9.623-15.589,16.419H253.013z"/>
</g>
<g>
	<path fill="#FFFFFF" d="M314.865,144.505c0.827,10.447,11.11,15.42,22.88,15.42c8.628,0,15.589-1.158,22.393-3.314l3.313,17.082
		c-8.291,3.312-18.405,4.969-29.353,4.969c-27.529,0-43.28-15.918-43.28-41.285c0-20.567,12.768-43.283,40.964-43.283
		c26.198,0,36.152,20.396,36.152,40.458c0,4.316-0.499,8.125-0.832,9.953H314.865z M344.545,127.256
		c0-6.137-2.648-16.419-14.259-16.419c-10.609,0-14.925,9.623-15.588,16.419H344.545z"/>
</g>
<g>
	<path fill="#FFFFFF" d="M383.019,121.784c0-10.113-0.336-18.74-0.664-25.87h21.227l1.163,10.946h0.492
		c3.484-5.141,10.615-12.767,24.547-12.767c10.445,0,18.737,5.303,22.223,13.76h0.332c2.979-4.146,6.633-7.461,10.441-9.784
		c4.482-2.652,9.454-3.976,15.426-3.976c15.589,0,27.358,10.941,27.358,35.154v47.757h-24.54v-44.107
		c0-11.778-3.814-18.573-11.937-18.573c-5.808,0-9.952,3.977-11.613,8.786c-0.66,1.826-0.993,4.481-0.993,6.466v47.428h-24.538
		v-45.438c0-10.28-3.653-17.243-11.611-17.243c-6.469,0-10.28,4.969-11.777,9.12c-0.826,1.991-0.996,4.306-0.996,6.298v47.262
		h-24.539V121.784z"/>
</g>
<g>
	<g>
		<path fill="#1C75BC" d="M664.176,87.613c-18.319-4.124-36.078-7.388-52.627-9.767l1.458,4.83
			c11.65,1.997,23.906,4.441,36.488,7.328c6.336,1.452,12.526,2.963,18.538,4.526L664.176,87.613z"/>
		<path fill="#1C75BC" d="M670.035,96.079l-2.252-0.587c-6.034-1.565-12.262-3.089-18.511-4.518
			c-12.348-2.83-24.607-5.292-36.434-7.317l-0.609-0.102l-2.088-6.914l1.547,0.221c16.973,2.438,34.703,5.729,52.703,9.778
			l0.439,0.099L670.035,96.079z M613.78,81.799c11.679,2.011,23.764,4.444,35.938,7.235c5.491,1.259,10.968,2.583,16.313,3.951
			l-2.508-4.498c-17.257-3.871-34.259-7.042-50.57-9.429L613.78,81.799z"/>
	</g>
	<g>
		<path fill="#1C75BC" d="M669.352,95.551l-1.479-0.385c-6.118-1.588-12.351-3.106-18.525-4.523
			c-12.308-2.822-24.577-5.289-36.455-7.317l-0.398-0.071l-1.866-6.202l1.016,0.145c16.95,2.436,34.679,5.723,52.678,9.778
			l0.281,0.062L669.352,95.551z M613.511,82.097c11.781,2.025,23.937,4.463,36.131,7.263c5.688,1.308,11.427,2.703,17.076,4.152
			l-2.97-5.323c-17.51-3.937-34.749-7.147-51.277-9.546L613.511,82.097z"/>
		<path fill="#1C75BC" d="M671.356,97.099l-3.737-0.97c-6.006-1.56-12.232-3.08-18.496-4.518c-12.38-2.839-24.629-5.295-36.4-7.306
			l-1.007-0.173l-2.492-8.287l2.561,0.363c17.032,2.451,34.783,5.746,52.756,9.792l0.713,0.162L671.356,97.099z M614.288,81.218
			c11.701,2.027,23.67,4.441,35.575,7.175c4.846,1.106,9.832,2.311,14.854,3.582l-1.622-2.91
			c-16.806-3.769-33.349-6.863-49.219-9.208L614.288,81.218z"/>
	</g>
</g>
<g>
	<g>
		<path fill="#939598" d="M673.543,98.781l-6.193-1.607c-6.106-1.577-12.319-3.097-18.468-4.506
			c-12.266-2.816-24.491-5.267-36.34-7.297l-1.668-0.284l-3.183-10.555l4.247,0.609c17.01,2.441,34.788,5.746,52.837,9.804
			l1.193,0.272L673.543,98.781z M652.118,87.803c3.473,0.802,6.962,1.645,10.427,2.507l-0.161-0.297
			C658.946,89.252,655.522,88.506,652.118,87.803z"/>
		<path fill="#939598" d="M675.548,100.327l-8.448-2.189c-6.17-1.593-12.373-3.108-18.439-4.5c-12.2-2.8-24.405-5.25-36.285-7.286
			l-2.28-0.388l-3.806-12.64l5.79,0.834c16.973,2.433,34.777,5.739,52.916,9.815l1.625,0.372L675.548,100.327z M611.648,84.207
			l1.061,0.181c11.917,2.042,24.163,4.499,36.399,7.309c6.08,1.397,12.302,2.912,18.488,4.514l3.941,1.021l-6.225-11.148
			l-0.758-0.17c-18.086-4.066-35.835-7.359-52.76-9.79l-2.7-0.385L611.648,84.207z M664.524,91.831l-2.221-0.554
			c-3.459-0.862-6.942-1.704-10.41-2.504l0.423-1.945c3.417,0.704,6.843,1.452,10.28,2.212l0.437,0.096L664.524,91.831z"/>
	</g>
	<g>
		<path fill="#939598" d="M674.858,99.805l-7.676-1.991c-6.078-1.577-12.283-3.091-18.445-4.509
			c-12.261-2.808-24.479-5.261-36.31-7.283l-2.063-0.357l-3.599-11.928l5.263,0.755c17.026,2.444,34.819,5.749,52.894,9.818
			l1.475,0.33L674.858,99.805z M611.385,84.51l1.27,0.219c11.855,2.021,24.095,4.486,36.374,7.3
			c6.175,1.412,12.394,2.936,18.479,4.512l4.714,1.223l-6.679-11.971l-0.916-0.207c-18.031-4.061-35.793-7.354-52.783-9.795
			l-3.228-0.465L611.385,84.51z M663.854,91.314l-1.464-0.363c-3.468-0.867-6.954-1.707-10.423-2.513l0.284-1.281
			c3.408,0.715,6.838,1.449,10.271,2.22l0.289,0.06L663.854,91.314z"/>
		<path fill="#939598" d="M676.86,101.354l-9.925-2.576c-6.006-1.56-12.206-3.074-18.421-4.503
			c-12.273-2.814-24.47-5.258-36.254-7.272l-2.674-0.461l-4.226-14.01l6.81,0.973c17.054,2.45,34.877,5.757,52.97,9.832l1.905,0.428
			L676.86,101.354z M612.162,83.635l0.662,0.116c11.765,2.005,24.021,4.466,36.427,7.308c6.039,1.381,12.268,2.902,18.507,4.521
			l2.459,0.638l-5.329-9.555l-0.479-0.107c-17.96-4.043-35.696-7.333-52.707-9.781l-1.681-0.241L612.162,83.635z M665.833,92.834
			l-3.685-0.916c-3.461-0.868-6.942-1.705-10.404-2.51l-0.959-0.221l0.702-3.207l0.968,0.204c3.414,0.714,6.844,1.449,10.282,2.223
			l0.724,0.145L665.833,92.834z"/>
	</g>
</g>
<g>
	<path fill="#1C75BC" stroke="#1C75BC" stroke-width="1.9909" stroke-miterlimit="10" d="M568.97,147.677l-8.676,31.252h-28.538
		L568.97,57.175h36.13l37.759,121.754h-29.63l-9.39-31.252l-18-65.01L568.97,147.677z"/>
</g>
<g>
	<g>
		<path fill="#939598" d="M646.567,181.667h-35.373l-9.979-33.203l-15.289-55.233l-14.312,55.131l-9.237,33.305h-34.317
			l38.887-127.235h40.168L646.567,181.667z M615.259,176.194h23.887L603.084,59.903h-32.092l-35.543,116.291h22.766l8.118-29.25
			l19.42-74.841l20.723,74.841L615.259,176.194z"/>
		<path fill="#939598" d="M647.917,182.663h-37.463l-10.191-33.912l-14.306-51.677l-13.38,51.538l-9.443,34.051h-36.42l0.392-1.287
			l39.103-127.939h41.641l0.215,0.7L647.917,182.663z M611.936,180.673h33.281L606.379,55.428h-38.697l-38.279,125.245h32.216
			l9.036-32.578l15.241-58.707l16.277,58.81L611.936,180.673z M640.495,177.19h-25.977l-8.996-29.959l-19.738-71.286l-18.486,71.249
			l-8.325,29.996h-24.868l0.392-1.289l35.759-116.994h33.563l0.216,0.701L640.495,177.19z M615.998,175.198h21.799l-35.448-114.3
			h-30.62l-34.936,114.3h20.666l7.915-28.52l20.348-78.418l21.713,78.418L615.998,175.198z"/>
	</g>
	<g>
		<path fill="#939598" d="M647.459,182.321h-36.752l-10.113-33.664l-14.648-52.896l-13.694,52.771l-9.375,33.789h-35.708
			L566.457,53.78h41.139l0.147,0.457L647.459,182.321z M611.68,181.009h33.997L606.631,55.093h-39.196l-38.488,125.916h32.925
			l9.112-32.816l14.925-57.499l15.938,57.599L611.68,181.009z M640.034,176.847h-25.258l-8.933-29.709l-20.068-72.504
			l-18.811,72.481l-8.246,29.732h-24.154L570.507,59.25h33.06l0.141,0.459L640.034,176.847z M615.75,175.542h22.502l-35.65-114.981
			h-31.124l-35.144,114.981h21.386l7.982-28.768l20.034-77.204l21.366,77.204L615.75,175.542z"/>
		<path fill="#939598" d="M648.808,183.315h-38.842l-10.325-34.371l-13.664-49.341l-12.761,49.179l-9.584,34.533h-37.809
			l0.392-1.287L565.72,52.785h42.603l0.368,1.146L648.808,183.315z M612.419,180.015h31.909L605.896,56.089h-37.724L530.29,180.015
			h30.824l8.91-32.09l15.853-61.074l16.929,61.174L612.419,180.015z M641.384,177.841h-27.348l-9.146-30.418l-19.083-68.947
			l-17.879,68.889l-8.454,30.477H533.22l0.392-1.287L569.77,58.255h34.531l0.356,1.16L641.384,177.841z M616.489,174.546h20.414
			l-35.035-112.99h-29.654l-34.536,112.99h19.284l7.783-28.039l20.959-80.779l22.356,80.779L616.489,174.546z"/>
	</g>
</g>
<g>
	<g>
		<g>
			<path fill="#939598" d="M718.911,178.929l-11.02-22.043c-4.514-8.486-7.407-14.809-10.838-21.855h-0.363
				c-2.526,7.047-5.599,13.369-9.391,21.855l-10.118,22.043h-31.437l35.228-61.604l-33.962-60.15h31.617l10.654,22.217
				c3.616,7.405,6.321,13.363,9.214,20.232h0.367c2.884-7.768,5.234-13.185,8.313-20.232l10.287-22.217H748.9l-34.326,59.433
				l36.136,62.321H718.911z"/>
			<path fill="#939598" d="M752.437,179.923h-34.142l-11.292-22.59c-3.402-6.393-5.931-11.658-8.375-16.752
				c-0.548-1.141-1.098-2.281-1.654-3.436c-1.81,4.791-3.886,9.367-6.247,14.574c-0.804,1.768-1.643,3.611-2.519,5.572
				l-10.389,22.631h-33.791l35.799-62.601l-34.521-61.143h33.949l10.924,22.781c3.225,6.605,5.805,12.226,8.457,18.437
				c2.678-7.073,4.989-12.359,7.629-18.405l10.564-22.813h33.795l-34.898,60.429L752.437,179.923z M719.524,177.933h29.459
				l-35.561-61.325l33.754-58.438h-29.078l-10.016,21.639c-2.85,6.522-5.321,12.174-8.288,20.16l-0.241,0.649h-1.718l-0.259-0.609
				c-2.915-6.926-5.662-12.96-9.188-20.181L678.002,58.17h-29.287l33.404,59.158l-34.659,60.604h29.084l9.852-21.459
				c0.873-1.957,1.714-3.807,2.516-5.576c2.638-5.809,4.915-10.824,6.844-16.201l0.234-0.662h1.686l0.275,0.559
				c0.845,1.74,1.658,3.432,2.473,5.125c2.436,5.078,4.957,10.324,8.348,16.701L719.524,177.933z"/>
		</g>
		<g>
			<path fill="#939598" d="M751.85,179.587h-33.346l-11.196-22.404c-3.392-6.367-5.904-11.611-8.346-16.676
				c-0.664-1.4-1.339-2.803-2.031-4.227c-1.866,5.057-4.032,9.824-6.52,15.295c-0.802,1.777-1.64,3.615-2.519,5.58l-10.294,22.432
				h-32.982l0.562-0.979l35.045-61.283l-34.336-60.808h33.151l10.84,22.591c3.375,6.925,6.029,12.727,8.774,19.199
				c2.796-7.436,5.179-12.892,7.914-19.179l10.479-22.611h32.991l-34.703,60.091L751.85,179.587z M719.316,178.276h30.253
				l-35.753-61.668l0.19-0.329l33.757-58.458h-29.88l-10.119,21.843c-2.855,6.554-5.328,12.229-8.289,20.192l-0.163,0.425h-1.25
				l-0.164-0.402c-2.901-6.88-5.652-12.915-9.2-20.204l-10.483-21.854h-30.078l33.597,59.516l-0.189,0.314l-34.667,60.625h29.885
				l9.94-21.662c0.873-1.959,1.719-3.811,2.516-5.578c2.641-5.811,4.921-10.836,6.857-16.229l0.158-0.432h1.231l0.176,0.373
				c0.855,1.756,1.681,3.473,2.51,5.186c2.428,5.059,4.94,10.291,8.32,16.646L719.316,178.276z"/>
			<path fill="#939598" d="M753.577,180.581H717.89l-11.472-22.953c-3.245-6.088-5.681-11.143-8.037-16.031l-0.315-0.658
				c-0.34-0.715-0.681-1.428-1.023-2.145c-1.685,4.305-3.58,8.473-5.724,13.191l-2.519,5.578l-10.562,23.018h-35.339l36.181-63.259
				l-34.896-61.801h35.483l11.107,23.156c3.016,6.182,5.417,11.389,7.825,16.973c2.391-6.202,4.513-11.074,6.929-16.622l0.127-0.297
				l10.758-23.209h35.35l-35.276,61.086L753.577,180.581z M719.932,177.28h27.911l-35.178-60.672l33.374-57.792h-27.521
				l-9.852,21.267c-2.845,6.531-5.309,12.187-8.259,20.119l-0.409,1.075h-2.605l-0.417-1.021c-2.87-6.807-5.615-12.836-9.174-20.144
				l-10.216-21.296h-27.746l33.044,58.537l-0.487,0.812l-33.806,59.115h27.532l9.674-21.078c0.589-1.326,1.17-2.607,1.732-3.848
				l0.78-1.727c2.626-5.779,4.892-10.768,6.828-16.16l0.399-1.088h2.559l2.949,6.121c2.417,5.033,4.912,10.234,8.304,16.611
				L719.932,177.28z"/>
		</g>
	</g>
	<g>
		<g>
			<path fill="#939598" d="M755.46,181.667h-38.237l-11.775-23.553c-3.369-6.326-5.884-11.564-8.317-16.629
				c-1.455,3.535-3.06,7.076-4.821,10.955c-0.8,1.764-1.637,3.607-2.516,5.562l-10.856,23.664h-37.902l36.794-64.348l-35.501-62.887
				h38.022l11.407,23.774c2.552,5.241,4.7,9.857,6.791,14.605c2.062-5.221,3.979-9.62,6.117-14.515l11.055-23.865h37.923
				l-35.906,62.176L755.46,181.667z M720.604,176.194h25.355l-34.544-59.586l32.746-56.705h-24.947l-9.56,20.631
				c-2.825,6.486-5.29,12.135-8.231,20.044l-0.66,1.782h-4.08l-0.709-1.677c-2.88-6.837-5.611-12.846-9.15-20.095l-9.917-20.686
				h-25.208l32.423,57.434l-33.657,58.857h24.963l9.387-20.443c0.867-1.947,1.712-3.799,2.513-5.574
				c2.62-5.771,4.88-10.758,6.792-16.068l0.649-1.809h3.999l0.746,1.531c0.858,1.766,1.684,3.494,2.516,5.207
				c2.416,5.037,4.917,10.248,8.279,16.566L720.604,176.194z"/>
			<path fill="#939598" d="M757.187,182.663h-40.579l-12.051-24.104c-2.927-5.498-5.214-10.18-7.364-14.646
				c-1.242,2.912-2.577,5.855-3.976,8.939l-13.641,29.811h-40.257l37.364-65.346l-36.061-63.88h40.353l11.676,24.338
				c2.182,4.479,4.067,8.5,5.848,12.476c1.781-4.405,3.475-8.282,5.253-12.354l11.333-24.46h40.281l-36.479,63.171L757.187,182.663z
				 M717.838,180.673h35.895l-37.147-64.065l35.332-61.18h-35.562L705.57,78.717c-2.054,4.697-3.999,9.152-6.098,14.461
				l-0.874,2.217l-0.961-2.184c-2.057-4.668-4.209-9.299-6.778-14.568l-11.137-23.215h-35.69l34.941,61.894l-36.223,63.351h35.548
				l13.103-28.645c1.721-3.787,3.347-7.367,4.808-10.924l0.851-2.064l0.966,2.014c2.444,5.084,4.949,10.301,8.301,16.594
				L717.838,180.673z M747.687,177.19h-27.698l-10.571-21.141c-3.367-6.328-5.869-11.541-8.285-16.582l-2.986-6.172h-2.678
				l-0.413,1.15c-1.943,5.396-4.204,10.377-6.821,16.143l-2.51,5.566l-9.659,21.035h-27.315l34.227-59.856l-32.982-58.427h27.541
				l10.188,21.25c3.509,7.189,6.25,13.212,9.17,20.141l0.449,1.066h2.729l0.421-1.131c2.926-7.873,5.361-13.463,8.181-19.937
				l9.906-21.389h27.308l-33.319,57.701L747.687,177.19z M721.219,175.198h23.014l-33.969-58.59l32.174-55.709h-22.589
				l-9.293,20.056c-2.868,6.585-5.292,12.152-8.199,19.971l-0.902,2.431h-5.434l-0.963-2.283c-2.901-6.894-5.633-12.89-9.127-20.047
				l-9.651-20.127h-22.877l31.864,56.441l-33.086,57.859h22.607l11.63-25.43c2.601-5.729,4.847-10.674,6.765-15.996l0.885-2.469
				h5.319l3.536,7.299c2.411,5.027,4.904,10.223,8.264,16.535L721.219,175.198z"/>
		</g>
		<g>
			<path fill="#939598" d="M756.598,182.321H716.82l-11.96-23.91c-3.079-5.785-5.448-10.662-7.688-15.324
				c-1.318,3.129-2.754,6.297-4.265,9.619l-0.083,0.18c-0.773,1.711-1.584,3.496-2.429,5.389l-11.042,24.047h-39.45l0.564-0.982
				l36.606-64.027L641.201,53.78h39.557l11.585,24.142c2.316,4.753,4.303,8.99,6.168,13.193c1.872-4.64,3.661-8.746,5.547-13.085
				l11.243-24.25h39.481l-36.289,62.828L756.598,182.321z M717.625,181.009h36.692l-37.342-64.401l0.193-0.332l35.339-61.184
				h-36.371l-10.879,23.482c-2.072,4.75-4.03,9.251-6.101,14.47l-0.578,1.465l-0.635-1.434c-2.057-4.671-4.21-9.305-6.781-14.58
				l-11.228-23.403H643.45l35.136,62.229l-0.188,0.321l-36.235,63.366h36.354l10.684-23.273c0.848-1.889,1.655-3.68,2.427-5.385
				l0.082-0.18c1.725-3.801,3.354-7.391,4.818-10.934l0.56-1.361l0.638,1.322c2.425,5.062,4.94,10.295,8.301,16.607L717.625,181.009
				z M747.103,176.847h-26.901l-10.478-20.953c-3.389-6.346-5.882-11.551-8.289-16.57l-0.13-0.268
				c-0.786-1.629-1.568-3.262-2.383-4.936l-0.569-1.168h-3.125l-0.494,1.373c-1.918,5.342-4.186,10.34-6.807,16.125
				c-0.808,1.771-1.648,3.623-2.518,5.57l-9.563,20.826h-26.517l0.562-0.973l33.475-58.537L650.575,59.25h26.74l10.102,21.054
				c3.539,7.261,6.28,13.278,9.163,20.124l0.538,1.276h3.185l0.506-1.355c2.949-7.923,5.402-13.556,8.243-20.07l9.745-21.029h26.502
				l-33.125,57.357L747.103,176.847z M721.006,175.542h23.813l-34.162-58.934l0.192-0.329l32.175-55.718h-23.392l-9.384,20.26
				c-2.834,6.478-5.278,12.093-8.211,19.982l-0.819,2.212h-4.97l-0.875-2.076c-2.869-6.823-5.609-12.818-9.137-20.064l-9.748-20.314
				h-23.671l32.058,56.781l-0.182,0.317l-33.099,57.882h23.408l9.211-20.066c0.871-1.934,1.704-3.799,2.515-5.562
				c2.615-5.766,4.873-10.746,6.772-16.023l0.801-2.248h4.87l0.932,1.906c0.811,1.672,1.597,3.309,2.389,4.939l0.127,0.266
				c2.399,5.01,4.89,10.193,8.264,16.549L721.006,175.542z"/>
			<path fill="#939598" d="M758.324,183.315h-42.12l-12.233-24.459c-2.649-4.973-4.739-9.215-6.744-13.365
				c-1.079,2.484-2.221,5.01-3.412,7.627l-0.402,0.881c-0.675,1.496-1.379,3.051-2.11,4.682l-11.311,24.635h-41.81l1.423-2.473
				l36.324-63.535l-36.431-64.523h41.886l11.855,24.707c1.974,4.047,3.66,7.628,5.229,11.095c1.504-3.653,2.97-7.025,4.507-10.559
				l0.171-0.394l11.519-24.849h41.842l-36.861,63.823L758.324,183.315z M718.24,180.015h34.351l-36.767-63.407l0.485-0.831
				l34.475-59.688h-34.013l-10.612,22.906c-1.841,4.22-3.938,9.027-6.077,14.415l-1.45,3.679l-1.6-3.61
				c-2.074-4.719-4.224-9.339-6.766-14.546l-10.959-22.843h-34.152l34.579,61.242l-0.477,0.814l-35.378,61.87h33.999l12.98-28.379
				c1.702-3.75,3.311-7.289,4.75-10.777l1.404-3.424l1.608,3.33c2.268,4.738,4.841,10.107,8.283,16.574L718.24,180.015z
				 M748.829,177.841h-29.243l-10.751-21.502c-3.356-6.281-5.832-11.445-8.229-16.441l-2.875-5.951h-1.804l-0.258,0.715
				c-1.909,5.324-4.155,10.277-6.753,16.016c-0.891,1.955-1.729,3.805-2.602,5.748l-9.832,21.416h-28.878l1.423-2.463l33.193-58.043
				l-33.352-59.08h29.072l10.371,21.619c3.562,7.305,6.309,13.34,9.186,20.169l0.281,0.667h1.832l0.263-0.707
				c2.98-8.008,5.431-13.624,8.264-20.121l10.023-21.627h28.86l-33.695,58.353L748.829,177.841z M721.622,174.546h21.471
				l-33.587-57.941l0.485-0.831L741.3,61.556h-21.03l-9.116,19.685c-2.668,6.094-5.195,11.872-8.182,19.908l-1.061,2.862h-6.324
				l-1.132-2.686c-2.801-6.665-5.526-12.649-9.114-20.014l-9.478-19.755h-21.341l31.499,55.789l-32.709,57.201h21.054l9.421-20.549
				c0.7-1.555,1.378-3.061,2.039-4.5c2.6-5.734,4.849-10.691,6.741-15.945l1.031-2.906h6.193l3.728,7.678
				c2.255,4.711,4.812,10.047,8.245,16.512L721.622,174.546z"/>
		</g>
	</g>
</g>
<g>
	<path fill="#FFFFFF" d="M568.97,147.677l-8.676,31.252h-28.538L568.97,57.175h36.13l37.759,121.754h-29.63l-9.39-31.252l-18-65.01
		L568.97,147.677z"/>
</g>
<g>
	<path fill="#FFFFFF" d="M718.911,178.929l-11.02-22.043c-4.514-8.486-7.407-14.809-10.838-21.855h-0.363
		c-2.526,7.047-5.599,13.369-9.391,21.855l-10.118,22.043h-31.437l35.228-61.604l-33.962-60.15h31.617l10.654,22.217
		c3.616,7.405,6.321,13.363,9.214,20.232h0.367c2.884-7.768,5.234-13.185,8.313-20.232l10.287-22.217H748.9l-34.326,59.433
		l36.136,62.321H718.911z"/>
</g>
<g>
	<g>
		<g>
			<polygon fill="#939598" points="594.037,139.888 552.357,113.696 591.139,117.504 			"/>
			<path fill="#939598" d="M595.297,141.853l-47.044-29.561l43.771,4.299L595.297,141.853z M556.46,115.099l36.318,22.824
				l-2.524-19.505L556.46,115.099z"/>
		</g>
		<g>
			<path fill="#939598" d="M594.864,141.179l-45.213-28.405l42.066,4.126L594.864,141.179z M555.06,114.625l38.152,23.961
				l-2.66-20.479L555.06,114.625z"/>
			<path fill="#939598" d="M596.124,143.144l-50.576-31.774l47.055,4.617L596.124,143.144z M559.165,116.029l32.788,20.593
				l-2.286-17.601L559.165,116.029z"/>
		</g>
	</g>
	<g>
		<g>
			<path fill="#939598" d="M597.494,145.282l-56.419-35.444l52.496,5.156L597.494,145.282z M563.632,117.549l26.947,16.93
				l-1.877-14.465L563.632,117.549z"/>
			<path fill="#939598" d="M598.753,147.247l-61.784-38.812l57.487,5.646L598.753,147.247z M545.183,111.243l51.052,32.075
				l-3.548-27.41L545.183,111.243z M591.839,136.446l-32.312-20.3l30.061,2.955L591.839,136.446z M567.738,118.953l21.582,13.562
				l-1.503-11.587L567.738,118.953z"/>
		</g>
		<g>
			<path fill="#939598" d="M601.182,148.282l-62.812-39.368l55.78,5.473L601.182,148.282z M543.775,110.763l52.896,33.232
				l-3.681-28.399L543.775,110.763z M591.405,135.776l-30.475-19.148l28.353,2.786L591.405,135.776z M566.342,118.479l23.411,14.706
				l-1.631-12.569L566.342,118.479z"/>
			<path fill="#939598" d="M602.63,150.364l-68.375-42.854l60.721,5.958L602.63,150.364z M597.806,144.993l1.926,1.209
				l-4.722-22.765L597.806,144.993z M547.879,112.167l47.533,29.864l-3.307-25.521L547.879,112.167z M592.664,137.741
				l-35.838-22.517l33.342,3.275L592.664,137.741z M570.444,119.883l18.049,11.336l-1.256-9.692L570.444,119.883z"/>
		</g>
	</g>
</g>
<g>
	<g>
		<g>
			<path fill="#939598" d="M790.433,133.47l5.527,13.021l-32.225-9.422c0.216,0.922,0.182,1.805-0.137,2.633
				c-4.498,11.973-62.879,9.107-130.399-6.373c-18.56-4.256-35.869-9.027-51.134-13.95l1.209,10.969
				c18.315,6.164,39.156,12.053,61.563,17.186c81.017,18.588,151.692,20.385,157.846,4.021
				C804.602,146.468,800.047,140.218,790.433,133.47z"/>
			<path fill="#939598" d="M758.77,163.739c-0.006,0-0.006,0-0.009,0c-30.351-0.004-71.954-5.557-114.147-15.236
				c-21.861-5.008-42.607-10.799-61.657-17.211l-0.601-0.203l-1.447-13.131l1.464,0.474c15.794,5.094,32.97,9.781,51.048,13.927
				c38.104,8.734,74.465,13.746,99.755,13.746c17.133,0,27.881-2.461,29.49-6.752c0.244-0.635,0.275-1.305,0.102-2.057l-0.39-1.662
				l31.845,9.311l-6.063-14.287l2.849,2c10.424,7.312,14.666,13.791,12.607,19.25C799.939,161.685,777.2,163.739,758.77,163.739z
				 M584.193,129.608c18.825,6.309,39.298,12.016,60.865,16.957c42.055,9.646,83.497,15.18,113.702,15.18c0,0,0.006,0,0.009,0
				c24.798,0.002,40.464-3.84,42.982-10.541c1.488-3.951-1.608-9.021-8.979-14.77l4.926,11.602l-32.835-9.6
				c-0.025,0.561-0.137,1.104-0.334,1.623c-2.002,5.33-12.553,8.035-31.355,8.035c-25.436,0-61.957-5.027-100.197-13.797
				c-17.58-4.031-34.309-8.573-49.755-13.501L584.193,129.608z"/>
		</g>
		<g>
			<path fill="#939598" d="M758.764,163.399c0,0,0,0-0.006,0c-30.319,0-71.892-5.545-114.064-15.221
				c-21.929-5.029-42.658-10.82-61.626-17.217l-0.394-0.129l-1.367-12.387l0.962,0.314c15.789,5.088,32.973,9.768,51.08,13.924
				c38.113,8.746,74.503,13.76,99.832,13.76c17.535,0,28.122-2.473,29.809-6.971c0.255-0.691,0.298-1.451,0.114-2.256l-0.25-1.09
				l31.966,9.342l-5.885-13.854l1.875,1.318c10.281,7.213,14.479,13.562,12.493,18.85
				C799.689,161.386,777.092,163.399,758.764,163.399z M583.881,129.854c18.814,6.33,39.378,12.059,61.101,17.045
				c42.089,9.646,83.556,15.188,113.776,15.188c0.006,0,0.006,0,0.006,0c25.316,0,40.699-3.818,43.305-10.764
				c1.614-4.279-1.876-9.768-10.104-15.938l5.147,12.119l-32.591-9.516c0.028,0.674-0.067,1.328-0.306,1.945
				c-2.432,6.465-18.219,7.824-31.034,7.824c-25.425,0-61.918-5.029-100.123-13.791c-17.776-4.078-34.667-8.667-50.229-13.654
				L583.881,129.854z"/>
			<path fill="#939598" d="M758.764,164.394h-0.006c-30.401,0-72.059-5.555-114.29-15.246
				c-21.963-5.035-42.729-10.838-61.719-17.242l-0.994-0.324l-1.608-14.562l2.43,0.795c15.709,5.062,32.866,9.738,50.997,13.902
				c38.036,8.729,74.342,13.734,99.607,13.734c23.921,0,28.163-4.424,28.875-6.324c0.191-0.51,0.216-1.082,0.077-1.688l-0.629-2.742
				l31.579,9.229l-6.428-15.13l4.728,3.326c10.694,7.504,15.02,14.238,12.854,20.014
				C801.173,160.271,785.875,164.394,758.764,164.394z M584.8,129.115c18.554,6.216,38.873,11.871,60.407,16.814
				c42.039,9.637,83.428,15.164,113.551,15.164c24.521,0,39.965-3.689,42.378-10.119c1.234-3.27-1.083-7.5-6.713-12.344
				l4.428,10.422l-33.426-9.762c-0.062,0.346-0.158,0.68-0.282,1.004c-2.107,5.609-12.864,8.459-31.962,8.459
				c-25.49,0-62.065-5.035-100.346-13.816c-17.271-3.961-33.695-8.403-48.849-13.207L584.8,129.115z"/>
		</g>
	</g>
	<g>
		<g>
			<path fill="#939598" d="M758.764,165.478c0,0,0,0-0.006,0c-30.466,0-72.214-5.57-114.538-15.27
				c-21.975-5.045-42.772-10.854-61.821-17.268l-1.654-0.557l-1.859-16.902l4.021,1.293c15.733,5.077,32.86,9.75,50.905,13.89
				c37.974,8.707,74.186,13.699,99.36,13.699c0,0,0,0,0.009,0c18.998,0,26.888-3.029,27.857-5.627
				c0.076-0.188,0.162-0.51,0.034-1.061l-1.038-4.537l31.153,9.111l-7.014-16.52l7.833,5.499
				c11.153,7.836,15.605,14.994,13.241,21.291C802.013,161.118,786.369,165.478,758.764,165.478z M585.805,128.306
				c18.419,6.144,38.479,11.712,59.644,16.562c41.938,9.619,83.231,15.139,113.31,15.139c35.099,0,40.541-7.203,41.368-9.416
				c0.003-0.012,0.006-0.016,0.012-0.027l-33.961-9.93c-0.006,0.012-0.008,0.02-0.017,0.031c-2.317,6.178-13.108,9.166-32.979,9.172
				h-0.009c-25.568,0-62.224-5.041-100.582-13.846c-16.676-3.822-32.58-8.102-47.348-12.733L585.805,128.306z M797.607,143.354
				l2.723,6.428C800.583,148.003,799.633,145.81,797.607,143.354z"/>
			<path fill="#939598" d="M758.764,166.474h-0.006c-30.518,0-72.348-5.576-114.76-15.295
				c-22.021-5.057-42.851-10.873-61.918-17.293l-2.255-0.76l-2.098-19.062l5.482,1.764c15.713,5.068,32.812,9.736,50.822,13.868
				c37.899,8.689,74.033,13.672,99.14,13.672c19.835,0,26.29-3.258,26.934-4.98c0.062-0.152,0.025-0.367-0.003-0.486l-1.419-6.195
				l30.765,9l-7.552-17.789l10.683,7.5c11.568,8.127,16.146,15.68,13.603,22.451C802.783,161.896,786.831,166.474,758.764,166.474z
				 M581.663,131.644l1.052,0.352c19.005,6.402,39.771,12.201,61.729,17.244c42.273,9.686,83.938,15.242,114.314,15.242h0.006
				c26.769,0,42.522-4.256,45.551-12.312c2.187-5.814-2.148-12.584-12.88-20.125l-4.983-3.5l6.475,15.251l-31.542-9.225l0.658,2.885
				c0.146,0.623,0.119,1.168-0.082,1.658c-1.455,3.898-12.218,6.244-28.779,6.244c-25.258,0-61.555-5.002-99.591-13.723
				c-18.071-4.146-35.226-8.826-50.99-13.913l-2.558-0.823L581.663,131.644z M758.758,161.001
				c-30.141,0-71.521-5.525-113.532-15.162c-21.195-4.855-41.291-10.438-59.736-16.588l-0.604-0.201l-0.801-7.197l1.455,0.456
				c14.757,4.628,30.659,8.906,47.271,12.714c38.273,8.783,74.853,13.82,100.361,13.82c19.153-0.008,29.937-2.875,32.055-8.525
				l0.508-0.996l0.721,0.357l32.546,9.514l-4.978-11.752l4.354,5.281c2.224,2.697,3.215,5.102,2.946,7.148l0.234,0.072l-0.343,0.688
				l-0.402,2.846l-0.499-1.178C797.869,155.624,789.16,161.001,758.758,161.001z M586.724,127.563
				c18.218,6.053,38.046,11.545,58.944,16.334c41.873,9.607,83.095,15.113,113.09,15.113c30.405,0,38.014-5.398,39.897-7.844
				l-31.913-9.33c-3.016,6.107-13.739,8.99-33.562,8.994c-25.66,0-62.402-5.055-100.816-13.869
				c-16.113-3.695-31.572-7.831-45.965-12.299L586.724,127.563z"/>
		</g>
		<g>
			<path fill="#939598" d="M758.764,166.136h-0.006c-30.515-0.006-72.316-5.58-114.677-15.289
				c-22.004-5.053-42.829-10.865-61.89-17.289l-2.054-0.689l-2.014-18.325l4.983,1.611c15.714,5.068,32.829,9.73,50.851,13.864
				c37.932,8.701,74.088,13.688,99.214,13.688c20.022,0,26.579-3.395,27.257-5.193c0.03-0.082,0.102-0.275,0.009-0.684l-1.297-5.635
				l30.898,9.035l-7.363-17.347l9.708,6.812c11.43,8.025,15.964,15.443,13.474,22.053
				C802.52,161.636,786.676,166.136,758.764,166.136z M581.351,131.892l1.258,0.426c19.019,6.408,39.797,12.207,61.758,17.248
				c42.279,9.699,83.97,15.256,114.392,15.262l0.006,0.65v-0.65c27.309,0,42.744-4.223,45.872-12.541
				c2.246-5.977-2.128-12.881-13.006-20.514l-5.953-4.178l6.658,15.668l-31.412-9.186l0.793,3.457
				c0.119,0.537,0.099,1.002-0.06,1.436c-1.101,2.92-9.16,6.049-28.476,6.049c-25.229,0-61.486-5-99.517-13.721
				c-18.054-4.14-35.199-8.817-50.956-13.904l-3.061-0.981L581.351,131.892z M758.758,160.665c-30.123,0-71.483-5.523-113.455-15.15
				c-21.184-4.861-41.274-10.441-59.702-16.584l-0.404-0.13l-0.715-6.467l0.962,0.301c14.728,4.622,30.638,8.902,47.293,12.716
				c38.311,8.785,74.917,13.828,100.436,13.828c19.577,0,30.17-2.857,32.379-8.738l0.215-0.578l0.599,0.139l33.229,9.711
				l-4.353-10.238l2.87,3.461c2.175,2.637,3.142,4.969,2.872,6.936l-0.031,0.244l0.023,0.012l-0.049,0.146l-0.266,1.949l-0.287-0.66
				C798.433,154.841,790.534,160.665,758.758,160.665z M586.405,127.818c18.286,6.078,38.197,11.601,59.186,16.417
				c41.894,9.604,83.141,15.117,113.167,15.117c32.052,0,38.976-6.084,40.444-8.387l-32.651-9.539
				c-2.872,6.107-13.802,9.061-33.37,9.061c-25.617,0-62.338-5.045-100.739-13.855c-16.323-3.742-31.94-7.929-46.43-12.449
				L586.405,127.818z"/>
			<path fill="#939598" d="M758.764,167.13h-0.006c-30.589-0.006-72.47-5.586-114.899-15.314
				c-22.094-5.072-42.949-10.898-61.985-17.312l-2.654-0.893l-2.252-20.488l6.447,2.084c15.643,5.045,32.724,9.702,50.767,13.842
				c37.848,8.68,73.93,13.661,98.991,13.661c20.434,0,25.963-3.588,26.327-4.549l-1.707-7.398l30.508,8.922l-7.897-18.616
				l12.555,8.811c11.849,8.32,16.502,16.131,13.831,23.219C803.291,162.409,787.135,167.13,758.764,167.13z M758.758,163.833h0.006
				c21.892,0,36.306-2.814,42.296-8.188l-0.928-2.139c-3.783,4.004-14.248,8.152-41.374,8.152c-30.19,0-71.625-5.529-113.677-15.174
				c-21.215-4.867-41.331-10.457-59.796-16.611l-1.008-0.326l-0.952-8.618l2.416,0.754c14.72,4.62,30.606,8.891,47.217,12.698
				c38.25,8.771,74.778,13.801,100.214,13.801c18.848,0,29.429-2.723,31.445-8.09l0.522-1.398l1.448,0.338l31.267,9.135
				l-6.193-14.566l7.214,8.699c2.199,2.666,3.251,5.092,3.14,7.234l0.151,0.076l-0.244,0.824l-0.707,5.068
				c1.172-1.086,2.003-2.277,2.487-3.566c2.068-5.5-2.186-12.012-12.646-19.352l-3.103-2.178l6.12,14.402l-31.803-9.301l0.415,1.801
				c0.161,0.732,0.13,1.385-0.094,2.004c-1.608,4.262-12.325,6.701-29.412,6.701c-25.292,0-61.643-5.012-99.738-13.746
				c-18.106-4.152-35.282-8.84-51.041-13.928l-1.598-0.511l1.466,13.322l0.659,0.223c18.949,6.387,39.694,12.182,61.662,17.221
				C686.778,158.274,728.391,163.827,758.758,163.833z M587.327,127.076c18.074,5.984,37.746,11.429,58.489,16.191
				c41.835,9.592,83.002,15.09,112.941,15.09c27.35,0,35.997-4.416,38.683-6.869l-30.39-8.879
				c-3.562,6.049-14.379,8.873-33.87,8.873c-25.711,0-62.508-5.059-100.961-13.879c-15.825-3.627-30.974-7.672-45.054-12.018
				L587.327,127.076z"/>
		</g>
	</g>
</g>
<g>
	<g>
		<path fill="#939598" d="M580.933,116.645l-18.151-6.908c-32.469-12.345-42.386-21.809-41.13-25.149
			c0.976-2.592,8.857-5.621,27.863-5.621c3.085,0,6.398,0.079,9.879,0.232l2.603-8.721c-3.026-0.088-5.979-0.145-8.791-0.145
			c-27.614,0-43.261,4.365-46.493,12.961c-2.859,7.6,3.06,20.362,46.113,38.518c1.698,0.72,21.241,8.429,23.062,9.16l-15.257-11.796
			l-7.359-4.851L580.933,116.645z M535.15,107.323c-15.005-8.09-25.447-16.437-23.316-22.104c0.375-0.984,1.65-2.958,6.071-4.847
			c-0.609,0.709-1.066,1.469-1.372,2.286c-2.734,7.257,6.659,15.791,27.945,25.444L535.15,107.323z"/>
		<path fill="#939598" d="M582.163,134.569l-6.647-2.672c-0.594-0.242-3.078-1.223-6.212-2.463
			c-6.632-2.624-15.714-6.215-16.868-6.707c-35.289-14.88-50.987-28.269-46.656-39.786c3.397-9.026,19.353-13.604,47.426-13.604
			c2.821,0,5.785,0.057,8.818,0.144l1.297,0.037l-3.196,10.709l-0.773-0.034c-3.494-0.156-6.801-0.233-9.836-0.233
			c-19.819,0-26.282,3.256-26.93,4.978c-0.874,2.314,8.131,11.54,40.552,23.867l24.751,9.421l-30.809-2.583l4.097,2.7
			L582.163,134.569z M553.205,71.329c-26.777,0-42.531,4.26-45.56,12.316c-5.098,13.542,26.362,29.151,45.565,37.25
			c1.117,0.471,10.254,4.087,16.5,6.557l-9.692-7.49l-10.557-6.956l24.513,2.056l-11.547-4.395
			c-31.213-11.869-43.439-21.826-41.71-26.432c1.479-3.922,12.244-6.264,28.797-6.264c2.837,0,5.91,0.068,9.146,0.201l2.011-6.735
			C558.108,71.371,555.606,71.329,553.205,71.329z M550.134,109.575l-15.457-1.375c-12.345-6.656-26.49-16.108-23.776-23.332
			c0.539-1.409,2.119-3.491,6.614-5.411l3.938-1.682l-2.793,3.247c-0.53,0.616-0.934,1.285-1.194,1.985
			c-2.476,6.568,7.008,14.932,27.424,24.188L550.134,109.575z M535.44,106.348l3.613,0.304
			c-18.126-8.866-25.864-16.699-23.615-23.868c-1.884,1.228-2.484,2.294-2.675,2.79C511.099,90.007,519.57,97.766,535.44,106.348z"
			/>
	</g>
	<g>
		<path fill="#939598" d="M580.042,133.36l-4.408-1.781c-0.672-0.275-3.8-1.508-7.553-2.989c-6.43-2.553-14.442-5.715-15.515-6.171
			c-24.12-10.176-51.762-25.263-46.467-39.358c3.341-8.879,19.188-13.379,47.105-13.379c2.757,0,5.725,0.051,8.814,0.147
			l0.851,0.028l-2.988,10.017l-0.514-0.023c-3.478-0.153-6.793-0.23-9.854-0.23c-20.011,0-26.572,3.401-27.244,5.193
			c-0.95,2.521,7.772,11.769,40.749,24.315l22.492,8.554l-29.735-2.485l5.207,3.429L580.042,133.36z M553.205,70.997
			c-27.315,0-42.753,4.211-45.878,12.529c-2.723,7.238,3.007,19.654,45.749,37.684c1.062,0.454,9.059,3.613,15.484,6.154
			c1.16,0.468,2.259,0.894,3.245,1.29l-11.573-8.961l-9.472-6.236l25.586,2.149l-13.798-5.258
			c-30.997-11.783-43.187-21.547-41.51-25.994c1.098-2.915,9.154-6.046,28.476-6.046c2.936,0,6.089,0.068,9.399,0.215l2.212-7.416
			C558.36,71.031,555.694,70.997,553.205,70.997z M548.205,109.073l-13.365-1.171c-12.224-6.593-26.247-15.918-23.621-22.917
			c0.416-1.094,1.798-3.238,6.426-5.212l2.596-1.112l-1.844,2.138c-0.545,0.647-0.971,1.344-1.249,2.093
			c-2.58,6.857,6.704,15.135,27.597,24.614L548.205,109.073z M535.348,106.679l5.501,0.459
			c-19.522-9.291-27.683-17.39-24.928-24.707c0.057-0.153,0.112-0.3,0.184-0.448c-2.651,1.492-3.435,2.87-3.657,3.468
			C510.685,90.134,519.031,97.871,535.348,106.679z"/>
		<path fill="#939598" d="M586.362,136.987l-11.102-4.486c-0.643-0.262-3.498-1.387-6.994-2.768l-5.922-2.346
			c-4.883-1.935-9.384-3.718-10.169-4.053c-24.519-10.342-52.58-25.79-47.009-40.622c3.502-9.308,19.664-14.027,48.038-14.027
			c2.764,0,5.745,0.051,8.846,0.148l2.141,0.07l-3.579,12l-1.287-0.057c-3.449-0.152-6.747-0.229-9.811-0.229
			c-20.43,0-25.951,3.587-26.311,4.546c-0.355,1.143,5.214,9.735,40.171,23.037l29.094,11.062l-32.88-2.748l1.942,1.281
			L586.362,136.987z M553.205,71.993c-26.482,0-42.023,4.109-44.944,11.882c-2.105,5.593,0.97,17.759,45.202,36.42
			c0.879,0.374,6.586,2.631,12.174,4.843l-6.015-4.656l-12.676-8.343l22.452,1.886l-7.203-2.745
			c-28.252-10.74-44.38-21.194-42.087-27.277c1.6-4.251,12.316-6.69,29.406-6.69c2.797,0,5.709,0.062,8.667,0.184l1.62-5.428
			C557.507,72.016,555.294,71.993,553.205,71.993z M553.927,110.573l-19.562-1.794c-18.286-9.867-26.389-17.989-24.08-24.143
			c0.584-1.532,2.267-3.772,6.968-5.78l6.552-2.805l-4.653,5.397c-0.477,0.567-0.841,1.171-1.07,1.79
			c-2.332,6.194,7.033,14.268,27.075,23.36L553.927,110.573z M535.636,105.704l0.091,0.009c-0.635-0.326-1.257-0.655-1.86-0.979
			C534.441,105.055,535.032,105.377,535.636,105.704z M514.442,84.377c-0.733,0.691-0.986,1.219-1.063,1.423
			c-0.904,2.402,1.9,6.954,11.293,13.327C517.354,93.935,513.979,89.048,514.442,84.377z"/>
	</g>
</g>
<g>
	<g>
		<g>
			<path fill="#939598" d="M773.679,120.544c-19.28-9.362-45.01-18.584-74.407-26.687l-2.079-0.57l5.885,14.523
				c21.255,6.94,38.671,14.296,49.155,20.78l0.888,0.55l28.201-4.893L773.679,120.544z M754.221,123.394
				c-11.159-6.729-28.444-13.969-50.138-21.017l-0.73-1.691c22.975,6.548,43.459,13.752,60.045,21.114L754.221,123.394z"/>
			<path fill="#939598" d="M752.919,130.187l-1.21-0.752c-10.386-6.42-27.768-13.765-48.941-20.676l-0.439-0.145l-6.815-16.817
				l4.022,1.1c29.484,8.127,55.271,17.379,74.577,26.751l10.426,5.054L752.919,130.187z M703.826,107.008
				c21.118,6.92,38.486,14.275,48.932,20.733l0.563,0.352l24.784-4.299l-4.86-2.354c-19.2-9.321-44.872-18.527-74.238-26.624
				l-0.137-0.037L703.826,107.008z M754.024,124.438l-0.316-0.19c-11.058-6.67-28.324-13.904-49.931-20.923l-0.428-0.139
				l-1.748-4.033l2.023,0.576c23.179,6.608,43.426,13.727,60.175,21.162l2.998,1.33L754.024,124.438z M718.349,106.212
				c15.102,5.464,27.406,10.963,36.067,16.139l5.548-0.965C747.922,116.205,733.781,111.052,718.349,106.212z"/>
		</g>
	</g>
	<g>
		<g>
			<path fill="#939598" d="M752.987,129.823l-1.098-0.674c-16.577-10.246-34.058-15.884-48.259-20.521l-0.628-0.127l-6.225-16.114
				l2.671,0.84c29.427,8.111,55.196,17.356,74.518,26.723l9.473,4.598L752.987,129.823z M703.563,107.281
				c21.168,6.931,38.567,14.296,49.019,20.754l0.675,0.413l25.948-4.5l-5.813-2.813c-19.244-9.339-44.941-18.556-74.29-26.638
				l-0.804-0.227L703.563,107.281z M754.093,124.081l-0.205-0.13c-11.113-6.682-28.404-13.93-50.006-20.953l-0.281-0.087
				l-1.399-3.239l1.327,0.38c22.826,6.508,43.62,13.822,60.136,21.15l1.971,0.882L754.093,124.081z M704.571,101.841
				c21.432,6.979,38.629,14.191,49.78,20.862l6.788-1.181c-15.795-6.862-35.298-13.694-56.633-19.828L704.571,101.841z"/>
			<path fill="#939598" d="M752.786,130.87l-1.418-0.873c-16.248-10.042-33.549-15.692-47.455-20.23l-1.643-0.399l-7.166-18.55
				l4.644,1.458c29.435,8.113,55.261,17.375,74.654,26.777l12.25,5.946L752.786,130.87z M704.312,106.478
				c21.044,6.914,38.357,14.263,48.793,20.708l0.353,0.219l22.528-3.908l-3.028-1.466c-18.959-9.201-44.174-18.272-72.978-26.259
				l1.021,2.521l2.803,0.803c22.863,6.517,43.701,13.848,60.263,21.196l4.956,2.217l-15.139,2.618l-0.531-0.338
				c-11.043-6.639-28.263-13.851-49.779-20.844l-0.326-0.102L704.312,106.478z M740.021,114.223
				c5.566,2.521,10.437,5.014,14.523,7.436l3.117-0.542C752.173,118.803,746.267,116.498,740.021,114.223z"/>
		</g>
	</g>
</g>
<g>
	<polygon fill="#1C75BC" stroke="#1C75BC" stroke-width="1.9909" stroke-miterlimit="10" points="729.508,123.471 789.086,141.028 
		777.373,115.181 	"/>
</g>
<g>
	<g>
		<g>
			<path fill="#939598" d="M778.993,112.119l-22.231,3.854l5.732,2.379l-18.034,3.332l-4.854-2.742l-20.608,4.005l75.045,22.394
				L778.993,112.119z M775.755,118.233l8.368,18.481l-42.589-12.548L775.755,118.233z"/>
		</g>
	</g>
	<g>
		<g>
			<path fill="#939598" d="M795.233,146.376l-76.729-23.429l21.211-4.69l4.854,2.738l15.627-2.881l-5.771-2.399l24.953-4.325
				L795.233,146.376z M721.74,123.077l71.105,21.225l-14.244-31.446l-19.504,3.377l5.687,2.363l-20.447,3.777l-4.849-2.74
				L721.74,123.077z M785.314,137.751l-46.664-13.755l37.495-6.491L785.314,137.751z M744.423,124.33l38.516,11.349l-7.573-16.708
				L744.423,124.33z"/>
			<path fill="#939598" d="M797.053,147.972l-77.337-23.616l0.294-1.58l-1.33-0.891l21.193-4.682l4.872,2.751l11.968-2.212
				l-5.836-2.422l29.092-5.042L797.053,147.972z M725.909,123.281l65.129,19.439l-13.024-28.751l-15.367,2.66l3.746,1.554
				l10.34-1.79l10.386,22.925l-52.843-15.574l8.011-1.388l-2.968-1.673L725.909,123.281z M748.798,124.581l32.34,9.53l-6.359-14.029
				L748.798,124.581z"/>
		</g>
	</g>
</g>
<g>
	<g>
		<polygon fill="#FFFFFF" points="597.77,142.21 552.357,113.696 591.139,117.504 		"/>
		<path fill="#939598" d="M599.388,144.403l-51.138-32.112l43.672,4.288L599.388,144.403z M556.464,115.099l39.687,24.919
			l-5.794-21.59L556.464,115.099z"/>
	</g>
</g>
<g>
	<path fill="#FFFFFF" d="M790.433,133.47l5.527,13.021l-32.119-8.939c0.142,0.68,0.064,1.35-0.254,2.178
		c-4.495,11.975-62.867,9.08-130.388-6.4c-18.56-4.256-35.869-9.027-51.134-13.95l1.209,10.969
		c18.315,6.164,39.156,12.053,61.563,17.186c81.017,18.588,151.692,20.385,157.846,4.021
		C804.602,146.468,800.047,140.218,790.433,133.47z"/>
</g>
<path fill="#FFFFFF" d="M519.094,83.625c2.178-5.799,17.021-8.103,39.394-7.195l0.965-3.281
	c-28.188-0.653-47.122,2.992-50.179,11.103c-3.642,9.713,16.198,23.615,49.851,37.208l-16.336-10.754l19.021,1.588
	C533.398,101.489,516.414,90.738,519.094,83.625z"/>
<path fill="#FFFFFF" d="M658.483,86.586c-14.652-3.188-28.926-5.851-42.448-7.916l1.583,5.015
	c9.972,1.798,20.316,3.894,30.909,6.318c4.705,1.072,9.296,2.192,13.825,3.329L658.483,86.586z"/>
<g>
	<path fill="#FFFFFF" d="M700.578,96.821l3.174,8.156c21.261,6.985,37.661,14.021,48.242,20.561l18.813-3.265
		C752.813,113.548,729.004,104.805,700.578,96.821z"/>
</g>
<g>
	<polygon fill="#FFFFFF" points="729.508,123.471 789.086,141.028 777.373,115.181 	"/>
</g>
</svg>
