<?xml version="1.0" encoding="utf-8"?>
<!-- Generator: Adobe Illustrator 16.0.0, SVG Export Plug-In . SVG Version: 6.00 Build 0)  -->
<!DOCTYPE svg PUBLIC "-//W3C//DTD SVG 1.1//EN" "http://www.w3.org/Graphics/SVG/1.1/DTD/svg11.dtd">
<svg version="1.1" id="Layer_1" xmlns="http://www.w3.org/2000/svg" xmlns:xlink="http://www.w3.org/1999/xlink" x="0px" y="0px"
	 width="841.89px" height="226.119px" viewBox="0 0 841.89 226.119" enable-background="new 0 0 841.89 226.119"
	 xml:space="preserve">
<g>
	<g>
		<path fill="#FFFFFF" d="M60.873,138.937c7.038,3.604,17.852,7.208,29.009,7.208c12.014,0,18.366-4.978,18.366-12.528
			c0-7.21-5.493-11.329-19.396-16.307c-19.224-6.694-31.754-17.336-31.754-34.157c0-19.74,16.478-34.844,43.769-34.844
			c13.045,0,22.657,2.747,29.523,5.836l-5.835,21.112c-4.635-2.232-12.874-5.493-24.202-5.493c-11.328,0-16.821,5.149-16.821,11.156
			c0,7.381,6.522,10.643,21.456,16.307c20.425,7.552,30.036,18.194,30.036,34.5c0,19.396-14.932,35.875-46.687,35.875
			c-13.215,0-26.261-3.434-32.783-7.037L60.873,138.937z"/>
		<path fill="#FFFFFF" d="M180.17,57.921v24.03h18.709v19.224H180.17v30.381c0,10.126,2.403,14.76,10.299,14.76
			c3.26,0,5.835-0.342,7.724-0.685l0.171,19.74c-3.432,1.373-9.611,2.23-16.992,2.23c-8.41,0-15.448-2.918-19.567-7.209
			c-4.806-4.977-7.209-13.046-7.209-24.889v-34.328h-11.157V81.951h11.157V63.757L180.17,57.921z"/>
		<path fill="#FFFFFF" d="M233.212,132.244c0.858,10.812,11.5,15.962,23.688,15.962c8.925,0,16.134-1.203,23.171-3.433l3.433,17.678
			c-8.582,3.434-19.051,5.15-30.381,5.15c-28.493,0-44.799-16.479-44.799-42.741c0-21.283,13.217-44.797,42.396-44.797
			c27.119,0,37.418,21.112,37.418,41.881c0,4.462-0.515,8.409-0.858,10.299H233.212z M263.936,114.391
			c0-6.35-2.747-16.991-14.761-16.991c-10.985,0-15.448,9.955-16.134,16.991H263.936z"/>
		<path fill="#FFFFFF" d="M323.846,132.244c0.858,10.812,11.5,15.962,23.688,15.962c8.925,0,16.135-1.203,23.171-3.433l3.433,17.678
			c-8.582,3.434-19.052,5.15-30.381,5.15c-28.492,0-44.798-16.479-44.798-42.741c0-21.283,13.217-44.797,42.396-44.797
			c27.119,0,37.417,21.112,37.417,41.881c0,4.462-0.514,8.409-0.857,10.299H323.846z M354.57,114.391
			c0-6.35-2.747-16.991-14.761-16.991c-10.986,0-15.449,9.955-16.135,16.991H354.57z"/>
		<path fill="#FFFFFF" d="M394.396,108.727c0-10.469-0.342-19.396-0.686-26.776h21.97l1.201,11.329h0.515
			c3.605-5.321,10.985-13.216,25.403-13.216c10.813,0,19.396,5.492,23.001,14.246h0.344c3.09-4.291,6.864-7.724,10.813-10.127
			c4.635-2.747,9.783-4.119,15.963-4.119c16.135,0,28.321,11.328,28.321,36.389v49.433h-25.403v-45.657
			c0-12.187-3.949-19.224-12.359-19.224c-6.007,0-10.299,4.119-12.014,9.097c-0.687,1.888-1.029,4.635-1.029,6.695v49.089h-25.404
			v-47.031c0-10.642-3.776-17.85-12.015-17.85c-6.696,0-10.643,5.148-12.188,9.441c-0.858,2.059-1.029,4.462-1.029,6.522v48.918
			h-25.403V108.727z"/>
	</g>
	<g>
		<path fill="#FFFFFF" d="M558.296,109.791l-15.871-10.448l8.904,0.745l-0.011,0.03l25.05,2.377l7.845-30.341l10.189,36.814
			c9.468,2.769,19.549,5.457,30.094,7.977l-13.862-44.707c11.234,1.928,23.375,4.208,35.48,6.98
			c6.154,1.417,12.163,2.884,18.003,4.398l12.541,22.22l-11.176,19.542c8.405,1.445,16.485,2.649,24.132,3.606
			c0.816-1.971,1.592-3.928,2.318-5.948h0.354c1.093,2.257,2.143,4.438,3.195,6.639c10.866,1.213,20.73,1.892,29.226,2.018
			l-15.395-26.56l3.699-6.408c9.6,3.577,17.968,7.165,24.753,10.612l-13.896,2.405l57.895,17.068l-11.378-25.122l-15.543,2.692
			c-17.011-7.453-38.565-14.995-62.839-21.687c-2.222-5.118-4.464-9.975-7.267-15.725l-10.361-21.594h-30.719l16.661,29.513
			c-17.686-3.978-35.195-7.219-51.196-9.526l-6.202-19.986h-35.103l-4.875,15.585c-0.611-0.018-1.934-0.052-2.62-0.074
			c-28.339-0.819-47.44,2.701-50.469,10.753c-3.221,8.567,12.408,20.508,39.815,32.524l-18.018,59.534h27.737l8.429-30.369
			l4.244-16.368l-14.166-9.333C558.032,109.681,558.162,109.735,558.296,109.791z M519.394,73.025
			c2.171-5.777,17.277-7.998,39.972-6.923c0.841,0.041,1.679,0.119,2.54,0.174l-9.735,31.134
			C529.888,88.119,517.078,79.173,519.394,73.025z"/>
	</g>
	<g>
		<path fill="#FFFFFF" d="M783.028,121.522l5.374,12.651l-31.314-9.152c0.203,0.894,0.17,1.751-0.138,2.558
			c-4.371,11.629-61.107,8.849-126.718-6.197c-14.042-3.22-27.335-6.748-39.541-10.406l-1.333-4.972l-37.684-3.699l44.122,27.714
			l-2.053-7.649c1.574,0.487,3.164,0.975,4.768,1.458l3.184,11.501l9.131,30.369h28.793l-10.375-33.454
			c4.046,1.006,8.134,1.996,12.301,2.949c5.488,1.259,10.928,2.436,16.303,3.535l-15.421,26.969h30.548l9.829-21.418
			c0.129-0.293,0.253-0.574,0.384-0.863c7.108,1.171,14.028,2.188,20.719,3.046l9.622,19.236h30.896l-9.431-16.265
			c33.51,1.947,56.587-1.418,59.939-10.335C796.79,134.152,792.367,128.082,783.028,121.522z"/>
	</g>
	<g>
		<path fill="#FFFFFF" d="M742.669,47.375h-30.552l-9.998,21.594c-2.145,4.917-3.932,9.029-5.802,13.744
			c7.981,1.769,18.015,5.119,22.152,6.558L742.669,47.375z"/>
	</g>
</g>
</svg>
