<?xml version="1.0" encoding="utf-8"?>
<!-- Generator: Adobe Illustrator 16.0.0, SVG Export Plug-In . SVG Version: 6.00 Build 0)  -->
<!DOCTYPE svg PUBLIC "-//W3C//DTD SVG 1.1//EN" "http://www.w3.org/Graphics/SVG/1.1/DTD/svg11.dtd">
<svg version="1.1" id="Layer_1" xmlns="http://www.w3.org/2000/svg" xmlns:xlink="http://www.w3.org/1999/xlink" x="0px" y="0px"
	 width="841.89px" height="226.119px" viewBox="0 0 841.89 226.119" enable-background="new 0 0 841.89 226.119"
	 xml:space="preserve">
<g>
	<path fill="#FFFFFF" d="M45.001,140.626c7.285,3.732,18.478,7.463,30.027,7.463c12.435,0,19.007-5.153,19.007-12.97
		c0-7.461-5.686-11.726-20.076-16.876c-19.897-6.93-32.867-17.945-32.867-35.355c0-20.431,17.056-36.066,45.302-36.066
		c13.504,0,23.455,2.843,30.56,6.041l-6.041,21.853c-4.799-2.31-13.325-5.685-25.05-5.685c-11.725,0-17.411,5.33-17.411,11.548
		c0,7.64,6.751,11.015,22.207,16.878c21.142,7.817,31.091,18.833,31.091,35.709c0,20.078-15.456,37.132-48.323,37.132
		c-13.68,0-27.183-3.553-33.935-7.283L45.001,140.626z"/>
	<path fill="#FFFFFF" d="M168.473,56.772v24.871h19.366v19.898h-19.366v31.448c0,10.481,2.487,15.276,10.66,15.276
		c3.376,0,6.041-0.352,7.996-0.709l0.176,20.431c-3.554,1.42-9.949,2.311-17.589,2.311c-8.705,0-15.987-3.021-20.252-7.462
		c-4.975-5.152-7.461-13.5-7.461-25.761v-35.533h-11.549V81.643h11.549V62.812L168.473,56.772z"/>
	<path fill="#FFFFFF" d="M223.37,133.698c0.887,11.194,11.902,16.524,24.517,16.524c9.237,0,16.701-1.246,23.985-3.558l3.552,18.301
		c-8.882,3.555-19.72,5.331-31.446,5.331c-29.491,0-46.368-17.055-46.368-44.238c0-22.031,13.677-46.369,43.882-46.369
		c28.07,0,38.73,21.851,38.73,43.348c0,4.621-0.534,8.706-0.889,10.66H223.37z M255.172,115.223c0-6.574-2.844-17.589-15.28-17.589
		c-11.37,0-15.99,10.305-16.701,17.589H255.172z"/>
	<path fill="#FFFFFF" d="M317.171,133.698c0.887,11.194,11.902,16.524,24.516,16.524c9.24,0,16.701-1.246,23.986-3.558l3.551,18.301
		c-8.881,3.555-19.721,5.331-31.446,5.331c-29.491,0-46.368-17.055-46.368-44.238c0-22.031,13.677-46.369,43.882-46.369
		c28.071,0,38.731,21.851,38.731,43.348c0,4.621-0.535,8.706-0.89,10.66H317.171z M348.973,115.223
		c0-6.574-2.845-17.589-15.28-17.589c-11.37,0-15.99,10.305-16.7,17.589H348.973z"/>
	<path fill="#FFFFFF" d="M390.186,109.358c0-10.837-0.355-20.076-0.71-27.715h22.741l1.245,11.727h0.534
		c3.73-5.507,11.37-13.68,26.292-13.68c11.194,0,20.076,5.685,23.807,14.746h0.354c3.199-4.442,7.108-7.995,11.194-10.483
		c4.796-2.842,10.126-4.263,16.521-4.263c16.7,0,29.314,11.725,29.314,37.664v51.167h-26.294v-47.258
		c0-12.614-4.086-19.898-12.792-19.898c-6.216,0-10.659,4.265-12.436,9.417c-0.71,1.953-1.064,4.794-1.064,6.928v50.812h-26.296
		v-48.678c0-11.016-3.909-18.479-12.435-18.479c-6.931,0-11.016,5.33-12.615,9.772c-0.887,2.132-1.066,4.618-1.066,6.75v50.635
		h-26.295V109.358z"/>
</g>
<g>
	<g>
		<path fill="#FFFFFF" d="M570.036,137.762l-8.593,30.967h-28.287l36.88-120.658h35.804l37.412,120.658h-29.358l-9.308-30.967
			l-17.833-64.425L570.036,137.762z"/>
	</g>
</g>
<g>
	<g>
		<path fill="#FFFFFF" d="M718.624,168.729l-10.921-21.838c-4.475-8.418-7.346-14.682-10.742-21.659h-0.357
			c-2.509,6.977-5.552,13.241-9.312,21.659l-10.023,21.838h-31.148l34.907-61.042l-33.654-59.616h31.329l10.561,22.02
			c3.58,7.341,6.267,13.249,9.131,20.052h0.358c2.864-7.696,5.189-13.07,8.234-20.052l10.202-22.02h31.152l-34.016,58.901
			l35.806,61.757H718.624z"/>
	</g>
</g>
<g>
	<g>
		<polygon fill="#005FBC" points="729.12,113.774 788.158,131.173 776.556,105.556 		"/>
	</g>
	<g>
		<polygon fill="#005FBC" points="594.88,130.038 553.574,104.085 591.999,107.86 		"/>
	</g>
	<g>
		<path fill="#005FBC" d="M789.496,123.685l5.477,12.9l-31.93-9.337c0.21,0.917,0.175,1.79-0.137,2.614
			c-4.46,11.854-62.312,9.021-129.221-6.323c-18.391-4.216-35.542-8.942-50.669-13.822l1.194,10.87
			c18.149,6.113,38.801,11.943,61.008,17.036c80.285,18.417,150.318,20.196,156.421,3.981
			C803.533,136.56,799.025,130.369,789.496,123.685z"/>
	</g>
	<g>
		<path fill="#005FBC" d="M520.609,74.286c2.307-6.122,18.854-8.326,43.538-6.916l1.02-3.326
			c-30.447-1.159-51.096,2.398-54.284,10.872c-3.615,9.617,16.053,23.396,49.396,36.862l-16.184-10.655l18.846,1.58
			C534.79,91.994,517.961,81.338,520.609,74.286z"/>
	</g>
	<g>
		<g>
			<path fill="#005FBC" d="M664.383,78.24c-18.157-4.083-35.751-7.319-52.154-9.678l1.443,4.787
				c11.545,1.974,23.695,4.399,36.16,7.254c6.278,1.443,12.414,2.946,18.376,4.491L664.383,78.24z"/>
		</g>
		<g>
			<path fill="#005FBC" d="M696.773,86.323l3.49,8.031c22.313,7.19,40.221,14.717,51.137,21.468l18.643-3.232
				C751.586,103.637,726.215,94.437,696.773,86.323z"/>
		</g>
	</g>
</g>
</svg>
