<?xml version="1.0" encoding="utf-8"?>
<!-- Generator: Adobe Illustrator 16.0.0, SVG Export Plug-In . SVG Version: 6.00 Build 0)  -->
<!DOCTYPE svg PUBLIC "-//W3C//DTD SVG 1.1//EN" "http://www.w3.org/Graphics/SVG/1.1/DTD/svg11.dtd">
<svg version="1.1" id="Layer_1" xmlns="http://www.w3.org/2000/svg" xmlns:xlink="http://www.w3.org/1999/xlink" x="0px" y="0px"
	 width="841.89px" height="226.119px" viewBox="0 0 841.89 226.119" enable-background="new 0 0 841.89 226.119"
	 xml:space="preserve">
<text transform="matrix(1 0 0 1 40.7109 169.1904)" fill="#D1D3D4" font-family="'MyriadPro-Bold'" font-size="172.4893">Steem </text>
<path fill="#D1D3D4" d="M562.728,139.327l-8.344,30.067H526.92l35.808-117.15h34.762l36.327,117.15H605.31l-9.035-30.067
	l-17.316-62.552L562.728,139.327z"/>
<path fill="#D1D3D4" d="M706.995,169.395l-10.604-21.206c-4.345-8.17-7.129-14.253-10.43-21.027h-0.348
	c-2.434,6.774-5.388,12.856-9.04,21.027l-9.732,21.206h-30.244l33.895-59.269l-32.677-57.882h30.417l10.257,21.38
	c3.474,7.127,6.083,12.863,8.863,19.468h0.349c2.78-7.473,5.039-12.69,7.996-19.468l9.905-21.38h30.246l-33.027,57.188
	l34.764,59.962H706.995z"/>
<g>
	<g>
		<polygon fill="#005FBC" points="717.187,116.036 774.508,132.929 763.242,108.059 		"/>
		<polygon fill="#005FBC" points="586.849,131.828 546.744,106.629 584.053,110.294 		"/>
		<path fill="#005FBC" d="M775.806,125.658l5.317,12.526l-31-9.064c0.202,0.888,0.168,1.736-0.134,2.537
			c-4.33,11.51-60.502,8.759-125.462-6.14c-17.858-4.096-34.511-8.682-49.197-13.419l1.161,10.552
			c17.62,5.936,37.672,11.598,59.231,16.542c77.953,17.88,145.948,19.609,151.873,3.866
			C789.436,138.161,785.058,132.151,775.806,125.658z"/>
		<path fill="#005FBC" d="M514.739,77.697c2.238-5.945,18.303-8.084,42.271-6.714l0.99-3.231
			c-29.561-1.125-49.609,2.328-52.705,10.556c-3.511,9.337,15.584,22.716,47.959,35.791l-15.711-10.347l18.298,1.534
			C528.507,94.89,512.168,84.544,514.739,77.697z"/>
		<g>
			<path fill="#005FBC" d="M654.329,81.536c-17.626-3.964-34.708-7.107-50.636-9.396l1.4,4.647
				c11.212,1.917,23.008,4.271,35.11,7.044c6.095,1.4,12.051,2.86,17.84,4.36L654.329,81.536z"/>
			<path fill="#005FBC" d="M685.78,89.383l3.389,7.797c21.664,6.981,39.05,14.289,49.65,20.843l18.099-3.138
				C738.998,106.194,714.363,97.261,685.78,89.383z"/>
		</g>
	</g>
</g>
</svg>
