<?xml version="1.0" encoding="utf-8"?>
<!-- Generator: Adobe Illustrator 16.0.0, SVG Export Plug-In . SVG Version: 6.00 Build 0)  -->
<!DOCTYPE svg PUBLIC "-//W3C//DTD SVG 1.1//EN" "http://www.w3.org/Graphics/SVG/1.1/DTD/svg11.dtd">
<svg version="1.1" id="Layer_1" xmlns="http://www.w3.org/2000/svg" xmlns:xlink="http://www.w3.org/1999/xlink" x="0px" y="0px"
	 width="841.89px" height="226.119px" viewBox="0 0 841.89 226.119" enable-background="new 0 0 841.89 226.119"
	 xml:space="preserve">
<g>
	<path fill="#1C75BC" d="M55.808,141.286c6.715,3.441,17.036,6.881,27.684,6.881c11.463,0,17.523-4.751,17.523-11.958
		c0-6.876-5.239-10.811-18.509-15.559c-18.343-6.386-30.303-16.542-30.303-32.597c0-18.831,15.724-33.25,41.768-33.25
		c12.448,0,21.625,2.622,28.174,5.572l-5.569,20.146c-4.421-2.13-12.284-5.242-23.092-5.242c-10.81,0-16.05,4.914-16.05,10.65
		c0,7.043,6.219,10.15,20.469,15.56c19.492,7.206,28.667,17.358,28.667,32.918c0,18.508-14.251,34.232-44.552,34.232
		c-12.612,0-25.061-3.272-31.285-6.712L55.808,141.286z"/>
	<path fill="#1C75BC" d="M82.019,173.96c-14.168,0-27.214-3.706-33.86-7.379l-3.563-1.968l7.659-31.126l5.985,3.066
		c2.875,1.479,13.212,6.296,25.252,6.296c4.559,0,12.209-0.863,12.209-6.641c0-2.734-1.151-5.599-14.986-10.556
		c-22.431-7.809-33.826-20.461-33.826-37.6c0-22.709,19.36-38.563,47.083-38.563c11.241,0,21.455,2.031,30.356,6.034l4.16,1.872
		l-8.48,30.678l-5.738-2.762c-6.497-3.128-13.492-4.717-20.786-4.717c-6.425,0-10.734,2.144-10.734,5.334
		c0,3.235,3.663,5.512,17.042,10.586c21.883,8.093,32.091,20.138,32.091,37.892C131.883,152.653,118.828,173.96,82.019,173.96z
		 M56.943,158.937c6.127,2.371,15.583,4.391,25.076,4.391c24.199,0,39.231-11.084,39.231-28.92c0-13.049-7.529-21.404-25.191-27.936
		c-12.866-4.881-23.945-9.082-23.945-20.543c0-7.948,6.607-15.969,21.371-15.969c6.766,0,13.326,1.123,19.573,3.337l2.695-9.75
		c-6.514-2.274-13.819-3.425-21.78-3.425c-21.8,0-36.448,11.223-36.448,27.931c0,12.292,8.743,21.31,26.734,27.576
		c11.19,4.007,22.076,8.883,22.076,20.58c0,8.351-6.001,17.276-22.842,17.276c-9.662,0-18.215-2.476-24.037-4.749L56.943,158.937z"
		/>
</g>
<g>
	<path fill="#1C75BC" d="M169.647,63.978v22.93h17.849v18.346h-17.849v28.995c0,9.658,2.289,14.086,9.823,14.086
		c3.114,0,5.567-0.328,7.375-0.661l0.16,18.839c-3.272,1.312-9.171,2.128-16.212,2.128c-8.025,0-14.744-2.784-18.675-6.877
		c-4.588-4.748-6.882-12.451-6.882-23.749v-32.76h-10.644V86.907h10.644V69.544L169.647,63.978z"/>
	<path fill="#1C75BC" d="M170.792,173.96c-9.115,0-17.319-3.105-22.512-8.518c-5.619-5.82-8.358-14.797-8.358-27.429v-27.441
		h-10.648V81.588h10.648V65.306l35.038-7.999v24.281h17.855v28.984h-17.855v23.676c0,8.767,1.696,8.767,4.511,8.767
		c2.223,0,4.322-0.186,6.413-0.572l6.221-1.134l0.249,28.789l-3.373,1.351C184.938,173.068,178.478,173.96,170.792,173.96z
		 M139.91,99.935h10.645v38.079c0,9.604,1.814,16.354,5.385,20.058c3.164,3.291,8.713,5.256,14.852,5.256
		c4.63,0,8.277-0.368,10.858-0.854l-0.075-8.866c-0.693,0.026-1.394,0.039-2.105,0.039c-15.144,0-15.144-14.096-15.144-19.398
		V99.935h17.853v-7.709h-17.853V70.645l-13.771,3.143v18.438H139.91V99.935z"/>
</g>
<g>
	<path fill="#1C75BC" d="M224.186,134.903c0.822,10.318,10.975,15.228,22.604,15.228c8.517,0,15.396-1.143,22.112-3.274
		l3.278,16.873c-8.191,3.272-18.184,4.91-28.995,4.91c-27.189,0-42.752-15.725-42.752-40.782c0-20.31,12.615-42.75,40.46-42.75
		c25.88,0,35.708,20.145,35.708,39.964c0,4.261-0.491,8.023-0.822,9.831H224.186z M253.506,117.863
		c0-6.06-2.621-16.215-14.085-16.215c-10.484,0-14.744,9.502-15.399,16.215H253.506z"/>
	<path fill="#1C75BC" d="M243.186,173.96c-29.647,0-48.066-17.665-48.066-46.102c0-23.888,15.723-48.068,45.774-48.068
		c30.278,0,41.026,24.39,41.026,45.282c0,4.287-0.47,8.379-0.909,10.781l-0.794,4.363h-7.186l5.206,26.818l-4.086,1.632
		C265.492,172.128,254.783,173.96,243.186,173.96z M240.894,90.425c-24.145,0-35.142,19.405-35.142,37.433
		c0,22.542,13.645,35.469,37.434,35.469c8.441,0,16.26-1.064,22.899-3.094l-1.312-6.734c-5.708,1.324-11.551,1.953-17.983,1.953
		c-15.983,0-26.932-7.902-27.908-20.134l-0.455-5.734h52.664c0.117-1.392,0.192-2.94,0.192-4.512
		C271.283,116.945,269.093,90.425,240.894,90.425z M232.102,140.217c4.328,4.315,12.62,4.599,14.688,4.599
		c7.58,0,13.901-0.933,20.506-3.029l4.949-1.569H232.102z M258.825,123.183H218.16l0.569-5.832
		c0.989-10.123,7.885-21.016,20.692-21.016c13.403,0,19.404,10.813,19.404,21.528V123.183z M230.977,112.548h16.42
		c-1.016-2.961-3.253-5.58-7.976-5.58C234.885,106.968,232.367,109.728,230.977,112.548z"/>
</g>
<g>
	<path fill="#1C75BC" d="M314.599,134.903c0.818,10.318,10.976,15.228,22.602,15.228c8.519,0,15.398-1.143,22.117-3.274
		l3.272,16.873c-8.188,3.272-18.181,4.91-28.993,4.91c-27.188,0-42.748-15.725-42.748-40.782c0-20.31,12.61-42.75,40.458-42.75
		c25.878,0,35.708,20.145,35.708,39.964c0,4.261-0.492,8.023-0.82,9.831H314.599z M343.916,117.863
		c0-6.06-2.617-16.215-14.085-16.215c-10.48,0-14.741,9.502-15.396,16.215H343.916z"/>
	<path fill="#1C75BC" d="M333.596,173.96c-29.646,0-48.065-17.665-48.065-46.102c0-23.888,15.725-48.068,45.776-48.068
		c30.279,0,41.023,24.39,41.023,45.282c0,4.283-0.466,8.377-0.903,10.781l-0.796,4.363h-7.189l5.207,26.818l-4.082,1.632
		C355.905,172.128,345.197,173.96,333.596,173.96z M331.307,90.425c-24.146,0-35.145,19.405-35.145,37.433
		c0,22.542,13.646,35.469,37.434,35.469c8.441,0,16.264-1.064,22.899-3.094l-1.306-6.734c-5.712,1.324-11.552,1.953-17.989,1.953
		c-15.979,0-26.932-7.902-27.903-20.134l-0.455-5.734h52.665c0.115-1.398,0.19-2.941,0.19-4.512
		C361.697,116.945,359.508,90.425,331.307,90.425z M322.519,140.217c4.325,4.315,12.616,4.599,14.682,4.599
		c7.581,0,13.904-0.933,20.509-3.024l4.95-1.574H322.519z M349.235,123.183h-40.66l0.567-5.832
		c0.986-10.123,7.882-21.016,20.688-21.016c13.407,0,19.404,10.813,19.404,21.528V123.183z M321.387,112.548h16.422
		c-1.019-2.961-3.251-5.58-7.978-5.58C325.295,106.968,322.779,109.728,321.387,112.548z"/>
</g>
<g>
	<path fill="#1C75BC" d="M381.915,112.461c0-9.992-0.329-18.512-0.655-25.554h20.965l1.148,10.813h0.488
		c3.443-5.079,10.485-12.612,24.246-12.612c10.318,0,18.507,5.241,21.948,13.593h0.329c2.943-4.096,6.549-7.371,10.314-9.662
		c4.425-2.622,9.337-3.931,15.236-3.931c15.396,0,27.023,10.809,27.023,34.724v47.169h-24.241v-43.564
		c0-11.635-3.766-18.347-11.791-18.347c-5.734,0-9.828,3.928-11.469,8.68c-0.654,1.804-0.98,4.425-0.98,6.387v46.845h-24.239
		v-44.879c0-10.153-3.607-17.032-11.468-17.032c-6.389,0-10.154,4.912-11.631,9.009c-0.817,1.967-0.983,4.257-0.983,6.223v46.68
		h-24.239V112.461z"/>
	<path fill="#1C75BC" d="M508.276,172.321h-34.878v-48.884c0-13.03-4.874-13.03-6.473-13.03c-4.345,0-6.03,3.902-6.444,5.102
		c-0.403,1.115-0.687,3.081-0.687,4.647v52.165h-34.876v-50.199c0-7.775-2.069-11.715-6.15-11.715c-4.315,0-6.165,4.203-6.626,5.494
		l-0.093,0.24c-0.575,1.383-0.575,3.49-0.575,4.181v52h-34.874v-59.86c0-9.922-0.331-18.361-0.653-25.309l-0.259-5.564h31.318
		l0.494,4.654c5.729-4.249,12.695-6.452,20.605-6.452c9.357,0,17.561,3.755,22.834,10.152c2.159-2.1,4.517-3.938,6.996-5.445
		c5.358-3.18,11.23-4.708,17.998-4.708c23.845,0,32.342,20.682,32.342,40.042V172.321z M484.036,161.688h13.607v-41.856
		c0-18.968-7.714-29.408-21.709-29.408c-4.874,0-8.854,1.016-12.523,3.188c-3.255,1.984-6.288,4.829-8.713,8.196l-1.593,2.212
		h-6.613l-1.355-3.295c-2.653-6.449-9.021-10.3-17.03-10.3c-8.544,0-15.219,3.458-19.845,10.275l-1.579,2.337h-8.094l-1.15-10.812
		h-10.626c0.235,5.883,0.421,12.619,0.421,20.236v49.227h13.604v-41.367c0-2.083,0.142-5.178,1.343-8.144
		c2.206-6.016,7.708-12.406,16.589-12.406c10.507,0,16.783,8.354,16.783,22.351v39.566h13.607v-41.532
		c0-2.229,0.342-5.555,1.297-8.199c2.549-7.373,9.021-12.186,16.47-12.186c5.141,0,17.11,2.31,17.11,23.666V161.688z"/>
</g>
<g>
	<path fill="#FFFFFF" d="M55.808,141.286c6.715,3.441,17.036,6.881,27.684,6.881c11.463,0,17.523-4.751,17.523-11.958
		c0-6.876-5.239-10.811-18.509-15.559c-18.343-6.386-30.303-16.542-30.303-32.597c0-18.831,15.724-33.25,41.768-33.25
		c12.448,0,21.625,2.622,28.174,5.572l-5.569,20.146c-4.421-2.13-12.284-5.242-23.092-5.242c-10.81,0-16.05,4.914-16.05,10.65
		c0,7.043,6.219,10.15,20.469,15.56c19.492,7.206,28.667,17.358,28.667,32.918c0,18.508-14.251,34.232-44.552,34.232
		c-12.612,0-25.061-3.272-31.285-6.712L55.808,141.286z"/>
</g>
<g>
	<path fill="#FFFFFF" d="M169.647,63.978v22.93h17.849v18.346h-17.849v28.995c0,9.658,2.289,14.086,9.823,14.086
		c3.114,0,5.567-0.328,7.375-0.661l0.16,18.839c-3.272,1.312-9.171,2.128-16.212,2.128c-8.025,0-14.744-2.784-18.675-6.877
		c-4.588-4.748-6.882-12.451-6.882-23.749v-32.76h-10.644V86.907h10.644V69.544L169.647,63.978z"/>
</g>
<g>
	<path fill="#FFFFFF" d="M224.186,134.903c0.822,10.318,10.975,15.228,22.604,15.228c8.517,0,15.396-1.143,22.112-3.274
		l3.278,16.873c-8.191,3.272-18.184,4.91-28.995,4.91c-27.189,0-42.752-15.725-42.752-40.782c0-20.31,12.615-42.75,40.46-42.75
		c25.88,0,35.708,20.145,35.708,39.964c0,4.261-0.491,8.023-0.822,9.831H224.186z M253.506,117.863
		c0-6.06-2.621-16.215-14.085-16.215c-10.484,0-14.744,9.502-15.399,16.215H253.506z"/>
</g>
<g>
	<path fill="#FFFFFF" d="M314.599,134.903c0.818,10.318,10.976,15.228,22.602,15.228c8.519,0,15.398-1.143,22.117-3.274
		l3.272,16.873c-8.188,3.272-18.181,4.91-28.993,4.91c-27.188,0-42.748-15.725-42.748-40.782c0-20.31,12.61-42.75,40.458-42.75
		c25.878,0,35.708,20.145,35.708,39.964c0,4.261-0.492,8.023-0.82,9.831H314.599z M343.916,117.863
		c0-6.06-2.617-16.215-14.085-16.215c-10.48,0-14.741,9.502-15.396,16.215H343.916z"/>
</g>
<g>
	<path fill="#FFFFFF" d="M381.915,112.461c0-9.992-0.329-18.512-0.655-25.554h20.965l1.148,10.813h0.488
		c3.443-5.079,10.485-12.612,24.246-12.612c10.318,0,18.507,5.241,21.948,13.593h0.329c2.943-4.096,6.549-7.371,10.314-9.662
		c4.425-2.622,9.337-3.931,15.236-3.931c15.396,0,27.023,10.809,27.023,34.724v47.169h-24.241v-43.564
		c0-11.635-3.766-18.347-11.791-18.347c-5.734,0-9.828,3.928-11.469,8.68c-0.654,1.804-0.98,4.425-0.98,6.387v46.845h-24.239
		v-44.879c0-10.153-3.607-17.032-11.468-17.032c-6.389,0-10.154,4.912-11.631,9.009c-0.817,1.967-0.983,4.257-0.983,6.223v46.68
		h-24.239V112.461z"/>
</g>
<g>
	<g>
		<path fill="#1C75BC" d="M659.619,78.709c-18.095-4.073-35.634-7.298-51.98-9.647l1.439,4.771
			c11.509,1.97,23.616,4.388,36.041,7.235c6.259,1.436,12.372,2.93,18.31,4.471L659.619,78.709z"/>
		<path fill="#1C75BC" d="M665.408,87.068l-2.227-0.577c-5.961-1.547-12.111-3.049-18.284-4.464
			c-12.193-2.794-24.301-5.226-35.985-7.225l-0.598-0.103l-2.063-6.83l1.526,0.219c16.763,2.408,34.278,5.659,52.058,9.661
			l0.43,0.097L665.408,87.068z M609.843,72.967c11.535,1.985,23.474,4.387,35.495,7.143c5.425,1.244,10.836,2.555,16.115,3.905
			l-2.479-4.443c-17.044-3.825-33.837-6.958-49.949-9.315L609.843,72.967z"/>
	</g>
	<g>
		<path fill="#1C75BC" d="M664.732,86.549l-1.464-0.38c-6.042-1.569-12.198-3.07-18.295-4.468
			c-12.159-2.787-24.275-5.224-36.01-7.228l-0.393-0.068l-1.844-6.127l1.003,0.143c16.742,2.407,34.253,5.652,52.031,9.657
			l0.279,0.062L664.732,86.549z M609.578,73.259c11.635,2.002,23.641,4.411,35.685,7.176c5.62,1.288,11.286,2.669,16.865,4.1
			l-2.934-5.256c-17.294-3.888-34.321-7.06-50.643-9.43L609.578,73.259z"/>
		<path fill="#1C75BC" d="M666.712,88.08l-3.689-0.959c-5.934-1.541-12.08-3.042-18.27-4.461
			c-12.229-2.803-24.326-5.23-35.954-7.217l-0.994-0.172l-2.463-8.182l2.528,0.359c16.827,2.419,34.357,5.673,52.107,9.671
			l0.708,0.16L666.712,88.08z M610.345,72.394c11.559,2.001,23.377,4.382,35.139,7.083c4.785,1.096,9.711,2.286,14.672,3.541
			l-1.604-2.875c-16.596-3.722-32.938-6.778-48.611-9.096L610.345,72.394z"/>
	</g>
</g>
<g>
	<g>
		<path fill="#1C75BC" d="M668.871,89.74l-6.117-1.586c-6.029-1.559-12.168-3.06-18.238-4.453
			c-12.117-2.78-24.193-5.202-35.896-7.206l-1.649-0.283l-3.141-10.426l4.193,0.604c16.801,2.412,34.359,5.674,52.188,9.682
			l1.177,0.268L668.871,89.74z M647.708,78.896c3.433,0.793,6.876,1.624,10.303,2.476l-0.164-0.294
			C654.455,80.328,651.074,79.592,647.708,78.896z"/>
		<path fill="#1C75BC" d="M670.851,91.269l-8.344-2.163c-6.093-1.575-12.22-3.072-18.212-4.447
			c-12.049-2.764-24.107-5.185-35.84-7.195l-2.251-0.385l-3.76-12.485l5.72,0.823c16.765,2.406,34.35,5.669,52.264,9.696
			l1.606,0.365L670.851,91.269z M607.737,75.345l1.049,0.18c11.77,2.017,23.864,4.444,35.949,7.217
			c6.008,1.379,12.153,2.879,18.264,4.459l3.891,1.009l-6.146-11.01l-0.748-0.169c-17.863-4.016-35.396-7.269-52.111-9.669
			l-2.668-0.383L607.737,75.345z M659.964,82.873l-2.191-0.545c-3.42-0.851-6.858-1.681-10.285-2.473l0.419-1.921
			c3.372,0.696,6.756,1.433,10.153,2.184l0.433,0.096L659.964,82.873z"/>
	</g>
	<g>
		<path fill="#1C75BC" d="M670.172,90.75l-7.581-1.967c-6.005-1.556-12.134-3.052-18.22-4.453
			c-12.111-2.774-24.177-5.196-35.862-7.193l-2.041-0.353l-3.554-11.782l5.199,0.744c16.818,2.417,34.392,5.679,52.244,9.698
			l1.453,0.327L670.172,90.75z M607.479,75.644l1.253,0.217c11.708,1.997,23.796,4.428,35.927,7.21
			c6.099,1.394,12.241,2.897,18.254,4.456l4.653,1.208l-6.598-11.827l-0.9-0.205c-17.811-4.011-35.357-7.263-52.137-9.676
			l-3.188-0.457L607.479,75.644z M659.302,82.366l-1.446-0.36c-3.425-0.858-6.868-1.687-10.293-2.482l0.279-1.265
			c3.366,0.706,6.751,1.431,10.143,2.194l0.289,0.057L659.302,82.366z"/>
		<path fill="#1C75BC" d="M672.15,92.279l-9.807-2.544c-5.932-1.538-12.054-3.034-18.192-4.447
			c-12.121-2.777-24.171-5.192-35.81-7.182l-2.64-0.457l-4.174-13.838l6.725,0.961c16.844,2.421,34.447,5.688,52.32,9.711
			l1.883,0.424L672.15,92.279z M608.244,74.78l0.654,0.113c11.62,1.98,23.727,4.41,35.979,7.221
			c5.967,1.363,12.117,2.865,18.28,4.462l2.428,0.631l-5.263-9.436l-0.475-0.107c-17.74-3.995-35.255-7.245-52.058-9.661
			l-1.661-0.238L608.244,74.78z M661.258,83.866l-3.641-0.906c-3.42-0.856-6.856-1.684-10.278-2.478l-0.946-0.22l0.697-3.166
			l0.954,0.2c3.37,0.707,6.759,1.434,10.156,2.197l0.712,0.143L661.258,83.866z"/>
	</g>
</g>
<g>
	<path fill="#1C75BC" stroke="#1C75BC" stroke-width="1.9665" stroke-miterlimit="10" d="M565.583,138.032l-8.568,30.871h-28.188
		l36.756-120.259h35.688l37.291,120.259h-29.265l-9.275-30.871l-17.778-64.209L565.583,138.032z"/>
</g>
<g>
	<path fill="#1C75BC" stroke="#1C75BC" stroke-width="1.9665" stroke-miterlimit="10" d="M642.229,171.607h-34.94l-9.857-32.793
		l-15.099-54.559l-14.136,54.457l-9.127,32.896h-33.895l38.407-125.671h39.678L642.229,171.607z M611.303,166.201h23.593
		l-35.619-114.86H567.58l-35.104,114.86h22.487l8.015-28.889l19.184-73.923l20.466,73.923L611.303,166.201z"/>
	<path fill="#1C75BC" stroke="#1C75BC" stroke-width="1.9665" stroke-miterlimit="10" d="M643.107,172.251h-36.299l-9.99-33.248
		l-14.467-52.245l-13.526,52.121l-9.261,33.372h-35.269l38.806-126.96h40.632l0.145,0.453L643.107,172.251z M607.767,170.957h33.581
		l-38.566-124.37h-38.716l-38.016,124.37h32.523l9-32.413l14.741-56.793l15.741,56.89L607.767,170.957z M635.774,166.847h-24.948
		l-8.822-29.347l-19.823-71.611l-18.575,71.588l-8.148,29.369h-23.859L567.1,50.693h32.652l0.143,0.455L635.774,166.847z
		 M611.788,165.556h22.227L598.802,51.989h-30.744l-34.709,113.567h21.12l7.886-28.41l19.789-76.257l21.103,76.257L611.788,165.556z
		"/>
</g>
<g>
	<g>
		<path fill="#1C75BC" stroke="#1C75BC" stroke-width="1.9665" stroke-miterlimit="10" d="M713.682,168.903l-10.881-21.771
			c-4.463-8.384-7.319-14.629-10.71-21.588h-0.355c-2.497,6.959-5.53,13.205-9.276,21.588l-9.992,21.771h-31.05l34.795-60.846
			l-33.546-59.413h31.229l10.524,21.944c3.57,7.315,6.243,13.202,9.101,19.982h0.363c2.847-7.671,5.17-13.022,8.209-19.982
			l10.162-21.944h31.05l-33.905,58.704l35.691,61.556H713.682z"/>
		<path fill="#1C75BC" stroke="#1C75BC" stroke-width="1.9665" stroke-miterlimit="10" d="M746.217,169.552h-32.936l-11.061-22.127
			c-3.351-6.291-5.83-11.468-8.241-16.473c-0.657-1.384-1.324-2.766-2.006-4.174c-1.845,4.994-3.984,9.704-6.44,15.107
			c-0.793,1.755-1.621,3.571-2.485,5.512l-10.168,22.154H640.3l0.555-0.966l34.616-60.529l-33.915-60.063H674.3l10.705,22.313
			c3.336,6.841,5.958,12.573,8.67,18.964c2.761-7.343,5.115-12.734,7.818-18.944l10.347-22.334h32.588l-34.278,59.354
			L746.217,169.552z M714.082,168.258h29.883l-35.314-60.91l0.189-0.327l33.341-57.736H712.67l-9.996,21.57
			c-2.821,6.476-5.265,12.08-8.188,19.947l-0.161,0.418h-1.236l-0.162-0.398c-2.864-6.795-5.581-12.756-9.086-19.953l-10.354-21.585
			h-29.71l33.183,58.782l-0.186,0.312l-34.24,59.88h29.517l9.82-21.396c0.86-1.933,1.693-3.763,2.484-5.508
			c2.605-5.739,4.859-10.704,6.771-16.03l0.156-0.428h1.216l0.175,0.371c0.846,1.733,1.66,3.428,2.476,5.12
			c2.4,4.997,4.882,10.167,8.222,16.443L714.082,168.258z"/>
	</g>
	<g>
		<path fill="#1C75BC" stroke="#1C75BC" stroke-width="1.9665" stroke-miterlimit="10" d="M749.782,171.607h-37.769l-11.631-23.262
			c-3.325-6.25-5.812-11.424-8.212-16.427c-1.438,3.494-3.024,6.987-4.763,10.82c-0.793,1.743-1.618,3.565-2.485,5.497
			L674.2,171.607h-37.438l36.343-63.556l-35.065-62.115h37.554l11.267,23.48c2.524,5.178,4.646,9.737,6.708,14.425
			c2.039-5.156,3.935-9.501,6.042-14.335l10.92-23.57h37.458l-35.468,61.411L749.782,171.607z M715.355,166.201h25.044
			l-34.123-58.854l32.348-56.007h-24.645l-9.442,20.377c-2.79,6.404-5.221,11.987-8.128,19.797l-0.652,1.759h-4.032l-0.697-1.656
			c-2.843-6.752-5.543-12.687-9.038-19.847l-9.796-20.431h-24.898l32.026,56.727l-33.245,58.134h24.654l9.272-20.192
			c0.856-1.922,1.691-3.751,2.483-5.506c2.588-5.698,4.821-10.626,6.708-15.869l0.641-1.789h3.95l0.738,1.515
			c0.848,1.746,1.661,3.449,2.484,5.142c2.387,4.979,4.855,10.123,8.18,16.365L715.355,166.201z"/>
		<path fill="#1C75BC" stroke="#1C75BC" stroke-width="1.9665" stroke-miterlimit="10" d="M750.905,172.251h-39.29l-11.811-23.615
			c-3.041-5.712-5.379-10.531-7.593-15.133c-1.305,3.09-2.721,6.215-4.214,9.501l-0.079,0.175c-0.768,1.691-1.569,3.453-2.404,5.322
			l-10.905,23.75h-38.962l0.555-0.966l36.156-63.243L636.93,45.291h39.066l11.446,23.848c2.287,4.693,4.245,8.876,6.089,13.029
			c1.849-4.581,3.619-8.639,5.482-12.924l11.103-23.953h38.995l-35.842,62.057L750.905,172.251z M712.413,170.957h36.24
			l-36.882-63.609l0.19-0.328l34.903-60.433h-35.923l-10.746,23.192c-2.048,4.694-3.98,9.139-6.026,14.296l-0.571,1.445
			l-0.625-1.417c-2.031-4.614-4.156-9.192-6.697-14.398l-11.093-23.118H639.15l34.699,61.466l-0.183,0.319l-35.79,62.585h35.905
			l10.556-22.988c0.835-1.865,1.635-3.631,2.399-5.319l0.079-0.177c1.703-3.751,3.312-7.299,4.758-10.799l0.552-1.345l0.63,1.309
			c2.397,4.999,4.881,10.166,8.2,16.404L712.413,170.957z M741.528,166.847h-26.573l-10.347-20.694
			c-3.346-6.271-5.811-11.41-8.189-16.367l-0.126-0.266c-0.774-1.609-1.55-3.223-2.354-4.874l-0.563-1.156h-3.087l-0.488,1.358
			c-1.891,5.275-4.133,10.211-6.721,15.925c-0.8,1.752-1.629,3.584-2.488,5.502l-9.445,20.572h-26.191l0.557-0.962l33.062-57.818
			l-32.387-57.374h26.408l9.981,20.798c3.494,7.17,6.203,13.113,9.048,19.877l0.531,1.258h3.146l0.499-1.338
			c2.915-7.826,5.338-13.39,8.144-19.822l9.624-20.773h26.178l-32.717,56.655L741.528,166.847z M715.752,165.556h23.521
			l-33.742-58.208l0.188-0.327l31.779-55.032h-23.104l-9.268,20.01c-2.796,6.399-5.211,11.946-8.11,19.737l-0.81,2.187h-4.909
			l-0.863-2.051c-2.837-6.74-5.539-12.662-9.023-19.817l-9.628-20.065H648.4l31.666,56.082l-0.183,0.317l-32.688,57.168h23.118
			l9.098-19.816c0.86-1.915,1.687-3.753,2.484-5.494c2.583-5.697,4.812-10.613,6.69-15.828l0.791-2.222h4.811l0.918,1.882
			c0.804,1.652,1.579,3.269,2.357,4.88l0.127,0.263c2.372,4.949,4.831,10.068,8.166,16.345L715.752,165.556z"/>
	</g>
</g>
<g>
	<path fill="#FFFFFF" stroke="#1C75BC" stroke-width="1.9665" stroke-miterlimit="10" d="M565.583,138.032l-8.568,30.871h-28.188
		l36.756-120.259h35.688l37.291,120.259h-29.265l-9.275-30.871l-17.778-64.209L565.583,138.032z"/>
</g>
<g>
	<path fill="#FFFFFF" stroke="#1C75BC" stroke-width="1.9665" stroke-miterlimit="10" d="M713.682,168.903l-10.881-21.771
		c-4.463-8.384-7.319-14.629-10.71-21.588h-0.355c-2.497,6.959-5.53,13.205-9.276,21.588l-9.992,21.771h-31.05l34.795-60.846
		l-33.546-59.413h31.229l10.524,21.944c3.57,7.315,6.243,13.202,9.101,19.982h0.363c2.847-7.671,5.17-13.022,8.209-19.982
		l10.162-21.944h31.05l-33.905,58.704l35.691,61.556H713.682z"/>
</g>
<g>
	<g>
		<polygon fill="#1C75BC" stroke="#1C75BC" stroke-width="1.9665" stroke-miterlimit="10" points="590.342,130.34 549.172,104.471 
			587.478,108.234 		"/>
		<path fill="#1C75BC" stroke="#1C75BC" stroke-width="1.9665" stroke-miterlimit="10" d="M591.16,131.617l-44.658-28.058
			l41.549,4.078L591.16,131.617z M551.844,105.39l37.684,23.667l-2.628-20.226L551.844,105.39z"/>
	</g>
	<g>
		<path fill="#1C75BC" stroke="#1C75BC" stroke-width="1.9665" stroke-miterlimit="10" d="M593.759,135.671l-55.729-35.008
			l51.852,5.091L593.759,135.671z M560.312,108.278L586.928,125l-1.854-14.288L560.312,108.278z"/>
		<path fill="#1C75BC" stroke="#1C75BC" stroke-width="1.9665" stroke-miterlimit="10" d="M597.397,138.635L535.36,99.75
			l55.092,5.406L597.397,138.635z M540.699,101.576l52.245,32.821l-3.635-28.05L540.699,101.576z M587.743,126.278l-30.101-18.91
			l28.006,2.751L587.743,126.278z M562.984,109.196l23.122,14.524l-1.605-12.415L562.984,109.196z"/>
	</g>
</g>
<g>
	<g>
		<path fill="#1C75BC" stroke="#1C75BC" stroke-width="1.9665" stroke-miterlimit="10" d="M784.327,124.002l5.459,12.863
			l-31.829-9.311c0.211,0.914,0.179,1.784-0.135,2.603c-4.441,11.826-62.107,8.997-128.798-6.295
			c-18.334-4.206-35.43-8.913-50.506-13.778l1.194,10.835c18.087,6.09,38.675,11.902,60.807,16.976
			c80.021,18.356,149.829,20.134,155.908,3.973C798.319,136.84,793.821,130.667,784.327,124.002z"/>
		<path fill="#1C75BC" stroke="#1C75BC" stroke-width="1.9665" stroke-miterlimit="10" d="M753.045,153.562c0,0,0,0-0.005,0
			c-29.945,0-71.01-5.474-112.666-15.032c-21.655-4.964-42.134-10.685-60.867-17.004l-0.391-0.126l-1.349-12.236l0.949,0.31
			c15.596,5.025,32.567,9.65,50.452,13.755c37.648,8.639,73.59,13.59,98.606,13.59c17.318,0,27.775-2.442,29.443-6.884
			c0.254-0.685,0.294-1.434,0.111-2.229l-0.246-1.077l31.574,9.229l-5.812-13.685l1.852,1.303
			c10.155,7.124,14.301,13.395,12.339,18.619C793.468,151.576,771.146,153.562,753.045,153.562z M580.312,120.431
			c18.584,6.251,38.892,11.913,60.349,16.833c41.57,9.531,82.528,15.004,112.379,15.004c0.005,0,0.005,0,0.005,0
			c25.004,0,40.2-3.772,42.775-10.631c1.591-4.228-1.854-9.649-9.982-15.744l5.084,11.971l-32.188-9.4
			c0.027,0.668-0.068,1.314-0.303,1.922c-2.399,6.386-17.995,7.731-30.655,7.731c-25.109,0-61.156-4.968-98.892-13.624
			c-17.56-4.026-34.242-8.562-49.61-13.485L580.312,120.431z"/>
	</g>
	<g>
		<path fill="#1C75BC" stroke="#1C75BC" stroke-width="1.9665" stroke-miterlimit="10" d="M753.046,155.616
			c-0.001,0-0.001,0-0.006,0c-30.095,0-71.327-5.502-113.13-15.081c-21.705-4.981-42.247-10.721-61.064-17.056l-1.634-0.552
			l-1.837-16.694l3.972,1.279c15.542,5.015,32.46,9.63,50.282,13.718c37.505,8.602,73.275,13.53,98.139,13.53c0,0,0,0,0.008,0
			c18.766,0,26.558-2.99,27.518-5.554c0.075-0.186,0.157-0.507,0.032-1.049l-1.025-4.485l30.77,9l-6.924-16.314l7.733,5.431
			c11.019,7.74,15.416,14.808,13.079,21.027C795.763,151.314,780.312,155.616,753.046,155.616z M582.211,118.902
			c18.194,6.065,38.003,11.571,58.912,16.359c41.421,9.503,82.209,14.951,111.917,14.951c34.666,0,40.041-7.114,40.86-9.299
			c0.004-0.011,0.006-0.016,0.011-0.027l-33.542-9.809c-0.005,0.012-0.01,0.021-0.016,0.033c-2.291,6.099-12.947,9.052-32.578,9.06
			h-0.008c-25.254,0-61.459-4.985-99.347-13.679c-16.47-3.776-32.179-8-46.765-12.577L582.211,118.902z M791.41,133.767l2.691,6.347
			C794.351,138.356,793.413,136.188,791.41,133.767z"/>
		<path fill="#1C75BC" stroke="#1C75BC" stroke-width="1.9665" stroke-miterlimit="10" d="M753.046,156.266h-0.006
			c-30.141-0.005-71.427-5.508-113.271-15.102c-21.732-4.991-42.302-10.73-61.126-17.074l-2.029-0.681l-1.99-18.101l4.923,1.592
			c15.521,5.005,32.427,9.611,50.226,13.695c37.465,8.593,73.179,13.518,97.995,13.518c19.775,0,26.255-3.354,26.924-5.13
			c0.028-0.08,0.102-0.271,0.008-0.675l-1.279-5.566l30.518,8.923l-7.271-17.133l9.586,6.727
			c11.289,7.928,15.769,15.257,13.31,21.785C796.263,151.82,780.613,156.266,753.046,156.266z M577.813,122.443l1.24,0.421
			c18.783,6.33,39.309,12.058,61,17.035c41.759,9.579,82.939,15.069,112.986,15.072l0.006,0.645v-0.645
			c26.973,0,42.218-4.167,45.308-12.382c2.222-5.904-2.099-12.724-12.846-20.267l-5.879-4.125l6.574,15.477l-31.027-9.072
			l0.785,3.415c0.118,0.528,0.1,0.988-0.058,1.416c-1.088,2.887-9.05,5.975-28.128,5.975c-24.918,0-60.73-4.936-98.292-13.549
			c-17.835-4.091-34.771-8.708-50.332-13.733l-3.021-0.972L577.813,122.443z M753.04,150.864c-29.755,0-70.604-5.456-112.06-14.967
			c-20.927-4.799-40.771-10.311-58.973-16.379l-0.397-0.129l-0.705-6.387l0.951,0.297c14.543,4.563,30.26,8.792,46.71,12.562
			c37.84,8.678,73.995,13.654,99.201,13.654c19.336,0,29.797-2.822,31.981-8.629l0.213-0.57l0.593,0.137l32.819,9.594l-4.299-10.114
			l2.832,3.418c2.149,2.604,3.104,4.906,2.839,6.849l-0.03,0.245l0.024,0.01l-0.05,0.146l-0.266,1.924l-0.281-0.65
			C792.228,145.107,784.427,150.864,753.04,150.864z M582.804,118.42c18.062,6.002,37.73,11.457,58.461,16.214
			c41.377,9.485,82.117,14.931,111.775,14.931c31.657,0,38.496-6.006,39.946-8.282l-32.249-9.421
			c-2.837,6.033-13.634,8.949-32.962,8.949c-25.303,0-61.57-4.985-99.5-13.684c-16.124-3.7-31.55-7.833-45.861-12.297
			L582.804,118.42z"/>
	</g>
</g>
<g>
	<path fill="#1C75BC" stroke="#1C75BC" stroke-width="1.9665" stroke-miterlimit="10" d="M516.32,74.771
		c2.293-6.109,18.787-8.306,43.393-6.893l1.018-3.318c-30.352-1.155-50.934,2.387-54.111,10.831c-3.599,9.592,16,23.323,49.24,36.75
		l-16.135-10.621l18.786,1.566C530.45,92.416,513.673,81.796,516.32,74.771z"/>
</g>
<g>
	<path fill="#1C75BC" stroke="#1C75BC" stroke-width="1.9665" stroke-miterlimit="10" d="M691.906,86.762l3.481,8.009
		c22.237,7.166,40.085,14.672,50.971,21.396l18.584-3.223C746.54,104.025,721.25,94.858,691.906,86.762z"/>
</g>
<g>
	<path fill="#1C75BC" stroke="#1C75BC" stroke-width="1.9665" stroke-miterlimit="10" d="M577.398,107.383l-17.93-6.821
		c-32.068-12.196-41.863-21.543-40.622-24.84c0.964-2.562,8.747-5.553,27.521-5.553c3.049,0,6.32,0.076,9.757,0.229l2.569-8.615
		c-2.986-0.087-5.904-0.142-8.682-0.142c-27.274,0-42.729,4.31-45.924,12.801c-2.821,7.509,3.022,20.113,45.548,38.046
		c1.678,0.711,20.982,8.324,22.778,9.047l-15.068-11.653l-7.271-4.792L577.398,107.383z M532.183,98.176
		c-14.823-7.991-25.139-16.235-23.033-21.831c0.368-0.973,1.632-2.922,5.997-4.786c-0.604,0.698-1.052,1.448-1.358,2.257
		c-2.697,7.167,6.577,15.599,27.603,25.131L532.183,98.176z"/>
	<path fill="#1C75BC" stroke="#1C75BC" stroke-width="1.9665" stroke-miterlimit="10" d="M576.52,123.896l-4.354-1.759
		c-0.664-0.274-3.755-1.494-7.461-2.956c-6.353-2.519-14.265-5.645-15.326-6.091c-23.823-10.053-51.125-24.955-45.896-38.875
		c3.303-8.771,18.953-13.22,46.528-13.22c2.724,0,5.654,0.052,8.707,0.147l0.839,0.027l-2.952,9.896l-0.508-0.022
		c-3.434-0.15-6.708-0.228-9.73-0.228c-19.763,0-26.246,3.358-26.913,5.128c-0.936,2.49,7.678,11.626,40.251,24.015l22.219,8.449
		l-29.371-2.454l5.145,3.388L576.52,123.896z M550.012,62.296c-26.979,0-42.227,4.161-45.315,12.375
		c-2.688,7.15,2.97,19.415,45.188,37.222c1.049,0.449,8.946,3.572,15.296,6.081c1.144,0.461,2.229,0.88,3.203,1.272l-11.433-8.85
		l-9.355-6.16l25.274,2.121l-13.629-5.191c-30.615-11.639-42.653-21.284-40.999-25.674c1.082-2.883,9.041-5.975,28.125-5.975
		c2.897,0,6.015,0.07,9.281,0.215l2.188-7.326C555.104,62.329,552.472,62.296,550.012,62.296z M545.074,99.905l-13.201-1.156
		c-12.073-6.515-25.926-15.725-23.331-22.637c0.409-1.083,1.775-3.197,6.347-5.148l2.562-1.096l-1.82,2.109
		c-0.541,0.638-0.958,1.331-1.233,2.069c-2.548,6.772,6.623,14.949,27.259,24.311L545.074,99.905z M532.373,97.541l5.433,0.453
		c-19.279-9.174-27.342-17.176-24.621-24.403c0.058-0.15,0.113-0.295,0.183-0.443c-2.619,1.477-3.392,2.835-3.613,3.427
		C508.014,81.201,516.258,88.839,532.373,97.541z"/>
</g>
<g>
	<g>
		<path fill="#1C75BC" stroke="#1C75BC" stroke-width="1.9665" stroke-miterlimit="10" d="M766.115,110.518
			c-19.043-9.245-44.455-18.354-73.494-26.357l-2.052-0.563l5.812,14.343c20.995,6.855,38.195,14.12,48.554,20.525l0.875,0.543
			l27.854-4.832L766.115,110.518z M746.896,113.333c-11.02-6.646-28.092-13.798-49.519-20.759l-0.726-1.668
			c22.695,6.464,42.927,13.582,59.31,20.855L746.896,113.333z"/>
	</g>
	<g>
		<path fill="#1C75BC" stroke="#1C75BC" stroke-width="1.9665" stroke-miterlimit="10" d="M745.678,119.685l-1.082-0.668
			c-16.373-10.117-33.64-15.686-47.668-20.268l-0.619-0.125l-6.146-15.919l2.636,0.833c29.065,8.009,54.519,17.141,73.604,26.391
			l9.356,4.545L745.678,119.685z M696.863,97.418c20.909,6.844,38.093,14.121,48.414,20.498l0.668,0.408l25.631-4.443l-5.743-2.78
			c-19.01-9.224-44.389-18.327-73.379-26.31l-0.793-0.226L696.863,97.418z M746.769,114.009l-0.202-0.126
			c-10.976-6.602-28.053-13.761-49.39-20.694l-0.277-0.088l-1.386-3.2l1.312,0.376c22.548,6.427,43.085,13.652,59.396,20.89
			l1.951,0.872L746.769,114.009z M697.858,92.046c21.167,6.892,38.153,14.015,49.166,20.605l6.707-1.166
			c-15.602-6.78-34.863-13.527-55.939-19.586L697.858,92.046z"/>
	</g>
</g>
<g>
	<polygon fill="#1C75BC" stroke="#1C75BC" stroke-width="1.9665" stroke-miterlimit="10" points="724.15,114.126 782.996,131.466 
		771.427,105.938 	"/>
</g>
<g>
	<g>
		<g>
			<path fill="#1C75BC" d="M773.025,102.915l-21.956,3.804l5.657,2.353l-17.811,3.289l-4.794-2.707l-20.353,3.954l74.119,22.121
				L773.025,102.915z M769.828,108.954l8.265,18.252l-42.064-12.395L769.828,108.954z"/>
		</g>
	</g>
	<g>
		<g>
			<path fill="#1C75BC" d="M789.069,136.75l-75.789-23.142l20.951-4.632l4.796,2.707l15.434-2.851l-5.699-2.365l24.647-4.274
				L789.069,136.75z M716.476,113.737l70.233,20.961l-14.068-31.056l-19.264,3.334l5.616,2.332l-20.196,3.733l-4.789-2.705
				L716.476,113.737z M779.271,128.228l-46.091-13.583l37.031-6.412L779.271,128.228z M738.879,114.973l38.045,11.212l-7.48-16.505
				L738.879,114.973z"/>
			<path fill="#1C75BC" d="M790.861,138.326L714.478,115l-2.122-1.545l1.098-0.894l20.935-4.627l4.814,2.718l11.818-2.186
				l-5.766-2.391l28.734-4.981L790.861,138.326z M720.594,113.94l64.328,19.198l-12.864-28.398l-15.177,2.628l3.699,1.536
				l10.213-1.77l10.259,22.643l-52.195-15.383l7.912-1.369l-2.93-1.655L720.594,113.94z M743.201,115.223l31.941,9.412l-6.28-13.857
				L743.201,115.223z"/>
		</g>
	</g>
</g>
<g>
	<polygon fill="#FFFFFF" stroke="#1C75BC" stroke-width="1.9665" stroke-miterlimit="10" points="594.027,132.637 549.172,104.471 
		587.478,108.234 	"/>
</g>
<g>
	<path fill="#FFFFFF" d="M784.327,124.002l5.459,12.863l-31.728-8.831c0.141,0.67,0.066,1.333-0.246,2.151
		c-4.442,11.826-62.098,8.969-128.788-6.324c-18.334-4.206-35.43-8.913-50.506-13.778l1.194,10.835
		c18.087,6.09,38.675,11.902,60.807,16.976c80.021,18.356,149.829,20.134,155.908,3.973
		C798.319,136.84,793.821,130.667,784.327,124.002z"/>
</g>
<path fill="#FFFFFF" d="M516.32,74.771c2.15-5.728,16.811-8.004,38.909-7.108l0.952-3.239c-27.843-0.645-46.543,2.954-49.562,10.968
	c-3.599,9.592,16,23.323,49.24,36.75l-16.135-10.621l18.786,1.566C530.45,92.416,513.673,81.796,516.32,74.771z"/>
<path fill="#FFFFFF" d="M653.995,77.695c-14.471-3.149-28.568-5.779-41.923-7.818l1.562,4.954
	c9.849,1.775,20.065,3.846,30.529,6.238c4.646,1.063,9.181,2.168,13.655,3.291L653.995,77.695z"/>
<g>
	<path fill="#FFFFFF" d="M695.574,87.806l3.138,8.054c20.999,6.9,37.196,13.85,47.646,20.307l18.584-3.223
		C747.169,104.325,723.65,95.689,695.574,87.806z"/>
</g>
<g>
	<polygon fill="#FFFFFF" points="724.15,114.126 782.996,131.466 771.427,105.938 	"/>
</g>
</svg>
